<?xml version="1.0" encoding="utf-8"?>
<!-- Generator: Adobe Illustrator 21.1.0, SVG Export Plug-In . SVG Version: 6.00 Build 0)  -->
<svg version="1.1" id="_x36_.5" xmlns="http://www.w3.org/2000/svg" xmlns:xlink="http://www.w3.org/1999/xlink" x="0px" y="0px"
	 viewBox="0 0 38 38" style="enable-background:new 0 0 38 38;" xml:space="preserve">
<style type="text/css">
	.st0{fill:#3E3A39;}
	.st1{enable-background:new    ;}
	.st2{fill:#FFFFFF;}
</style>
<g>
	<circle class="st0" cx="19" cy="19" r="19"/>
	<g class="st1">
		<path class="st2" d="M15.8,25.9c-1.3,0-1.6,0-2.2,0.1c0.2-1.6,0.3-1.9,0.6-2.6c0.5-1.3,1.3-2.4,2.6-3.4c0.7-0.6,0.7-0.6,3.1-2.2
			c2-1.3,2.6-2.2,2.6-3.4c0-1.5-1.3-2.5-3.3-2.5c-1.3,0-2.3,0.4-2.9,1.3c-0.4,0.5-0.6,1-0.7,2l-1.7-0.3c0.3-1.4,0.6-2.1,1.3-2.9
			c0.9-1,2.3-1.5,4-1.5c3,0,5,1.5,5,3.9c0,1-0.4,2-1.2,2.8c-0.6,0.7-1.1,1.1-3.4,2.6c-1.6,1.1-2.2,1.6-2.9,2.5
			c-0.6,0.8-0.9,1.4-1.1,2.3h6.4c1,0,1.7,0,2.4-0.1V26c-0.8-0.1-1.5-0.1-2.5-0.1H15.8z"/>
	</g>
</g>
</svg>
