<?xml version="1.0" encoding="utf-8"?>
<!-- Generator: Adobe Illustrator 21.1.0, SVG Export Plug-In . SVG Version: 6.00 Build 0)  -->
<svg version="1.1" id="レイヤー_2" xmlns="http://www.w3.org/2000/svg" xmlns:xlink="http://www.w3.org/1999/xlink" x="0px"
	 y="0px" viewBox="0 0 387.4 180.5" style="enable-background:new 0 0 387.4 180.5;" xml:space="preserve">
<style type="text/css">
	.st0{fill:#0081CC;}
	.st1{fill:none;stroke:#0081CC;stroke-miterlimit:10;}
	.st2{fill:#EEEEEF;}
	.st3{fill:none;}
	.st4{fill:none;stroke:#0081CC;stroke-linecap:square;stroke-miterlimit:3;}
</style>
<g>
	<rect x="307.3" y="161.9" class="st0" width="50.9" height="1"/>
	<rect x="314.9" y="37.5" class="st0" width="3.4" height="1"/>
	<path class="st0" d="M339.6,53.4H318V23.1h21.6V53.4z M319,52.4h19.6V24.1H319V52.4z"/>
	<path class="st0" d="M354,10.1h-36V0h36V10.1z M319,9.1h34V1h-34V9.1z"/>
	<path class="st0" d="M361.3,56.2h-22.7V24.1h-26.7v-15h49.4V56.2z M339.6,55.2h20.7V10.1h-47.4v13h26.7V55.2z"/>
	<polygon class="st0" points="334.3,78.4 325.8,63.7 326.6,63.1 334.7,77.1 342.4,63.2 343.3,63.6 335.1,78.3 	"/>
	<path class="st0" d="M315.6,78.6l10.1-15.4l0.8,0.5l-9.1,13.8c3.3-0.1,14-0.3,17.2,0l-0.1,1c-3.6-0.4-17.9,0-18,0L315.6,78.6z"/>
	<path class="st0" d="M354.5,78.6l-1,0c-0.1,0-14.4-0.4-18,0l-0.1-1c3.2-0.3,13.9-0.1,17.2,0l-9.1-13.8l0.8-0.5L354.5,78.6z"/>
	<polygon class="st0" points="361.8,180.2 360.8,180.2 361.2,162.9 306.8,162.9 305.2,97 294.8,117.7 247.2,97.5 250.7,92.9 
		242.9,87.2 244.6,82.9 288.3,96.2 297.9,63.8 325.7,62.9 325.7,52.4 339.6,52.4 339.6,55.2 343.4,55.2 343.4,62.9 376.1,63.4 
		387.4,180.1 386.4,180.2 375.2,64.4 342.4,63.9 342.4,56.2 338.6,56.2 338.6,53.4 326.7,53.4 326.7,63.9 298.7,64.8 289,97.4 
		245.2,84.1 244.1,86.8 252.1,92.7 248.8,97.1 294.3,116.5 306.1,93 307.8,161.9 362.2,161.9 	"/>
	<polygon class="st0" points="374.3,180.2 363.7,103 362.2,162.3 361.2,162.3 362.9,96.8 363.9,96.7 375.2,180.1 	"/>
	<path class="st1" d="M361.3,180.2"/>
	<g>
		<line class="st2" x1="307.3" y1="162.4" x2="307.7" y2="180"/>
		
			<rect x="307" y="162.4" transform="matrix(0.9997 -2.341655e-02 2.341655e-02 0.9997 -3.9245 7.2473)" class="st0" width="1" height="17.6"/>
	</g>
	<path class="st1" d="M361.3,180.1"/>
	<path class="st0" d="M374.5,179.2c-0.2,0-0.2,0-0.3-0.1l0.7-0.7l-0.3,0.4l0-0.5c0.5,0,7.4-1.3,11.9-2.1l0.2,1
		C377.3,178.8,375.1,179.2,374.5,179.2z"/>
	
		<rect x="248.8" y="92.9" transform="matrix(0.3419 -0.9397 0.9397 0.3419 80.2789 301.3343)" class="st0" width="12.9" height="1"/>
	<g>
		
			<rect x="216.6" y="116.6" transform="matrix(0.6072 -0.7946 0.7946 0.6072 -4.4855 225.1276)" class="st0" width="17.6" height="1"/>
		
			<rect x="222.5" y="120.6" transform="matrix(0.4904 -0.8715 0.8715 0.4904 12.3605 263.2398)" class="st0" width="17.6" height="1"/>
		
			<rect x="210.8" y="112.9" transform="matrix(0.7173 -0.6968 0.6968 0.7173 -16.7927 185.4129)" class="st0" width="18.7" height="1"/>
	</g>
	<path class="st0" d="M198.7,143.1l-7.1-9.9l2-6.2l-5.6-2.6l26.7-9.6l12.7,17.9L198.7,143.1z M192.7,133l6.3,8.9l26.8-9.7
		l-11.5-16.3l-23.7,8.6l4.2,2L192.7,133z"/>
	<path class="st0" d="M201,139.5l-7.9-11.1l0.5-1.4l-2.3-1l21.5-7.9l9.7,13.6L201,139.5z M194.2,128.2l7.1,10.1l19.6-7l-8.5-12
		L194,126l0.9,0.4L194.2,128.2z"/>
	<g>
		<g>
			<g>
				<g>
					<polygon class="st0" points="207.2,128.3 206.7,127.5 207.5,127.2 208,127.9 					"/>
					<path class="st0" d="M207.2,128.4l-0.7-1l1.1-0.4l0.7,1L207.2,128.4z M206.9,127.6l0.4,0.5l0.6-0.2l-0.4-0.5L206.9,127.6z"/>
				</g>
				<g>
					<polygon class="st0" points="208.3,129.8 207.7,129 208.6,128.7 209.1,129.4 					"/>
					<path class="st0" d="M208.2,129.9l-0.7-1l1.1-0.4l0.7,1L208.2,129.9z M208,129.1l0.4,0.5l0.6-0.2l-0.4-0.5L208,129.1z"/>
				</g>
				<g>
					<polygon class="st0" points="206.9,129.3 206.4,128.6 207.2,128.3 207.7,129 					"/>
					<path class="st0" d="M206.9,129.5l-0.7-1l1.1-0.4l0.7,1L206.9,129.5z M206.6,128.6l0.4,0.5l0.6-0.2l-0.4-0.5L206.6,128.6z"/>
				</g>
				<g>
					<polygon class="st0" points="205.5,128.9 205,128.1 205.8,127.8 206.4,128.6 					"/>
					<path class="st0" d="M205.5,129l-0.7-1l1.1-0.4l0.7,1L205.5,129z M205.2,128.2l0.4,0.5l0.6-0.2l-0.4-0.5L205.2,128.2z"/>
				</g>
				<g>
					<polygon class="st0" points="206.6,130.4 206.1,129.6 206.9,129.3 207.4,130.1 					"/>
					<path class="st0" d="M206.6,130.5l-0.7-1l1.1-0.4l0.7,1L206.6,130.5z M206.3,129.7l0.4,0.5l0.6-0.2l-0.4-0.5L206.3,129.7z"/>
				</g>
			</g>
			<g>
				<g>
					<polygon class="st0" points="205.1,125.3 204.6,124.5 205.4,124.2 205.9,124.9 					"/>
					<path class="st3" d="M205,125.4l-0.7-1l1.1-0.4l0.7,1L205,125.4z M204.8,124.6l0.4,0.5l0.6-0.2l-0.4-0.5L204.8,124.6z"/>
				</g>
				<g>
					<polygon class="st0" points="206.1,126.8 205.6,126 206.4,125.7 207,126.4 					"/>
					<path class="st0" d="M206.1,126.9l-0.7-1l1.1-0.4l0.7,1L206.1,126.9z M205.8,126.1l0.4,0.5l0.6-0.2l-0.4-0.5L205.8,126.1z"/>
				</g>
				<g>
					<polygon class="st0" points="204.8,126.3 204.3,125.6 205.1,125.3 205.6,126 					"/>
					<path class="st3" d="M204.7,126.5l-0.7-1l1.1-0.4l0.7,1L204.7,126.5z M204.5,125.6l0.4,0.5l0.6-0.2l-0.4-0.5L204.5,125.6z"/>
				</g>
				<g>
					<polygon class="st0" points="203.4,125.9 202.9,125.1 203.7,124.8 204.3,125.6 					"/>
					<path class="st0" d="M203.4,126l-0.7-1l1.1-0.4l0.7,1L203.4,126z M203.1,125.2l0.4,0.5l0.6-0.2l-0.4-0.5L203.1,125.2z"/>
				</g>
				<g>
					<polygon class="st0" points="204.5,127.4 203.9,126.6 204.8,126.3 205.3,127.1 					"/>
					<path class="st3" d="M204.4,127.5l-0.7-1l1.1-0.4l0.7,1L204.4,127.5z M204.2,126.7l0.4,0.5l0.6-0.2l-0.4-0.5L204.2,126.7z"/>
				</g>
			</g>
			<g>
				<g>
					<polygon class="st0" points="209.3,131.3 208.8,130.5 209.6,130.2 210.2,131 					"/>
					<path class="st0" d="M209.3,131.4l-0.7-1l1.1-0.4l0.7,1L209.3,131.4z M209,130.6l0.4,0.5l0.6-0.2l-0.4-0.5L209,130.6z"/>
				</g>
				<g>
					<polygon class="st0" points="210.4,132.8 209.9,132 210.7,131.7 211.2,132.5 					"/>
					<path class="st0" d="M210.3,132.9l-0.7-1l1.1-0.4l0.7,1L210.3,132.9z M210.1,132.1l0.4,0.5l0.6-0.2l-0.4-0.5L210.1,132.1z"/>
				</g>
				<g>
					<polygon class="st0" points="209,132.3 208.5,131.6 209.3,131.3 209.9,132 					"/>
					<path class="st0" d="M209,132.5l-0.7-1l1.1-0.4l0.7,1L209,132.5z M208.7,131.6l0.4,0.5l0.6-0.2l-0.4-0.5L208.7,131.6z"/>
				</g>
				<g>
					<polygon class="st0" points="207.7,131.9 207.1,131.1 208,130.8 208.5,131.6 					"/>
					<path class="st0" d="M207.6,132l-0.7-1l1.1-0.4l0.7,1L207.6,132z M207.3,131.2l0.4,0.5l0.6-0.2l-0.4-0.5L207.3,131.2z"/>
				</g>
				<g>
					<polygon class="st0" points="208.7,133.4 208.2,132.6 209,132.3 209.6,133.1 					"/>
					<path class="st0" d="M208.7,133.5l-0.7-1l1.1-0.4l0.7,1L208.7,133.5z M208.4,132.7l0.4,0.5l0.6-0.2l-0.4-0.5L208.4,132.7z"/>
				</g>
			</g>
			<g>
				<g>
					<polygon class="st0" points="203.9,129.5 203.3,128.7 204.2,128.4 204.7,129.2 					"/>
					<path class="st3" d="M203.8,129.6l-0.7-1l1.1-0.4l0.7,1L203.8,129.6z M203.6,128.8l0.4,0.5l0.6-0.2l-0.4-0.5L203.6,128.8z"/>
				</g>
				<g>
					<polygon class="st0" points="204.9,131 204.4,130.2 205.2,129.9 205.8,130.7 					"/>
					<path class="st3" d="M204.9,131.1l-0.7-1l1.1-0.4l0.7,1L204.9,131.1z M204.6,130.3l0.4,0.5l0.6-0.2l-0.4-0.5L204.6,130.3z"/>
				</g>
				<g>
					<polygon class="st0" points="203.6,130.5 203,129.8 203.9,129.5 204.4,130.2 					"/>
					<path class="st0" d="M203.5,130.7l-0.7-1l1.1-0.4l0.7,1L203.5,130.7z M203.3,129.8l0.4,0.5l0.6-0.2l-0.4-0.5L203.3,129.8z"/>
				</g>
				<g>
					<polygon class="st0" points="202.2,130.1 201.7,129.3 202.5,129 203,129.8 					"/>
					<path class="st0" d="M202.2,130.2l-0.7-1l1.1-0.4l0.7,1L202.2,130.2z M201.9,129.4l0.4,0.5l0.6-0.2l-0.4-0.5L201.9,129.4z"/>
				</g>
				<g>
					<polygon class="st0" points="203.3,131.6 202.7,130.8 203.6,130.5 204.1,131.3 					"/>
					<path class="st0" d="M203.2,131.7l-0.7-1l1.1-0.4l0.7,1L203.2,131.7z M203,130.9l0.4,0.5l0.6-0.2l-0.4-0.5L203,130.9z"/>
				</g>
			</g>
			<g>
				<g>
					<polygon class="st0" points="210.5,127 210,126.3 210.8,126 211.4,126.7 					"/>
					<path class="st0" d="M210.5,127.2l-0.7-1l1.1-0.4l0.7,1L210.5,127.2z M210.2,126.4l0.4,0.5l0.6-0.2l-0.4-0.5L210.2,126.4z"/>
				</g>
				<g>
					<polygon class="st0" points="211.6,128.5 211.1,127.8 211.9,127.5 212.4,128.2 					"/>
					<path class="st0" d="M211.6,128.7l-0.7-1l1.1-0.4l0.7,1L211.6,128.7z M211.3,127.9l0.4,0.5l0.6-0.2l-0.4-0.5L211.3,127.9z"/>
				</g>
				<g>
					<polygon class="st0" points="210.2,128.1 209.7,127.3 210.5,127 211.1,127.8 					"/>
					<path class="st0" d="M210.2,128.3l-0.7-1l1.1-0.4l0.7,1L210.2,128.3z M209.9,127.4l0.4,0.5l0.6-0.2l-0.4-0.5L209.9,127.4z"/>
				</g>
				<g>
					<polygon class="st0" points="208.9,127.6 208.3,126.9 209.2,126.6 209.7,127.3 					"/>
					<path class="st0" d="M208.8,127.8l-0.7-1l1.1-0.4l0.7,1L208.8,127.8z M208.6,127l0.4,0.5l0.6-0.2l-0.4-0.5L208.6,127z"/>
				</g>
				<g>
					<polygon class="st0" points="209.9,129.1 209.4,128.4 210.2,128.1 210.8,128.8 					"/>
					<path class="st0" d="M209.9,129.3l-0.7-1l1.1-0.4l0.7,1L209.9,129.3z M209.6,128.5l0.4,0.5l0.6-0.2l-0.4-0.5L209.6,128.5z"/>
				</g>
			</g>
			<g>
				<g>
					<polygon class="st0" points="208.1,125.1 207.6,124.3 208.4,124 208.9,124.8 					"/>
					<path class="st0" d="M208.1,125.3l-0.7-1l1.1-0.4l0.7,1L208.1,125.3z M207.8,124.4l0.4,0.5l0.6-0.2l-0.4-0.5L207.8,124.4z"/>
				</g>
				<g>
					<path class="st0" d="M209.8,125.1l-1.9,0.7l-1.2-1.7l1.9-0.7L209.8,125.1 M210.3,125.2l-1.6-2.2l-2.5,0.9l1.6,2.2L210.3,125.2
						L210.3,125.2z"/>
					<path class="st0" d="M207.8,126.3l-1.8-2.5l2.8-1l1.8,2.5L207.8,126.3z M206.4,124l1.4,2l2.2-0.8l-1.4-2L206.4,124z
						 M207.9,125.9l-1.4-1.9l2.1-0.8l1.4,1.9L207.9,125.9z M206.9,124.1l1,1.5l1.6-0.6l-1-1.5L206.9,124.1z"/>
				</g>
			</g>
			<g>
				<g>
					<polygon class="st0" points="201.5,127.5 200.9,126.8 201.8,126.5 202.3,127.2 					"/>
					<path class="st0" d="M201.4,127.7l-0.7-1l1.1-0.4l0.7,1L201.4,127.7z M201.1,126.8l0.4,0.5l0.6-0.2l-0.4-0.5L201.1,126.8z"/>
				</g>
				<g>
					<path class="st0" d="M203.1,127.5l-1.9,0.7l-1.2-1.7l1.9-0.7L203.1,127.5 M203.6,127.7l-1.6-2.2l-2.5,0.9l1.6,2.2L203.6,127.7
						L203.6,127.7z"/>
					<path class="st0" d="M201.1,128.7l-1.8-2.5l2.8-1l1.8,2.5L201.1,128.7z M199.8,126.4l1.4,2l2.2-0.8l-1.4-2L199.8,126.4z
						 M201.2,128.3l-1.4-1.9l2.1-0.8l1.4,1.9L201.2,128.3z M200.3,126.6l1,1.5l1.6-0.6l-1-1.5L200.3,126.6z"/>
				</g>
			</g>
			<g>
				<path class="st3" d="M206.7,132.6l-0.8,0.3l-0.5-0.7l0.8-0.3L206.7,132.6 M207.3,132.9l-1-1.4l-1.6,0.6l1,1.4L207.3,132.9
					L207.3,132.9z"/>
				<path class="st3" d="M205.7,133.6l-1.2-1.7l1.9-0.7l1.2,1.7L205.7,133.6z M204.9,132.1l0.8,1.2l1.3-0.5l-0.8-1.2L204.9,132.1z
					 M205.8,133.1l-0.7-0.9l1-0.4l0.7,0.9L205.8,133.1z M205.6,132.3l0.3,0.5l0.5-0.2l-0.3-0.5L205.6,132.3z"/>
			</g>
			<g>
				<g>
					<polygon class="st0" points="212.4,131.1 211.8,130.4 212.7,130.1 213.2,130.8 					"/>
					<path class="st0" d="M212.3,131.3l-0.7-1l1.1-0.4l0.7,1L212.3,131.3z M212.1,130.4l0.4,0.5l0.6-0.2l-0.4-0.5L212.1,130.4z"/>
				</g>
				<g>
					<path class="st0" d="M214.1,131.1l-1.9,0.7l-1.2-1.7l1.9-0.7L214.1,131.1 M214.6,131.3L213,129l-2.5,0.9l1.6,2.2L214.6,131.3
						L214.6,131.3z"/>
					<path class="st0" d="M212,132.3l-1.8-2.5l2.8-1l1.8,2.5L212,132.3z M210.7,130l1.4,2l2.2-0.8l-1.4-2L210.7,130z M212.1,131.9
						l-1.4-1.9l2.1-0.8l1.4,1.9L212.1,131.9z M211.2,130.2l1,1.5l1.6-0.6l-1-1.5L211.2,130.2z"/>
				</g>
			</g>
		</g>
	</g>
	<path class="st0" d="M189.8,97.9c3.5-1.3,5.2,0.1,6.2,3c1.2,3.4,0.3,5.2-3.1,6.4l-5.5,2l2,5.5l-2.2,0.8l-5.4-14.9L189.8,97.9z
		 M184.9,102.1l1.9,5.3l5.4-2c1.5-0.6,2.5-1.2,1.6-3.6s-2-2.3-3.6-1.7L184.9,102.1z"/>
	<path class="st0" d="M201.7,96.3l0.4,2.3l-2.4,0.4l-0.4-2.3L201.7,96.3z M202.3,100.2l2.1,11.6l-2.2,0.4l-2.1-11.6L202.3,100.2z"/>
	<path class="st0" d="M211.5,95.6l0.6,10.2l-1.7,0.1l-1.2-10.1L211.5,95.6z M212.6,107.4l0.2,2.3l-2.2,0.2l-0.2-2.3L212.6,107.4z"/>
	<path class="st0" d="M217.5,93.3l-0.3,10.9h-1.8l-0.3-10.9H217.5z M217.5,106v2.5h-2.4V106H217.5z"/>
	<path class="st0" d="M124,162.3H69.3l-1.7-72.1L48,128.6l-0.1,0.1L5.5,149.2L0,140.3l37.6-23.7l19.7-53.8h30.8V52.3h17.1v10.6h24
		l31.4,47.4l34.4,16.1l-3.5,10.8L151,124.6l-0.1-0.1l-25.2-34.8L124,162.3z M70.3,161.3H123l1.7-73.1l0.9-0.3l26,35.9l39.2,12.2
		l2.9-9l-33.8-15.9l-31.2-47.2h-24.4V53.3H89.1v10.6H57.9l-19.5,53.4l-0.1,0.1L1.4,140.7l4.5,7.3l41.3-20.1L67.6,88l0.9,0.2
		L70.3,161.3z"/>
	<rect x="88.1" y="62.9" class="st0" width="17.7" height="1"/>
	<g>
		<path class="st0" d="M113.3,53.2H80V10.7h33.3V53.2z M81,52.2h31.3V11.7H81V52.2z"/>
		<rect x="79.7" y="22.5" class="st0" width="41.9" height="1"/>
		<rect x="113" y="37.4" class="st0" width="4.5" height="1"/>
		<path class="st4" d="M76.4,14.3"/>
	</g>
	<rect x="69.2" y="161.8" class="st0" width="54.7" height="1"/>
	<rect x="175.2" y="126.9" transform="matrix(0.3656 -0.9308 0.9308 0.3656 -3.3161 249.9347)" class="st0" width="13" height="1"/>
	<polygon class="st0" points="69.6,180.5 69.2,161.9 123.9,161.9 123.5,180.3 122.5,180.3 122.9,162.9 70.2,162.9 70.6,180.5 	"/>
	<path class="st0" d="M238.4,111.1l-10.2-7.6l13.6-18.4l2,1.5l8.3,6.1l-3.7,4.9L238.4,111.1z M229.6,103.3l8.6,6.4l12.5-16.8
		l-8.7-6.4L229.6,103.3z"/>
</g>
<rect x="12.7" y="133.5" transform="matrix(0.8583 -0.5131 0.5131 0.8583 -69.3964 26.4706)" class="st0" width="1" height="10.7"/>
</svg>
