<?xml version="1.0" encoding="utf-8"?>
<!-- Generator: Adobe Illustrator 14.0.0, SVG Export Plug-In . SVG Version: 6.00 Build 43363)  -->
<!DOCTYPE svg PUBLIC "-//W3C//DTD SVG 1.1//EN" "http://www.w3.org/Graphics/SVG/1.1/DTD/svg11.dtd">
<svg version="1.1" id="レイヤー_1" xmlns="http://www.w3.org/2000/svg" xmlns:xlink="http://www.w3.org/1999/xlink" x="0px"
	 y="0px" width="50px" height="50px" viewBox="0 0 50 50" enable-background="new 0 0 50 50" xml:space="preserve">
<path fill="#3C3A39" d="M25,0.087c-13.805,0-25,11.195-25,25c0,13.806,11.195,25,25,25c13.81,0,25-11.194,25-25
	C50,11.282,38.811,0.087,25,0.087z M36.633,34.267c0.678,0.678,0.678,1.775,0,2.453c-0.339,0.338-0.782,0.508-1.227,0.508
	c-0.443,0-0.887-0.17-1.226-0.508L25,27.54l-9.18,9.18c-0.339,0.338-0.783,0.508-1.226,0.508c-0.444,0-0.888-0.17-1.227-0.508
	c-0.677-0.678-0.677-1.775,0-2.453l9.18-9.18l-9.18-9.18c-0.677-0.677-0.677-1.774,0-2.452c0.678-0.678,1.775-0.678,2.453,0
	l9.18,9.18l9.18-9.18c0.677-0.678,1.774-0.678,2.452,0s0.678,1.775,0,2.452l-9.18,9.18L36.633,34.267z"/>
</svg>
