<?xml version="1.0" encoding="utf-8"?>
<!-- Generator: Adobe Illustrator 20.1.0, SVG Export Plug-In . SVG Version: 6.00 Build 0)  -->
<svg version="1.1" xmlns="http://www.w3.org/2000/svg" xmlns:xlink="http://www.w3.org/1999/xlink" x="0px" y="0px"
	 viewBox="0 0 50 50" style="enable-background:new 0 0 50 50;" xml:space="preserve">
<style type="text/css">
	.st0{display:none;}
	.st1{display:inline;fill:#FFFFFF;}
	.st2{display:inline;}
	.st3{fill:#3D3A39;}
	.st4{fill:#FFFFFF;}
	.st5{display:inline;fill:#3D3A39;}
	.st6{fill:#3E3A39;}
	.st7{fill:#231815;}
</style>
<g id="PLUS" class="st0">
	<path class="st1" d="M25,0C11.2,0,0,11.2,0,25s11.2,25,25,25s25-11.2,25-25S38.8,0,25,0z M40.6,27.1H27.1v13.5
		c0,1.2-0.9,2.1-2.1,2.1s-2.1-0.9-2.1-2.1V27.1H9.4c-1.2,0-2.1-0.9-2.1-2.1s0.9-2.1,2.1-2.1h13.5V9.4c0-1.2,0.9-2.1,2.1-2.1
		s2.1,0.9,2.1,2.1v13.5h13.5c1.2,0,2.1,0.9,2.1,2.1S41.8,27.1,40.6,27.1z"/>
</g>
<g id="Back" class="st0">
	<g id="Back_1_" class="st2">
		<path class="st3" d="M25,50c13.8,0,25-11.2,25-25S38.8,0,25,0S0,11.2,0,25S11.2,50,25,50z M13.1,24.3l16.5-8.9
			c0.7-0.4,1.3-0.1,1.3,0.7v17.8c0,0.8-0.6,1.1-1.3,0.7l-16.5-8.9C12.4,25.3,12.4,24.7,13.1,24.3z"/>
	</g>
</g>
<g id="NEXT" class="st0">
	<g id="Back_2_" class="st2">
		<path class="st4" d="M25,0C11.2,0,0,11.2,0,25s11.2,25,25,25s25-11.2,25-25S38.8,0,25,0z M36.9,25.7l-16.5,8.9
			c-0.7,0.4-1.3,0.1-1.3-0.7V16.1c0-0.8,0.6-1.1,1.3-0.7l16.5,8.9C37.6,24.7,37.6,25.3,36.9,25.7z"/>
	</g>
</g>
<g id="Close" class="st0">
	<path class="st5" d="M25,0C11.2,0,0,11.2,0,25s11.2,25,25,25c13.8,0,25-11.2,25-25S38.8,0,25,0z M36.6,34.1c0.7,0.7,0.7,1.8,0,2.4
		c-0.3,0.3-0.8,0.5-1.2,0.5s-0.9-0.2-1.2-0.5L25,27.4l-9.1,9.1c-0.3,0.3-0.8,0.5-1.2,0.5s-0.9-0.2-1.2-0.5c-0.7-0.7-0.7-1.8,0-2.4
		l9.1-9.1l-9.1-9.1c-0.7-0.7-0.7-1.8,0-2.4s1.8-0.7,2.4,0l9.1,9.1l9.1-9.1c0.7-0.7,1.8-0.7,2.4,0s0.7,1.8,0,2.4L27.4,25L36.6,34.1z"
		/>
</g>
<g id="checkbox" class="st0">
	<polygon class="st2" points="50,15.2 45.2,8.9 14.9,31.7 5.7,22.4 0,28.1 14.2,42.3 14.3,42.2 	"/>
</g>
<g id="select_x5F_box" class="st0">
	<g class="st2">
		<rect x="0" class="st6" width="50" height="50"/>
		<polygon class="st4" points="33.1,19.7 25.3,33.8 17.5,19.7 		"/>
	</g>
</g>
<g id="modal_x5F_close" class="st0">
	<g class="st2">
		<rect x="-7.4" y="22" transform="matrix(0.7072 -0.707 0.707 0.7072 -10.3552 24.9955)" class="st4" width="64.8" height="5.9"/>
		
			<rect x="22" y="-7.4" transform="matrix(0.7071 -0.7071 0.7071 0.7071 -10.3552 24.9994)" class="st4" width="5.9" height="64.8"/>
	</g>
</g>
<g id="zoom_x2B_" class="st0">
	<g class="st2">
		<path class="st7" d="M47.6,50c-0.6,0-1.2-0.2-1.7-0.7L33.7,37.1c-0.9-0.9-0.9-2.5,0-3.4c0.9-1,2.5-1,3.4,0l12.1,12.1
			c0.9,0.9,0.9,2.5,0,3.4C48.8,49.8,48.2,50,47.6,50z"/>
		<g>
			<path class="st7" d="M20.9,2.8c4.8,0,9.4,1.9,12.8,5.3c7,7,7,18.5,0,25.6c-3.4,3.4-8,5.3-12.8,5.3c-4.8,0-9.4-1.9-12.8-5.3
				c-3.4-3.4-5.3-8-5.3-12.8c0-4.8,1.9-9.4,5.3-12.8C11.5,4.7,16,2.8,20.9,2.8 M20.9,0c-5.3,0-10.7,2-14.7,6.1
				C-2,14.3-2,27.5,6.1,35.6c4.1,4.1,9.4,6.1,14.7,6.1s10.7-2,14.7-6.1c8.1-8.1,8.1-21.3,0-29.5C31.5,2.1,26.2,0,20.9,0L20.9,0z"/>
			<path d="M30.6,22.2h-8.4v8.4c0,0.7-0.6,1.3-1.3,1.3c-0.7,0-1.3-0.6-1.3-1.3v-8.4h-8.4c-0.7,0-1.3-0.6-1.3-1.3s0.6-1.3,1.3-1.3
				h8.4v-8.4c0-0.7,0.6-1.3,1.3-1.3c0.7,0,1.3,0.6,1.3,1.3v8.4h8.4c0.7,0,1.3,0.6,1.3,1.3S31.3,22.2,30.6,22.2z"/>
		</g>
	</g>
</g>
<g id="レイヤー_10" class="st0">
	<g class="st2">
		<g>
			<polyline class="st4" points="1.5,18.4 1.5,1.5 18.4,1.5 			"/>
			<polygon class="st7" points="3,18.4 0,18.4 0,0 18.4,0 18.4,3 3,3 			"/>
		</g>
		<rect x="9.6" y="-3.1" transform="matrix(0.7071 -0.7071 0.7071 0.7071 -4.6054 11.1178)" class="st7" width="3" height="28.4"/>
	</g>
	<g class="st2">
		<g>
			<polyline class="st4" points="48.5,31.6 48.5,48.5 31.6,48.5 			"/>
			<polygon class="st7" points="50,50 31.6,50 31.6,47 47,47 47,31.6 50,31.6 			"/>
		</g>
		
			<rect x="37.4" y="24.7" transform="matrix(0.7071 -0.7071 0.7071 0.7071 -16.1054 38.8818)" class="st7" width="3" height="28.4"/>
	</g>
</g>
<g id="レイヤー_11" class="st0">
	<g class="st2">
		<g>
			<polyline class="st4" points="20.7,3.8 20.7,20.7 3.8,20.7 			"/>
			<polygon class="st7" points="19.2,3.8 22.2,3.8 22.2,22.2 3.8,22.2 3.8,19.2 19.2,19.2 			"/>
		</g>
		<rect x="9.6" y="-3.1" transform="matrix(0.7071 -0.7071 0.7071 0.7071 -4.6054 11.1178)" class="st7" width="3" height="28.4"/>
	</g>
	<g class="st2">
		<g>
			<polyline class="st4" points="29.3,46.2 29.3,29.3 46.2,29.3 			"/>
			<polygon class="st7" points="27.8,27.8 46.2,27.8 46.2,30.8 30.8,30.8 30.8,46.2 27.8,46.2 			"/>
		</g>
		
			<rect x="37.4" y="24.7" transform="matrix(0.7071 -0.7071 0.7071 0.7071 -16.1054 38.8818)" class="st7" width="3" height="28.4"/>
	</g>
</g>
<g id="zoom-" class="st0">
	<g class="st2">
		<path class="st7" d="M47.6,50c-0.6,0-1.2-0.2-1.7-0.7L33.7,37.1c-0.9-0.9-0.9-2.5,0-3.4c0.9-1,2.5-1,3.4,0l12.1,12.1
			c0.9,0.9,0.9,2.5,0,3.4C48.8,49.8,48.2,50,47.6,50z"/>
		<g>
			<path class="st7" d="M20.9,2.8c4.8,0,9.4,1.9,12.8,5.3c7,7,7,18.5,0,25.6c-3.4,3.4-8,5.3-12.8,5.3c-4.8,0-9.4-1.9-12.8-5.3
				c-3.4-3.4-5.3-8-5.3-12.8c0-4.8,1.9-9.4,5.3-12.8C11.5,4.7,16,2.8,20.9,2.8 M20.9,0c-5.3,0-10.7,2-14.7,6.1
				C-2,14.3-2,27.5,6.1,35.6c4.1,4.1,9.4,6.1,14.7,6.1s10.7-2,14.7-6.1c8.1-8.1,8.1-21.3,0-29.5C31.5,2.1,26.2,0,20.9,0L20.9,0z"/>
			<path d="M19.6,22.2h-8.4c-0.7,0-1.3-0.6-1.3-1.3s0.6-1.3,1.3-1.3h8.4h2.6h8.4c0.7,0,1.3,0.6,1.3,1.3s-0.6,1.3-1.3,1.3h-8.4H19.6z
				"/>
		</g>
	</g>
</g>
<g id="other_x5F_window">
	<g>
		<path class="st4" d="M38.6,9.4v23.4H3.4V9.4H38.6 M42,6H0v30.2h42V6L42,6z"/>
		<g>
			<polygon class="st4" points="45,13.8 45,17.2 46.6,17.2 46.6,40.6 11.4,40.6 11.4,39.2 8,39.2 8,44 50,44 50,13.8 			"/>
		</g>
	</g>
</g>
</svg>
