<?xml version="1.0" encoding="utf-8"?>
<!-- Generator: Adobe Illustrator 21.1.0, SVG Export Plug-In . SVG Version: 6.00 Build 0)  -->
<svg version="1.1" id="_x32_" xmlns="http://www.w3.org/2000/svg" xmlns:xlink="http://www.w3.org/1999/xlink" x="0px" y="0px"
	 viewBox="0 0 29 29" style="enable-background:new 0 0 29 29;" xml:space="preserve">
<style type="text/css">
	.st0{fill:none;stroke:#FFFFFF;stroke-miterlimit:10;}
</style>
<g>
	<circle class="st0" cx="14.5" cy="14.5" r="14"/>
	<g>
		<path class="st0" d="M13,14h1.3V9.8c0-0.6-0.5-1.2-1.1-1.2h-2.9c-0.6,0-1.1,0.5-1.1,1.2V14h1.6c0.6,0,1.1,0.5,1.1,1.2v0.5h0v-0.5
			C12,14.5,12.4,14,13,14z"/>
		<path class="st0" d="M18.1,14h1.3V9.8c0-0.6-0.5-1.2-1.1-1.2h-2.9c-0.6,0-1.1,0.5-1.1,1.2V14H16c0.6,0,1.1,0.5,1.1,1.2v0.5h0v-0.5
			C17.1,14.5,17.5,14,18.1,14z"/>
		<path class="st0" d="M10.9,14H9.3H7.9c-0.6,0-1.1,0.5-1.1,1.2v4c0,0.6,0.5,1.2,1.1,1.2h2.9c0.6,0,1.1-0.5,1.1-1.2v-3.6v-0.5
			C11.9,14.5,11.5,14,10.9,14z"/>
		<path class="st0" d="M16,14h-1.6h0H13c-0.6,0-1.1,0.5-1.1,1.2v0.5v3.6c0,0.6,0.5,1.2,1.1,1.2H16c0.6,0,1.1-0.5,1.1-1.2v-3.6v-0.5
			C17,14.5,16.6,14,16,14z"/>
		<path class="st0" d="M21.1,14h-1.6h-1.3c-0.6,0-1.1,0.5-1.1,1.2v0.5v3.6c0,0.6,0.5,1.2,1.1,1.2h2.9c0.6,0,1.1-0.5,1.1-1.2v-4
			C22.1,14.5,21.7,14,21.1,14z"/>
	</g>
</g>
</svg>
