<?xml version="1.0" encoding="utf-8"?>
<!-- Generator: Adobe Illustrator 14.0.0, SVG Export Plug-In . SVG Version: 6.00 Build 43363)  -->
<!DOCTYPE svg PUBLIC "-//W3C//DTD SVG 1.1//EN" "http://www.w3.org/Graphics/SVG/1.1/DTD/svg11.dtd">
<svg version="1.1" id="レイヤー_1" xmlns="http://www.w3.org/2000/svg" xmlns:xlink="http://www.w3.org/1999/xlink" x="0px"
	 y="0px" width="424.518px" height="207.427px" viewBox="0 0 424.518 207.427" enable-background="new 0 0 424.518 207.427"
	 xml:space="preserve">
<g>
	<g>
		<path fill="#929292" d="M106.666,207.427H11.943C5.375,207.427,0,202.053,0,195.483V22.064c0-6.569,5.375-11.944,11.943-11.944
			h94.723c6.569,0,11.943,5.375,11.943,11.944v173.419C118.609,202.053,113.235,207.427,106.666,207.427z"/>
	</g>
	<g>
		<rect x="8.76" y="37.073" fill="#FFFFFF" width="101.09" height="143.403"/>
	</g>
	<path fill="#FFFFFF" d="M61.068,201.478h-3.527c-3.558,0-6.469-2.91-6.469-6.469v-3.527c0-3.558,2.911-6.469,6.469-6.469h3.527
		c3.558,0,6.469,2.911,6.469,6.469v3.527C67.537,198.567,64.626,201.478,61.068,201.478z"/>
	<circle fill="#FFFFFF" cx="59.305" cy="24.74" r="2.802"/>
	<g>
		<g>
			<path fill="#20AFD4" d="M93.53,59.831h42.474c3.66,0,6.655-2.995,6.655-6.655V10.702c0-3.66-2.995-6.655-6.655-6.655H93.53
				c-3.66,0-6.655,2.995-6.655,6.655v42.474C86.875,56.835,89.87,59.831,93.53,59.831z"/>
			<path fill="#FFFFFF" d="M136.004,4.047c3.66,0,6.655,2.995,6.655,6.655v42.474c0,3.66-2.995,6.655-6.655,6.655H93.53
				c-3.66,0-6.655-2.995-6.655-6.655V10.702c0-3.66,2.995-6.655,6.655-6.655H136.004 M136.004,0H93.53
				c-5.901,0-10.702,4.801-10.702,10.702v42.474c0,5.901,4.801,10.702,10.702,10.702h42.474c5.901,0,10.702-4.801,10.702-10.702
				V10.702C146.706,4.801,141.905,0,136.004,0L136.004,0z"/>
		</g>
		<g>
			<path fill="#FFFFFF" d="M116.299,43.826h-3.021V33.384h-10.441V30.45h10.441V20.052h3.021V30.45h10.398v2.934h-10.398V43.826z"/>
		</g>
	</g>
</g>
<g>
	<g>
		<path fill="#929292" d="M407.851,180.641H211.996c-2.75,0-5-2.25-5-5V59.74c0-2.75,2.25-5,5-5h195.854c2.75,0,5,2.25,5,5v115.9
			C412.851,178.391,410.601,180.641,407.851,180.641z"/>
	</g>
	<g>
		<rect x="215.996" y="62.795" fill="#FFFFFF" width="187.854" height="109.791"/>
	</g>
	<g>
		<path fill="#929292" d="M414.518,202.808H201.851c-5.522,0-10-4.478-10-10v-6.679h232.667v6.679
			C424.518,198.33,420.04,202.808,414.518,202.808z"/>
	</g>
	<rect x="215.996" y="62.826" fill="#ECECEB" width="187.854" height="20"/>
	<path fill="#FFFFFF" d="M388.383,77.191H231.464c-0.862,0-1.561-0.699-1.561-1.56v-6.88c0-0.861,0.698-1.56,1.561-1.56h156.919
		c0.861,0,1.561,0.699,1.561,1.56v6.88C389.943,76.493,389.244,77.191,388.383,77.191z"/>
	<path fill="#9D9D9D" d="M245.15,77.191h-13.687c-0.862,0-1.561-0.699-1.561-1.56v-6.88c0-0.861,0.698-1.56,1.561-1.56h13.687
		V77.191z"/>
	<g>
		<path fill="#20AFD4" d="M408.394,33.253c0-15.396-12.48-27.876-27.876-27.876s-27.877,12.48-27.877,27.876
			c0,13.505,9.605,24.762,22.355,27.325l5.521,9.63l5.521-9.63C398.789,58.016,408.394,46.759,408.394,33.253z"/>
		<path fill="#FFFFFF" d="M380.518,5.377c15.396,0,27.876,12.48,27.876,27.876c0,13.505-9.604,24.762-22.355,27.325l-5.521,9.63
			l-5.521-9.63c-12.75-2.563-22.355-13.819-22.355-27.325C352.641,17.858,365.122,5.377,380.518,5.377 M380.518,1.331
			c-17.603,0-31.924,14.32-31.924,31.923c0,14.518,9.888,27.208,23.768,30.866l4.646,8.102c0.721,1.258,2.061,2.034,3.511,2.034l0,0
			c1.45,0,2.79-0.776,3.511-2.034l4.645-8.102c13.881-3.658,23.768-16.348,23.768-30.866C412.44,15.651,398.12,1.331,380.518,1.331
			L380.518,1.331z"/>
	</g>
	<text transform="matrix(1 0 0 1 365.5313 44.0762)" fill="#FFFFFF" font-family="'HiraKakuPro-W3-90ms-RKSJ-H'" font-size="30">★</text>
</g>
</svg>
