<?xml version="1.0" encoding="utf-8"?>
<!-- Generator: Adobe Illustrator 20.0.0, SVG Export Plug-In . SVG Version: 6.00 Build 0)  -->
<svg version="1.1" id="レイヤー_1" xmlns="http://www.w3.org/2000/svg" xmlns:xlink="http://www.w3.org/1999/xlink" x="0px"
	 y="0px" viewBox="0 0 314 184" style="enable-background:new 0 0 314 184;" xml:space="preserve">
<style type="text/css">
	.st0{fill:#FFFFFF;}
	.st1{fill:#B5B5B6;}
	.st2{fill:#040000;}
	.st3{fill:#BAD5E8;}
	.st4{fill:#ECE4D0;}
	.st5{fill:#231815;}
	.st6{fill:#E7211A;}
	.st7{display:none;}
	.st8{display:inline;}
	.st9{fill:#9BC1A4;}
	.st10{fill:#D6D6D6;}
	.st11{display:inline;fill:#DCDBDB;}
</style>
<g>
	<g>
		<g>
			<path class="st0" d="M10.1,183.2c-5.2,0-9.5-4.3-9.5-9.5V10c0-5.2,4.3-9.5,9.5-9.5H304c5.2,0,9.5,4.3,9.5,9.5v163.7
				c0,5.2-4.3,9.5-9.5,9.5H10.1z"/>
			<path class="st1" d="M304,1c5,0,9,4,9,9v163.7c0,5-4,9-9,9H10.1c-5,0-9-4-9-9V10c0-5,4-9,9-9H304 M304,0H10.1
				c-5.5,0-10,4.5-10,10v163.7c0,5.5,4.5,10,10,10H304c5.5,0,10-4.5,10-10V10C314,4.5,309.5,0,304,0L304,0z"/>
		</g>
	</g>
	<rect x="1.1" y="19.6" class="st2" width="311.8" height="21"/>
	<g>
		<g>
			<rect x="26.7" y="60.9" class="st3" width="260.5" height="2"/>
			<rect x="26.7" y="62.9" class="st4" width="260.5" height="2"/>
			<rect x="26.7" y="64.9" class="st3" width="260.5" height="2"/>
			<rect x="26.7" y="66.9" class="st4" width="260.5" height="2"/>
			<rect x="26.7" y="68.9" class="st3" width="260.5" height="2"/>
			<rect x="26.7" y="70.9" class="st4" width="260.5" height="2"/>
			<rect x="26.7" y="72.9" class="st3" width="260.5" height="2"/>
			<rect x="26.7" y="74.9" class="st4" width="260.5" height="2"/>
			<rect x="26.7" y="76.9" class="st3" width="260.5" height="2"/>
			<rect x="26.7" y="78.9" class="st4" width="260.5" height="2"/>
			<rect x="26.7" y="80.9" class="st3" width="260.5" height="2"/>
			<rect x="26.7" y="82.9" class="st4" width="260.5" height="2"/>
			<rect x="26.7" y="84.9" class="st3" width="260.5" height="2"/>
			<rect x="26.7" y="86.9" class="st4" width="260.5" height="2"/>
			<rect x="26.7" y="88.9" class="st3" width="260.5" height="2"/>
			<rect x="26.7" y="90.9" class="st4" width="260.5" height="2"/>
			<rect x="26.7" y="92.9" class="st3" width="260.5" height="2"/>
			<rect x="26.7" y="94.9" class="st4" width="260.5" height="2"/>
		</g>
		<g>
			<g>
				<path class="st5" d="M226.2,74.1h1.7l-0.2,1.1h-4.8l0.2-1.1h1.7l1.3-6.6c-0.5,0.3-1.1,0.6-1.8,0.8l0-1.3
					c0.8-0.2,1.5-0.6,2.2-1.1h1.2L226.2,74.1z"/>
				<path class="st5" d="M230.9,68.5c0.3-1.6,1.4-2.5,2.9-2.5c1.6,0,2.6,0.9,2.6,2.2c0,1.5-0.5,2.1-2.4,3.4c-1.5,1-2.3,1.7-2.8,2.5
					h4.2l-0.3,1.1h-5.6l0.2-1.1c0.8-1.4,1.7-2.4,3.2-3.4c1.6-1.1,1.9-1.6,1.9-2.6c0-0.7-0.4-1.2-1.1-1.2c-0.8,0-1.4,0.5-1.5,1.7
					L230.9,68.5z"/>
				<path class="st5" d="M238.2,67.9c0.4-1.3,1.4-2,2.8-2c1.6,0,2.6,0.9,2.6,2.2c0,1.3-0.8,2.1-2.2,2.2l0,0.1c1,0.3,1.6,1,1.6,2
					c0,1.8-1.2,3-3.2,3c-1.6,0-2.5-0.6-2.7-2l1.4-0.4c0.1,0.9,0.6,1.4,1.3,1.4c1.1,0,1.7-0.7,1.7-1.9c0-0.9-0.5-1.4-1.6-1.4h-0.7
					l0.3-1.2h0.6c1.4,0,2-0.6,2-1.7c0-0.7-0.5-1.1-1.2-1.1c-0.7,0-1.3,0.4-1.4,1.3L238.2,67.9z"/>
				<path class="st5" d="M249.3,72.1h1.1l-0.2,1.1h-1.1l-0.4,2.1h-1.3l0.4-2.1h-3.4l0.2-1l4-6.1h1.9L249.3,72.1z M248.4,70
					c0.2-1,0.4-1.9,0.6-2.9h-0.2c-0.4,0.8-0.9,1.7-1.4,2.5l-1.6,2.4h2.2L248.4,70z"/>
				<path class="st5" d="M265.8,67.2h-3.4L262,69c-0.1,0.3-0.2,0.6-0.3,0.8c0.5-0.4,0.9-0.6,1.5-0.6c1.2,0,2.1,0.9,2.1,2.4
					c0,2.3-1.4,3.7-3.3,3.7c-1.5,0-2.3-0.6-2.5-1.9l1.4-0.5c0.1,0.9,0.5,1.3,1.1,1.3c1,0,1.8-1,1.8-2.6c0-0.9-0.4-1.3-1.1-1.3
					c-0.6,0-1.2,0.4-1.4,1.1l-1.2-0.2l1.4-5.1h4.5L265.8,67.2z"/>
				<path class="st5" d="M272.1,68.1c-0.1-0.7-0.5-1-1-1c-0.6,0-1,0.3-1.4,0.8c-0.5,0.6-0.7,1.4-0.9,2.5c0.5-0.6,1.1-1,1.8-1
					c1.2,0,2.2,0.9,2.2,2.4c0,1.2-0.3,2.1-0.9,2.8c-0.5,0.6-1.2,0.9-2.2,0.9c-1.6,0-2.6-1-2.6-2.9c0-2.1,0.5-3.8,1.2-5
					c0.6-1,1.6-1.5,2.8-1.5s2,0.5,2.4,1.6L272.1,68.1z M268.5,72.5c0,1.3,0.5,1.8,1.2,1.8c0.5,0,0.9-0.2,1.2-0.7
					c0.3-0.5,0.4-1,0.4-1.9c0-0.8-0.5-1.3-1.1-1.3c-0.6,0-1.2,0.4-1.6,1C268.5,71.8,268.5,72.2,268.5,72.5z"/>
				<path class="st5" d="M280.7,67.1c-2.2,2.5-3.4,4.8-4,8.1H275c0.6-3.3,2-5.6,4.1-8h-4l0.3-1.2h5.4L280.7,67.1z"/>
			</g>
		</g>
		<g>
			<path class="st6" d="M283.5,63.4v14.3H256V63.4H283.5 M285.5,61.4H254v18.3h31.5V61.4L285.5,61.4z"/>
		</g>
	</g>
</g>
<g class="st7">
	<g class="st8">
		<g>
			<path class="st0" d="M10.1,183.2c-5.2,0-9.5-4.3-9.5-9.5V10c0-5.2,4.3-9.5,9.5-9.5H304c5.2,0,9.5,4.3,9.5,9.5v163.7
				c0,5.2-4.3,9.5-9.5,9.5H10.1z"/>
			<path class="st1" d="M304,1c5,0,9,4,9,9v163.7c0,5-4,9-9,9H10.1c-5,0-9-4-9-9V10c0-5,4-9,9-9H304 M304,0H10.1
				c-5.5,0-10,4.5-10,10v163.7c0,5.5,4.5,10,10,10H304c5.5,0,10-4.5,10-10V10C314,4.5,309.5,0,304,0L304,0z"/>
		</g>
	</g>
	<g class="st8">
		<g>
			<path class="st9" d="M299.4,177.3H14.6c-4.4,0-8-3.6-8-8V14.4c0-4.4,3.6-8,8-8h284.8c4.4,0,8,3.6,8,8v154.8
				C307.4,173.7,303.9,177.3,299.4,177.3z"/>
		</g>
	</g>
	<g class="st8">
		<g>
			<path class="st5" d="M273.8,112.9h1.6v0.8h-4.3v-0.8h1.7v-6.9c-0.5,0.3-1.1,0.6-1.7,0.9l-0.2-0.9c0.7-0.2,1.4-0.6,2-1h0.8V112.9z
				"/>
			<path class="st5" d="M277.7,107.1c0.3-1.5,1.3-2.3,2.6-2.3c1.4,0,2.4,0.8,2.4,2.3c0,1-0.4,1.7-1.8,3c-1.3,1.1-1.9,1.9-2.3,2.8
				h4.1v0.8h-5.1v-0.7c0.5-1.2,1.3-2.2,2.6-3.4c1.2-1.2,1.5-1.7,1.5-2.4c0-0.9-0.6-1.4-1.4-1.4c-0.9,0-1.5,0.6-1.6,1.7L277.7,107.1z
				"/>
			<path class="st5" d="M284.8,106.6c0.4-1.1,1.3-1.8,2.5-1.8c1.4,0,2.4,0.9,2.4,2.1c0,1.1-0.6,1.8-1.7,2v0.1
				c1.2,0.2,1.8,1.1,1.8,2.2c0,1.5-1.1,2.5-2.6,2.5c-1.3,0-2.2-0.5-2.7-1.7l1-0.4c0.3,0.9,0.9,1.3,1.7,1.3c1,0,1.6-0.7,1.6-1.7
				c0-1.1-0.6-1.8-2-1.8h-0.7v-0.9h0.6c1.2,0,1.9-0.6,1.9-1.6c0-0.9-0.6-1.4-1.4-1.4c-0.7,0-1.3,0.4-1.5,1.3L284.8,106.6z"/>
			<path class="st5" d="M296.1,110.8h1.2v0.8h-1.2v2h-0.9v-2h-3.5v-0.7l3-6h1.4V110.8z M295.2,107.8c0-0.7,0-1.3,0-2.1h-0.2
				c-0.3,0.7-0.5,1.3-0.8,1.9l-1.6,3.3h2.6V107.8z"/>
		</g>
	</g>
	<g class="st8">
		<g>
			<path class="st10" d="M45.2,134.8h2.3v1.6h-6.6v-1.6h2.4V126c-0.6,0.4-1.4,0.8-2.3,1.1l-0.3-1.7c1.1-0.3,2-0.8,2.8-1.4h1.6V134.8
				z"/>
			<path class="st10" d="M53.6,127.3c0.3-2.2,1.8-3.4,3.8-3.4c2.2,0,3.7,1.2,3.7,3.3c0,1.4-0.6,2.4-2.5,4.1c-1.7,1.5-2.5,2.4-3,3.4
				h5.5v1.6h-7.6v-1.4c0.7-1.5,1.7-2.8,3.5-4.5c1.6-1.5,2-2.2,2-3.2c0-1.1-0.6-1.7-1.6-1.7c-1,0-1.6,0.8-1.7,2.2L53.6,127.3z"/>
			<path class="st10" d="M66.9,126.5c0.5-1.7,1.8-2.6,3.7-2.6c2.2,0,3.7,1.3,3.7,3.1c0,1.4-0.9,2.5-2.3,2.8v0.1
				c1.6,0.4,2.6,1.5,2.6,3.1c0,2.2-1.6,3.6-3.9,3.6c-2,0-3.3-0.8-3.9-2.7l2-0.6c0.3,1.2,0.8,1.7,1.9,1.7c1.2,0,1.9-0.8,1.9-2.1
				c0-1.4-0.7-2.2-2.4-2.2h-0.9v-1.6H70c1.6,0,2.2-0.7,2.2-1.9c0-1.1-0.7-1.7-1.7-1.7c-0.8,0-1.5,0.5-1.7,1.7L66.9,126.5z"/>
			<path class="st10" d="M86.5,132H88v1.5h-1.5v2.8h-1.8v-2.8H80v-1.4l4-8.1h2.5V132z M84.6,129.3c0-1.3,0-2.5,0.1-3.7h-0.2
				c-0.4,1.1-0.9,2.1-1.4,3.2l-1.5,3.2h3V129.3z"/>
			<path class="st10" d="M100.6,125.7h-4.8l-0.1,2.5c0,0.4,0,0.8-0.1,1.2c0.4-0.6,1.2-1.1,2.1-1.1c2,0,3.4,1.6,3.4,4
				c0,2.6-1.6,4.3-3.9,4.3c-1.9,0-3.3-0.9-3.7-2.7l2-0.6c0.2,1.2,0.8,1.7,1.7,1.7c1.2,0,1.9-1,1.9-2.7c0-1.6-0.7-2.5-1.8-2.5
				c-0.8,0-1.5,0.5-1.7,1.4l-1.7-0.2l0.2-6.9h6.5V125.7z"/>
		</g>
	</g>
	<g class="st8">
		<g>
			<path class="st10" d="M212,126.6c-0.2-0.9-0.7-1.2-1.3-1.2c-1.5,0-2.1,1.5-2.2,4.3c0.6-1,1.5-1.4,2.5-1.4c1.9,0,3.2,1.5,3.2,4
				c0,2.6-1.5,4.3-3.7,4.3c-2.4,0-3.9-1.7-3.9-5.9c0-4.8,1.6-6.8,4.2-6.8c1.6,0,2.6,0.7,3.2,2L212,126.6z M210.5,135
				c1.1,0,1.7-0.9,1.7-2.7c0-1.6-0.6-2.5-1.6-2.5c-0.8,0-1.5,0.5-2,1.6C208.6,134,209.3,135,210.5,135z"/>
			<path class="st10" d="M227.3,125.5c-2,3.3-3,6.5-3.3,10.8h-2.3c0.4-4.3,1.7-7.4,3.6-10.6h-5.5v-1.6h7.4V125.5z"/>
			<path class="st10" d="M240.9,133.1c0,2-1.6,3.4-3.9,3.4c-2.4,0-4-1.3-4-3.3c0-1.4,0.7-2.2,2.4-3c-1.5-0.8-2.1-1.8-2.1-3.1
				c0-1.8,1.5-3.2,3.7-3.2c2.2,0,3.7,1.3,3.7,3.1c0,1.3-0.7,2.2-2.1,2.8C240.3,130.6,240.9,131.6,240.9,133.1z M236.6,130.8
				c-1.1,0.6-1.7,1.3-1.7,2.3c0,1.2,0.8,2,2,2c1.3,0,2-0.7,2-1.9c0-1-0.5-1.5-1.9-2.2L236.6,130.8z M237.3,129.2
				c1.1-0.6,1.4-1.2,1.4-2.1c0-1-0.8-1.7-1.8-1.7c-1,0-1.8,0.6-1.8,1.7c0,0.8,0.4,1.4,1.7,2L237.3,129.2z"/>
			<path class="st10" d="M248.7,133.8c0.2,0.8,0.6,1.2,1.3,1.2c1.4,0,2.1-1.2,2.2-4.4c-0.5,1-1.4,1.5-2.5,1.5
				c-1.9,0-3.2-1.5-3.2-3.9c0-2.6,1.4-4.3,3.7-4.3c2.4,0,4,1.7,4,5.9c0,4.9-1.5,6.8-4.2,6.8c-1.7,0-2.7-0.7-3.2-2L248.7,133.8z
				 M250.2,125.4c-1.2,0-1.7,1-1.7,2.7c0,1.6,0.7,2.4,1.7,2.4c0.9,0,1.5-0.5,1.9-1.5C252.1,126.6,251.5,125.4,250.2,125.4z"/>
			<path class="st10" d="M267.5,130.2c0,4.5-1.4,6.4-3.9,6.4c-2.5,0-3.8-1.8-3.8-6.3c0-4.5,1.4-6.3,3.9-6.3S267.5,125.6,267.5,130.2
				z M261.9,130.2c0,3.6,0.5,4.8,1.8,4.8c1.3,0,1.8-1.2,1.8-4.8c0-3.6-0.5-4.7-1.8-4.7C262.4,125.5,261.9,126.6,261.9,130.2z"/>
		</g>
	</g>
	<g class="st8">
		<g>
			<path class="st0" d="M92.6,28.2h-1.7l-0.8-2.7h-2.9l-0.8,2.7h-1.5l2.9-9.3h2L92.6,28.2z M89.3,22.4c-0.2-0.7-0.3-1.4-0.6-2.3
				h-0.1c-0.2,0.9-0.4,1.6-0.6,2.3l-0.5,1.9h2.3L89.3,22.4z"/>
			<path class="st0" d="M104.4,28.2h-1.5v-4.7c0-1.2,0-2.2,0-3.3h-0.2c-0.2,1.1-0.5,2-0.8,3.2l-1.3,4.8h-1.9l-1.2-4.8
				c-0.3-1.1-0.5-2.1-0.8-3.2h-0.2c0,1.1,0,2.2,0,3.3v4.7h-1.4v-9.3h2.6l1.2,4.7c0.2,1,0.5,2.1,0.7,3.1h0.2c0.3-1,0.4-2,0.7-3
				l1.2-4.8h2.6V28.2z"/>
			<path class="st0" d="M113.9,20.2h-4.5v2.5h3.4V24h-3.4v3h4.6v1.3h-6.2v-9.3h6.1V20.2z"/>
			<path class="st0" d="M120.1,18.9c2.3,0,3.3,0.9,3.3,2.5c0,1.2-0.6,2-1.8,2.4l2.1,4.4H122l-1.9-4.2c-0.1,0-0.3,0-0.4,0h-1.3v4.2
				h-1.6v-9.3H120.1z M118.4,22.9h1.6c1.3,0,1.8-0.5,1.8-1.4c0-0.8-0.5-1.3-1.8-1.3h-1.7V22.9z"/>
			<path class="st0" d="M128,28.2h-1.6v-9.3h1.6V28.2z"/>
			<path class="st0" d="M136.9,22c-0.2-1.3-0.9-2-2-2c-1.4,0-2.3,1.2-2.3,3.6c0,2.4,1,3.6,2.3,3.6c1.1,0,1.8-0.6,2.1-2l1.5,0.5
				c-0.5,1.9-1.7,2.8-3.6,2.8c-2.4,0-4-1.7-4-4.8c0-3.1,1.6-4.8,4-4.8c1.9,0,3.2,1.1,3.5,2.8L136.9,22z"/>
			<path class="st0" d="M148.1,28.2h-1.7l-0.8-2.7h-2.9l-0.8,2.7h-1.5l2.9-9.3h2L148.1,28.2z M144.8,22.4c-0.2-0.7-0.3-1.4-0.6-2.3
				h-0.1c-0.2,0.9-0.4,1.6-0.6,2.3l-0.5,1.9h2.3L144.8,22.4z"/>
			<path class="st0" d="M157.8,28.2h-2l-2.3-4.8c-0.5-1.2-0.9-2-1.3-3.1h-0.2c0.1,1.1,0.1,2.2,0.1,3.4v4.5h-1.5v-9.3h2.4l1.9,4.1
				c0.5,1.2,0.9,2.1,1.2,3.2h0.2c-0.1-1.1-0.1-2.2-0.1-3.4v-3.9h1.5V28.2z"/>
			<path class="st0" d="M172,20.2h-4.5v2.5h3.4V24h-3.4v3h4.6v1.3h-6.2v-9.3h6.1V20.2z"/>
			<path class="st0" d="M178.8,23.4l2.9,4.8h-1.9l-1.7-3c-0.1-0.2-0.2-0.4-0.3-0.6c-0.1,0.2-0.2,0.4-0.3,0.6l-1.7,3H174l2.9-4.8
				l-2.7-4.5h1.8l1.5,2.6c0.1,0.2,0.2,0.4,0.4,0.7c0.1-0.2,0.3-0.5,0.4-0.7l1.5-2.6h1.7L178.8,23.4z"/>
			<path class="st0" d="M187.5,18.9c2.3,0,3.3,0.9,3.3,2.7c0,1.7-1.2,2.7-3.4,2.7h-1.6v3.9h-1.6v-9.3H187.5z M185.9,23.1h1.5
				c1.2,0,1.8-0.6,1.8-1.5c0-0.9-0.5-1.5-1.8-1.5h-1.6V23.1z"/>
			<path class="st0" d="M197.1,18.9c2.3,0,3.3,0.9,3.3,2.5c0,1.2-0.6,2-1.8,2.4l2.1,4.4H199l-1.9-4.2c-0.1,0-0.3,0-0.4,0h-1.3v4.2
				h-1.6v-9.3H197.1z M195.4,22.9h1.6c1.3,0,1.8-0.5,1.8-1.4c0-0.8-0.5-1.3-1.8-1.3h-1.7V22.9z"/>
			<path class="st0" d="M209.5,20.2H205v2.5h3.4V24H205v3h4.6v1.3h-6.2v-9.3h6.1V20.2z"/>
			<path class="st0" d="M216.8,21.5c-0.2-1-0.8-1.5-1.7-1.5c-1,0-1.5,0.5-1.5,1.2c0,0.8,0.4,1.2,1.7,1.6l0.5,0.1
				c2.1,0.6,2.7,1.4,2.7,2.7c0,1.6-1.1,2.8-3.4,2.8c-1.8,0-3.1-0.8-3.5-2.4l1.5-0.5c0.2,1.1,0.9,1.7,1.9,1.7c1.2,0,1.8-0.5,1.8-1.3
				c0-0.8-0.3-1.2-1.8-1.6l-0.5-0.1c-2-0.6-2.6-1.4-2.6-2.8c0-1.4,1.1-2.5,3.1-2.5c1.6,0,2.8,0.8,3.3,2.3L216.8,21.5z"/>
			<path class="st0" d="M225.9,21.5c-0.2-1-0.8-1.5-1.7-1.5c-1,0-1.5,0.5-1.5,1.2c0,0.8,0.4,1.2,1.7,1.6l0.5,0.1
				c2.1,0.6,2.7,1.4,2.7,2.7c0,1.6-1.1,2.8-3.4,2.8c-1.8,0-3.1-0.8-3.5-2.4l1.5-0.5c0.2,1.1,0.9,1.7,1.9,1.7c1.2,0,1.8-0.5,1.8-1.3
				c0-0.8-0.3-1.2-1.8-1.6l-0.5-0.1c-2-0.6-2.6-1.4-2.6-2.8c0-1.4,1.1-2.5,3.1-2.5c1.6,0,2.8,0.8,3.3,2.3L225.9,21.5z"/>
		</g>
	</g>
	<g class="st8">
		<path class="st6" d="M301.7,101.6V116H266v-14.3H301.7 M303.7,99.6H264V118h39.6V99.6L303.7,99.6z"/>
	</g>
	<ellipse class="st11" cx="157" cy="91.8" rx="42.2" ry="51.2"/>
</g>
</svg>
