<?xml version="1.0" encoding="utf-8"?>
<!-- Generator: Adobe Illustrator 21.1.0, SVG Export Plug-In . SVG Version: 6.00 Build 0)  -->
<svg version="1.1" id="_x36_" xmlns="http://www.w3.org/2000/svg" xmlns:xlink="http://www.w3.org/1999/xlink" x="0px" y="0px"
	 viewBox="0 0 616.1 200.5" style="enable-background:new 0 0 616.1 200.5;" xml:space="preserve">
<style type="text/css">
	.st0{fill:#EEEEEF;}
	.st1{clip-path:url(#SVGID_3_);}
	.st2{clip-path:url(#SVGID_5_);}
	.st3{fill:none;stroke:#0081CC;stroke-miterlimit:3;}
	.st4{fill:none;stroke:#0081CC;stroke-miterlimit:10;}
	.st5{fill:#EEEEEF;stroke:#0081CC;stroke-miterlimit:10;}
	.st6{fill:none;stroke:#0081CC;stroke-miterlimit:2;}
	.st7{fill:#EEEEEF;stroke:#0081CC;stroke-miterlimit:3;}
	.st8{fill:#0081CC;}
	.st9{fill:#EEEEEF;stroke:#0081CC;stroke-linecap:square;stroke-miterlimit:3;}
	.st10{fill:none;stroke:#0081CC;stroke-linecap:square;stroke-miterlimit:3;}
	.st11{fill:none;stroke:#0081CC;stroke-linecap:square;stroke-miterlimit:10;}
</style>
<g>
	<rect id="SVGID_1_" class="st0" width="616.1" height="200.5"/>
</g>
<g>
	<defs>
		<rect id="SVGID_2_" width="616.1" height="200.5"/>
	</defs>
	<clipPath id="SVGID_3_">
		<use xlink:href="#SVGID_2_"  style="overflow:visible;"/>
	</clipPath>
	<g class="st1">
		<g>
			<defs>
				<rect id="SVGID_4_" width="616.1" height="200.5"/>
			</defs>
			<clipPath id="SVGID_5_">
				<use xlink:href="#SVGID_4_"  style="overflow:visible;"/>
			</clipPath>
			<g class="st2">
				<g>
					<g>
						<polyline class="st3" points="433.4,70.8 433.4,81.4 405.5,82.3 395.9,114.8 352.2,101.5 347.9,112.1 401.8,135.1 413,112.9 
							418.2,332 397.7,332 397.7,345.5 433.4,345.5 437.5,207.4 442.7,207.4 						"/>
						<rect x="425.8" y="29.3" class="st4" width="32.3" height="41.5"/>
						<rect x="425.8" y="18.5" class="st4" width="34.9" height="12.1"/>
						<line class="st3" x1="418.2" y1="332" x2="433.4" y2="332"/>
						<line class="st3" x1="466.4" y1="332" x2="451.2" y2="332"/>
						<line class="st3" x1="414.5" y1="180.4" x2="470.1" y2="180.4"/>
						<polyline class="st3" points="450.1,70.8 450.1,81.4 482.9,81.8 494.7,203.4 482.9,205 470.6,114.8 465.3,332 485.8,332 
							485.8,345.5 450.1,345.5 446.1,207.4 440.9,207.4 						"/>
						<line class="st3" x1="422.1" y1="56" x2="425.5" y2="56"/>
						<polygon class="st5" points="464.2,27.5 446.4,27.5 419.6,27.5 419.6,41.6 446.4,41.6 446.4,73.7 468.1,73.7 468.1,27.5 
													"/>
						<polyline class="st6" points="433.4,81.4 441.9,96 450.1,81.4 						"/>
						<path class="st3" d="M441.9,96c-3.7-0.4-18.1,0-18.1,0l9.6-14.6"/>
						<path class="st3" d="M442.7,96c3.7-0.4,18.1,0,18.1,0l-9.6-14.6"/>
						<polygon class="st5" points="467.6,240.1 415.9,240.1 414.5,180.4 468.9,180.4 						"/>
						<path class="st3" d="M481.8,196.6c0,0.1,12-2.1,12-2.1"/>
						<line class="st3" x1="364.7" y1="105.3" x2="360.3" y2="117.4"/>
					</g>
					<g>
						
							<rect x="336.4" y="110.2" transform="matrix(0.5952 -0.8036 0.8036 0.5952 47.3817 326.1298)" class="st7" width="21.9" height="11.7"/>
						<g>
							<line class="st3" x1="327.4" y1="142.1" x2="338" y2="128.1"/>
							<line class="st3" x1="334.2" y1="146.6" x2="342.8" y2="131.4"/>
							<line class="st3" x1="320.6" y1="137.8" x2="334" y2="124.8"/>
						</g>
					</g>
				</g>
				<g>
					<g>
						<polygon class="st3" points="306.1,160.5 294,143.4 321.8,133.2 334,150.4 						"/>
						<polygon class="st3" points="308.5,156.9 299.5,144.1 320,136.7 329,149.4 						"/>
						<g>
							<g>
								<g>
									<g>
										<polygon class="st8" points="314.4,146.2 313.9,145.5 314.7,145.2 315.3,145.9 										"/>
										<path class="st8" d="M314.4,146.4l-0.7-1l1.1-0.4l0.7,1L314.4,146.4z M314.1,145.5l0.4,0.5l0.6-0.2l-0.4-0.5L314.1,145.5z
											"/>
									</g>
									<g>
										<polygon class="st8" points="315.5,147.7 315,147 315.8,146.7 316.3,147.4 										"/>
										<path class="st8" d="M315.5,147.9l-0.7-1l1.1-0.4l0.7,1L315.5,147.9z M315.2,147l0.4,0.5l0.6-0.2l-0.4-0.5L315.2,147z"/>
									</g>
									<g>
										<polygon class="st8" points="314.1,147.3 313.6,146.5 314.4,146.2 315,147 										"/>
										<path class="st8" d="M314.1,147.4l-0.7-1l1.1-0.4l0.7,1L314.1,147.4z M313.8,146.6l0.4,0.5l0.6-0.2l-0.4-0.5L313.8,146.6z
											"/>
									</g>
									<g>
										<polygon class="st8" points="312.8,146.8 312.2,146.1 313.1,145.8 313.6,146.5 										"/>
										<path class="st8" d="M312.7,147l-0.7-1l1.1-0.4l0.7,1L312.7,147z M312.5,146.1l0.4,0.5l0.6-0.2l-0.4-0.5L312.5,146.1z"/>
									</g>
									<g>
										<polygon class="st8" points="313.8,148.3 313.3,147.6 314.1,147.3 314.7,148 										"/>
										<path class="st8" d="M313.8,148.5l-0.7-1l1.1-0.4l0.7,1L313.8,148.5z M313.5,147.6l0.4,0.5l0.6-0.2l-0.4-0.5L313.5,147.6z
											"/>
									</g>
								</g>
								<g>
									<g>
										<polygon class="st8" points="312.3,143.2 311.8,142.5 312.6,142.2 313.2,142.9 										"/>
										<path class="st8" d="M312.3,143.4l-0.7-1l1.1-0.4l0.7,1L312.3,143.4z M312,142.5l0.4,0.5l0.6-0.2l-0.4-0.5L312,142.5z"/>
									</g>
									<g>
										<polygon class="st8" points="313.4,144.7 312.8,144 313.7,143.7 314.2,144.4 										"/>
										<path class="st8" d="M313.3,144.9l-0.7-1l1.1-0.4l0.7,1L313.3,144.9z M313.1,144l0.4,0.5l0.6-0.2l-0.4-0.5L313.1,144z"/>
									</g>
									<g>
										<polygon class="st8" points="312,144.3 311.5,143.5 312.3,143.2 312.8,144 										"/>
										<path class="st8" d="M312,144.4l-0.7-1l1.1-0.4l0.7,1L312,144.4z M311.7,143.6l0.4,0.5l0.6-0.2l-0.4-0.5L311.7,143.6z"/>
									</g>
									<g>
										<polygon class="st8" points="310.7,143.8 310.1,143.1 311,142.8 311.5,143.5 										"/>
										<path class="st8" d="M310.6,144l-0.7-1l1.1-0.4l0.7,1L310.6,144z M310.3,143.1l0.4,0.5l0.6-0.2l-0.4-0.5L310.3,143.1z"/>
									</g>
									<g>
										<polygon class="st8" points="311.7,145.3 311.2,144.6 312,144.3 312.5,145 										"/>
										<path class="st8" d="M311.7,145.5l-0.7-1l1.1-0.4l0.7,1L311.7,145.5z M311.4,144.6l0.4,0.5l0.6-0.2l-0.4-0.5L311.4,144.6z
											"/>
									</g>
								</g>
								<g>
									<g>
										<polygon class="st8" points="316.6,149.2 316,148.5 316.9,148.2 317.4,148.9 										"/>
										<path class="st8" d="M316.5,149.4l-0.7-1l1.1-0.4l0.7,1L316.5,149.4z M316.2,148.5l0.4,0.5l0.6-0.2l-0.4-0.5L316.2,148.5z
											"/>
									</g>
									<g>
										<polygon class="st8" points="317.6,150.7 317.1,150 317.9,149.7 318.5,150.4 										"/>
										<path class="st8" d="M317.6,150.9l-0.7-1l1.1-0.4l0.7,1L317.6,150.9z M317.3,150l0.4,0.5l0.6-0.2l-0.4-0.5L317.3,150z"/>
									</g>
									<g>
										<polygon class="st8" points="316.3,150.3 315.7,149.5 316.6,149.2 317.1,150 										"/>
										<path class="st8" d="M316.2,150.4l-0.7-1l1.1-0.4l0.7,1L316.2,150.4z M315.9,149.6l0.4,0.5l0.6-0.2l-0.4-0.5L315.9,149.6z
											"/>
									</g>
									<g>
										<polygon class="st8" points="314.9,149.8 314.4,149.1 315.2,148.8 315.7,149.5 										"/>
										<path class="st8" d="M314.9,150l-0.7-1l1.1-0.4l0.7,1L314.9,150z M314.6,149.1l0.4,0.5l0.6-0.2l-0.4-0.5L314.6,149.1z"/>
									</g>
									<g>
										<polygon class="st8" points="316,151.3 315.4,150.6 316.3,150.3 316.8,151 										"/>
										<path class="st8" d="M315.9,151.5l-0.7-1l1.1-0.4l0.7,1L315.9,151.5z M315.6,150.6l0.4,0.5l0.6-0.2l-0.4-0.5L315.6,150.6z
											"/>
									</g>
								</g>
								<g>
									<g>
										<polygon class="st8" points="311.1,147.4 310.6,146.7 311.4,146.4 311.9,147.1 										"/>
										<path class="st8" d="M311.1,147.6l-0.7-1l1.1-0.4l0.7,1L311.1,147.6z M310.8,146.8l0.4,0.5l0.6-0.2l-0.4-0.5L310.8,146.8z
											"/>
									</g>
									<g>
										<polygon class="st8" points="312.2,148.9 311.6,148.2 312.5,147.9 313,148.6 										"/>
										<path class="st8" d="M312.1,149.1l-0.7-1l1.1-0.4l0.7,1L312.1,149.1z M311.9,148.2l0.4,0.5l0.6-0.2l-0.4-0.5L311.9,148.2z
											"/>
									</g>
									<g>
										<polygon class="st8" points="310.8,148.5 310.3,147.7 311.1,147.4 311.6,148.2 										"/>
										<path class="st8" d="M310.8,148.6l-0.7-1l1.1-0.4l0.7,1L310.8,148.6z M310.5,147.8l0.4,0.5l0.6-0.2l-0.4-0.5L310.5,147.8z
											"/>
									</g>
									<g>
										<polygon class="st8" points="309.4,148 308.9,147.3 309.7,147 310.3,147.7 										"/>
										<path class="st8" d="M309.4,148.2l-0.7-1l1.1-0.4l0.7,1L309.4,148.2z M309.1,147.4l0.4,0.5l0.6-0.2l-0.4-0.5L309.1,147.4z
											"/>
									</g>
									<g>
										<polygon class="st8" points="310.5,149.5 310,148.8 310.8,148.5 311.3,149.2 										"/>
										<path class="st8" d="M310.5,149.7l-0.7-1l1.1-0.4l0.7,1L310.5,149.7z M310.2,148.9l0.4,0.5l0.6-0.2l-0.4-0.5L310.2,148.9z
											"/>
									</g>
								</g>
								<g>
									<g>
										<polygon class="st8" points="317.8,145 317.2,144.3 318.1,144 318.6,144.7 										"/>
										<path class="st8" d="M317.7,145.2l-0.7-1l1.1-0.4l0.7,1L317.7,145.2z M317.5,144.3l0.4,0.5l0.6-0.2l-0.4-0.5L317.5,144.3z
											"/>
									</g>
									<g>
										<polygon class="st8" points="318.8,146.5 318.3,145.8 319.1,145.5 319.7,146.2 										"/>
										<path class="st8" d="M318.8,146.7l-0.7-1l1.1-0.4l0.7,1L318.8,146.7z M318.5,145.8l0.4,0.5l0.6-0.2l-0.4-0.5L318.5,145.8z
											"/>
									</g>
									<g>
										<polygon class="st8" points="317.5,146.1 316.9,145.3 317.8,145 318.3,145.8 										"/>
										<path class="st8" d="M317.4,146.2l-0.7-1l1.1-0.4l0.7,1L317.4,146.2z M317.2,145.4l0.4,0.5l0.6-0.2l-0.4-0.5L317.2,145.4z
											"/>
									</g>
									<g>
										<polygon class="st8" points="316.1,145.6 315.6,144.9 316.4,144.6 316.9,145.3 										"/>
										<path class="st8" d="M316.1,145.8l-0.7-1l1.1-0.4l0.7,1L316.1,145.8z M315.8,144.9l0.4,0.5l0.6-0.2l-0.4-0.5L315.8,144.9z
											"/>
									</g>
									<g>
										<polygon class="st8" points="317.2,147.1 316.6,146.4 317.5,146.1 318,146.8 										"/>
										<path class="st8" d="M317.1,147.3l-0.7-1l1.1-0.4l0.7,1L317.1,147.3z M316.8,146.4l0.4,0.5l0.6-0.2l-0.4-0.5L316.8,146.4z
											"/>
									</g>
								</g>
								<g>
									<g>
										<polygon class="st8" points="315.3,143.1 314.8,142.3 315.6,142 316.2,142.8 										"/>
										<path class="st8" d="M315.3,143.2l-0.7-1l1.1-0.4l0.7,1L315.3,143.2z M315,142.4l0.4,0.5l0.6-0.2l-0.4-0.5L315,142.4z"/>
									</g>
									<g>
										<path class="st8" d="M317,143l-1.9,0.7l-1.2-1.7l1.9-0.7L317,143 M317.5,143.2l-1.6-2.2l-2.5,0.9l1.6,2.2L317.5,143.2
											L317.5,143.2z"/>
										<path class="st8" d="M315,144.3l-1.8-2.5l2.8-1l1.8,2.5L315,144.3z M313.7,141.9l1.4,2l2.2-0.8l-1.4-2L313.7,141.9z
											 M315.1,143.9l-1.4-1.9l2.1-0.8l1.4,1.9L315.1,143.9z M314.2,142.1l1,1.5l1.6-0.6l-1-1.5L314.2,142.1z"/>
									</g>
								</g>
								<g>
									<g>
										<polygon class="st8" points="308.7,145.5 308.2,144.7 309,144.4 309.5,145.2 										"/>
										<path class="st8" d="M308.6,145.6l-0.7-1l1.1-0.4l0.7,1L308.6,145.6z M308.4,144.8l0.4,0.5l0.6-0.2l-0.4-0.5L308.4,144.8z
											"/>
									</g>
									<g>
										<path class="st8" d="M310.4,145.5l-1.9,0.7l-1.2-1.7l1.9-0.7L310.4,145.5 M310.9,145.6l-1.6-2.2l-2.5,0.9l1.6,2.2
											L310.9,145.6L310.9,145.6z"/>
										<path class="st8" d="M308.3,146.7l-1.8-2.5l2.8-1l1.8,2.5L308.3,146.7z M307,144.4l1.4,2l2.2-0.8l-1.4-2L307,144.4z
											 M308.5,146.3l-1.4-1.9l2.1-0.8l1.4,1.9L308.5,146.3z M307.5,144.5l1,1.5l1.6-0.6l-1-1.5L307.5,144.5z"/>
									</g>
								</g>
								<g>
									<path class="st8" d="M313.9,150.6l-0.8,0.3l-0.5-0.7l0.8-0.3L313.9,150.6 M314.6,150.8l-1-1.4L312,150l1,1.4L314.6,150.8
										L314.6,150.8z"/>
									<path class="st8" d="M312.9,151.6l-1.2-1.7l1.9-0.7l1.2,1.7L312.9,151.6z M312.2,150.1l0.8,1.2l1.3-0.5l-0.8-1.2
										L312.2,150.1z M313.1,151.1l-0.7-0.9l1-0.4l0.7,0.9L313.1,151.1z M312.9,150.3l0.3,0.5l0.5-0.2l-0.3-0.5L312.9,150.3z"/>
								</g>
								<g>
									<g>
										<polygon class="st8" points="319.6,149.1 319.1,148.3 319.9,148 320.4,148.8 										"/>
										<path class="st8" d="M319.6,149.2l-0.7-1l1.1-0.4l0.7,1L319.6,149.2z M319.3,148.4l0.4,0.5l0.6-0.2l-0.4-0.5L319.3,148.4z
											"/>
									</g>
									<g>
										<path class="st8" d="M321.3,149.1l-1.9,0.7l-1.2-1.7l1.9-0.7L321.3,149.1 M321.8,149.2l-1.6-2.2l-2.5,0.9l1.6,2.2
											L321.8,149.2L321.8,149.2z"/>
										<path class="st8" d="M319.3,150.3l-1.8-2.5l2.8-1l1.8,2.5L319.3,150.3z M317.9,148l1.4,2l2.2-0.8l-1.4-2L317.9,148z
											 M319.4,149.9L318,148l2.1-0.8l1.4,1.9L319.4,149.9z M318.4,148.1l1,1.5l1.6-0.6l-1-1.5L318.4,148.1z"/>
									</g>
								</g>
							</g>
						</g>
					</g>
					<g>
						<path class="st8" d="M298.1,115.9c3.5-1.3,5.2,0.1,6.2,3c1.2,3.4,0.3,5.2-3.1,6.4l-5.5,2l2,5.5l-2.2,0.8l-5.4-14.9
							L298.1,115.9z M293.1,120l1.9,5.3l5.4-2c1.5-0.6,2.5-1.2,1.6-3.6s-2-2.3-3.6-1.7L293.1,120z"/>
						<path class="st8" d="M308.9,114.2l0.4,2.3l-2.4,0.4l-0.4-2.3L308.9,114.2z M309.5,118.2l2.1,11.6l-2.2,0.4l-2.1-11.6
							L309.5,118.2z"/>
						<path class="st8" d="M318.1,112.3l0.7,11.7l-2,0.2l-1.3-11.7L318.1,112.3z M319.3,126l0.2,2.6l-2.6,0.2l-0.2-2.6L319.3,126z"
							/>
						<path class="st8" d="M323.9,110.8l-0.3,12.6h-2.1l-0.3-12.6H323.9z M323.8,125.6v2.8H321v-2.8H323.8z"/>
					</g>
					<g>
						<g>
							<polyline class="st9" points="195.9,70.8 195.9,81.3 164.8,81.3 145.3,135 107.9,158.5 112.9,166.6 154.9,146.2 175.4,106.2 
								177,179.8 							"/>
							<line class="st10" x1="195.9" y1="81.3" x2="212.5" y2="81.3"/>
							<path class="st9" d="M243.8,289.4"/>
							<polyline class="st9" points="211.9,70.8 211.9,81.3 236.1,81.3 267.4,128.7 301.5,144.7 298.3,154.5 258.5,142.2 
								232.4,106.2 230.7,180.4 							"/>
							<g>
								<rect x="187.7" y="29.2" class="st11" width="32.3" height="41.5"/>
								<line class="st10" x1="187.4" y1="40.9" x2="228.4" y2="40.9"/>
								<line class="st10" x1="220.7" y1="55.9" x2="224.2" y2="55.9"/>
								<path class="st10" d="M183.7,32.2"/>
							</g>
							<path class="st10" d="M177,23.7"/>
							<line class="st10" x1="177" y1="180.3" x2="230.7" y2="180.3"/>
							<line class="st11" x1="291.1" y1="139.8" x2="286.7" y2="150.9"/>
						</g>
						<line class="st3" x1="117.3" y1="152.5" x2="122.8" y2="161.7"/>
						<polygon class="st10" points="227.1,332 230.6,180.4 176.9,180.4 180.6,332 160.1,332 160.1,345.5 195.8,345.5 199.8,207.4 
							207.8,207.4 211.8,345.5 247.6,345.5 247.6,332 						"/>
						<line class="st10" x1="180.6" y1="331.1" x2="196.2" y2="331.1"/>
						<line class="st10" x1="227.1" y1="331.1" x2="211.5" y2="331.1"/>
					</g>
				</g>
			</g>
		</g>
	</g>
</g>
</svg>
