<?xml version="1.0" encoding="utf-8"?>
<!-- Generator: Adobe Illustrator 20.0.0, SVG Export Plug-In . SVG Version: 6.00 Build 0)  -->
<svg version="1.1" xmlns="http://www.w3.org/2000/svg" xmlns:xlink="http://www.w3.org/1999/xlink" x="0px" y="0px"
	 viewBox="0 0 50 50" style="enable-background:new 0 0 50 50;" xml:space="preserve">
<style type="text/css">
	.st0{display:none;}
	.st1{display:inline;fill:#FFFFFF;}
	.st2{display:inline;}
	.st3{fill:#3D3A39;}
	.st4{fill:#FFFFFF;}
</style>
<g id="PLUS" class="st0">
	<path class="st1" d="M25,0C11.2,0,0,11.2,0,25s11.2,25,25,25s25-11.2,25-25S38.8,0,25,0z M40.6,27.1H27.1v13.5
		c0,1.2-0.9,2.1-2.1,2.1s-2.1-0.9-2.1-2.1V27.1H9.4c-1.2,0-2.1-0.9-2.1-2.1s0.9-2.1,2.1-2.1h13.5V9.4c0-1.2,0.9-2.1,2.1-2.1
		s2.1,0.9,2.1,2.1v13.5h13.5c1.2,0,2.1,0.9,2.1,2.1S41.8,27.1,40.6,27.1z"/>
</g>
<g id="Back" class="st0">
	<g id="Back_1_" class="st2">
		<path class="st3" d="M25,50c13.8,0,25-11.2,25-25S38.8,0,25,0S0,11.2,0,25S11.2,50,25,50z M13.1,24.3l16.5-8.9
			c0.7-0.4,1.3-0.1,1.3,0.7v17.8c0,0.8-0.6,1.1-1.3,0.7l-16.5-8.9C12.4,25.3,12.4,24.7,13.1,24.3z"/>
	</g>
</g>
<g id="NEXT">
	<g id="Back_2_">
		<path class="st4" d="M25,0C11.2,0,0,11.2,0,25s11.2,25,25,25s25-11.2,25-25S38.8,0,25,0z M36.9,25.7l-16.5,8.9
			c-0.7,0.4-1.3,0.1-1.3-0.7V16.1c0-0.8,0.6-1.1,1.3-0.7l16.5,8.9C37.6,24.7,37.6,25.3,36.9,25.7z"/>
	</g>
</g>
</svg>
