<?xml version="1.0" encoding="utf-8"?>
<!-- Generator: Adobe Illustrator 20.1.0, SVG Export Plug-In . SVG Version: 6.00 Build 0)  -->
<svg version="1.1" id="レイヤー_1" xmlns="http://www.w3.org/2000/svg" xmlns:xlink="http://www.w3.org/1999/xlink" x="0px"
	 y="0px" viewBox="0 0 900 300" style="enable-background:new 0 0 900 300;" xml:space="preserve">
<style type="text/css">
	.st0{clip-path:url(#SVGID_2_);}
	.st1{fill:#CCCCCC;}
	.st2{fill:#8E8E8E;}
	.st3{fill:#2D2D2D;}
	.st4{fill:#C9C9C9;}
	.st5{fill:#262626;}
	.st6{fill:#3F3F3F;}
	.st7{fill:#111111;}
	.st8{fill:#595959;}
	.st9{fill:#999999;}
	.st10{fill:#191919;}
	.st11{fill:#B5B5B5;}
	.st12{fill:#E8E8E8;}
	.st13{fill:#565656;}
	.st14{fill:#FFFFFF;}
</style>
<g>
	<defs>
		<rect id="SVGID_1_" y="-0.1" width="900" height="300.2"/>
	</defs>
	<clipPath id="SVGID_2_">
		<use xlink:href="#SVGID_1_"  style="overflow:visible;"/>
	</clipPath>
	<g class="st0">
		<g>
			<g>
				<path class="st1" d="M260.1,164.4c-0.4,0-0.7-0.1-0.9-0.1c-0.2-0.1-0.4-0.3-0.3-0.5c0.1-0.2,0.3-0.4,0.5-0.3
					c1.9,0.4,10-0.6,14-1.2l0.1,0l0.1,0c9,1.2,31.9-3,32.1-3.1l0.1,0c14.1-0.3,29.3-2.7,30.1-2.8c4.7-1.5,21.5-2.4,22.8-2.5
					c4.3-1.3,22.7-2.6,23.4-2.7l0.1,0c2.3,0.1,5.6-0.3,8-0.6c1.9-0.2,2.8-0.3,3.1-0.2c0.5,0.1,4.5-0.1,8-0.3l0,0l0,0
					c13.9,2,27-2.1,27.2-2.1c2.6-0.9,11.6-1.8,12.6-1.9c5.9-3.1,9.5-7.4,10.5-12.6c0.7-3.7-0.2-6.5-0.3-6.9
					c-4.9-7.8-25.5-5.8-25.7-5.8l-0.1,0c-3.2,0-4.2-0.4-4.5-0.6c-1.9-0.8-6.2-1.6-6.6-1.7c-3.7-0.1-8.4-1-8.5-1l0,0
					c-9-2.8-15.6-3.4-16-3.4c-33.2-1-43.4-6.2-43.8-6.5c-11.3-5.8-17.5-5.5-17.6-5.5l0,0l0,0l-16.7-1.3l-36.3-3.8
					c-12.1-1.6-20.9,0.9-26.1,3.4c-5.6,2.6-8.5,5.7-8.5,5.7l0,0.1l-0.1,0c-5.1,2.9-12.9,1.2-13.2,1.2l-0.1,0l-0.1,0
					c-3.7-2.3-23.3-2.9-23.5-2.9c-0.1,0-0.2,0-0.2,0c-18.4-0.9-285.7-60.6-297.1-63.1c-0.2-0.1-0.4-0.3-0.3-0.5
					c0.1-0.2,0.3-0.4,0.5-0.3c2.8,0.6,278.6,62.2,297,63.1c0.1,0,0.2,0,0.2,0c0.8,0,19.8,0.6,23.9,3c0.8,0.2,7.9,1.5,12.4-1
					c0.4-0.4,3.2-3.3,8.7-5.9c5.3-2.5,14.2-5.1,26.6-3.5l36.2,3.8l16.7,1.3c0.5,0,6.7-0.1,18,5.6c0.1,0.1,10.5,5.3,43.4,6.4l0,0l0,0
					c0.1,0,6.9,0.6,16.1,3.5c0.4,0.1,4.8,0.9,8.4,1l0,0l0,0c0.2,0,4.8,0.9,6.8,1.8l0.1,0l0,0c0.1,0.1,0.9,0.4,4,0.4
					c1.2-0.1,21.5-2,26.6,6.3l0,0.1c0,0.1,1.1,3.3,0.4,7.4c-0.7,3.8-3.2,9.2-11,13.2l-0.1,0l-0.1,0c-0.1,0-9.9,1-12.5,1.8
					c-0.1,0-13.4,4.2-27.5,2.2c-1.3,0.1-7.5,0.5-8.2,0.3c-0.2,0-1.6,0.1-2.8,0.3c-2.4,0.3-5.7,0.7-8.1,0.6
					c-0.8,0.1-19.3,1.4-23.3,2.6l-0.1,0l-0.1,0c-0.2,0-18.1,1-22.7,2.5l-0.1,0c-0.2,0-15.8,2.5-30.2,2.8c-1.4,0.3-23.2,4.2-32.3,3.1
					C272.6,163.2,263.6,164.6,260.1,164.4z"/>
				<path class="st1" d="M233.2,260.3c-0.1,0-0.2,0-0.3-0.1c-16.4-13.7-31.8-33.8-31.9-34L201,226l0-0.2c0-0.5-0.3-0.5-0.4-0.5
					l-0.2,0l-12.6-13.6c-4.9-6-8.4-6-8.5-6l0,0l0,0c-3.8-0.6-7-1.7-7-1.7l-0.1,0c-4-1.9-171.2-4.2-259.1-5.2c-0.2,0-0.4-0.2-0.4-0.4
					c0-0.2,0.2-0.4,0.4-0.4c10.4,0.1,253.2,2.8,259.4,5.3c0.2,0.1,3.3,1.1,6.9,1.7c0.5,0,4.2,0.3,9.1,6.3l12.3,13.3
					c0.5,0.1,1,0.5,1.1,1.3c1.3,1.7,16,20.7,31.7,33.8c0.2,0.2,0.2,0.4,0.1,0.6C233.5,260.2,233.4,260.3,233.2,260.3z"/>
				<path class="st1" d="M293.4,313.1c-1.2-0.1-2.3-0.2-3.3-0.4l-0.1,0l-0.1,0c-3.6-1.8-9.4-4.4-10.6-4.5l-0.1,0l-0.1,0
					c-0.5-0.2-11.5-4.6-15.4-7.2c-0.7-0.3-12.1-5.8-20.8-19.1c-0.7-0.9-13.5-17.3-9.4-24.3c0.3-0.7,3.2-8.3,10.4-11.2
					c4.6-1.8,9.9-1.2,15.7,1.9c0.2,0.1,0.3,0.4,0.2,0.6c-0.1,0.2-0.4,0.3-0.6,0.2c-5.6-2.9-10.6-3.5-14.9-1.8
					c-7,2.7-9.8,10.6-9.9,10.7l0,0.1c-3.9,6.5,9.2,23.2,9.4,23.4l0,0c8.8,13.4,20.4,18.7,20.5,18.8l0.1,0c3.6,2.5,14.3,6.8,15.2,7.1
					c1.9,0.2,9.7,4,10.8,4.5c6.4,1,11.6-0.1,15.1-3.2c2.7-2.3,3.5-5,3.5-5.1c0.1-0.2,0.3-0.4,0.5-0.3c0.2,0.1,0.4,0.3,0.3,0.5
					c0,0.1-0.9,2.9-3.7,5.4C302.4,312.7,297.5,313.4,293.4,313.1z"/>
				<path class="st1" d="M331.1,312.9L331.1,312.9c-0.2,0-3.2-0.7-5.2-2.2c-1.4-0.5-20.4-7.7-23.4-9.9c-0.4-0.3-12.1-8-20-18.6
					c-0.4-0.4-5.6-5.7-8.7-11.6c0-0.1-3-5.6-6.9-9.1c-0.3-0.3-8.2-6.8-7.9-14.9c0-0.4,0.9-10.3,8.1-16.1c4.1-3.4,9.5-4.7,15.9-4
					c0,0,0,0,0,0c0.5,0,6.2,0.5,15.2,10.9c1.2,1,20.9,17.5,24.2,21.4c0.3,0.3,1.5,1.5,1.9,2.4l1.7,0.1c0.2,0,0.4,0.2,0.4,0.5
					c0,0.2-0.2,0.4-0.5,0.4l-2.4-0.1l0-0.4c0-0.5-1-1.6-1.7-2.2l0,0c-3.3-3.9-23.9-21.2-24.1-21.4l-0.1,0c-4.7-5.4-8.4-8-10.7-9.2
					c-2.5-1.3-3.9-1.4-3.9-1.4l0,0c-6.2-0.7-11.4,0.5-15.3,3.8c-6.9,5.6-7.7,15.4-7.7,15.5c-0.3,7.6,7.5,14.1,7.6,14.2
					c4.1,3.6,7,9.1,7.2,9.3c3.2,5.9,8.6,11.3,8.6,11.4l0,0c8,10.7,19.7,18.4,19.9,18.4l0,0c2.9,2.2,23,9.7,23.2,9.8l0.1,0l0,0
					c1.8,1.3,4.5,1.9,4.8,2c10,0.5,17.6-2.3,22.1-8c3.4-4.3,3.8-8.8,3.8-8.8c0-0.2,0.2-0.4,0.5-0.4c0.2,0,0.4,0.2,0.4,0.5
					c0,0.2-0.5,4.8-4,9.3C348.1,312.1,338.3,313.3,331.1,312.9z"/>
				<path class="st1" d="M408.5,270.5c-0.1,0-0.2-0.1-0.3-0.2c-1.5-1.9-3.4-6.5-3.5-6.7c-0.1-0.2,0-0.5,0.2-0.6
					c0.2-0.1,0.5,0,0.6,0.2c0,0,2,4.7,3.4,6.5c0.2,0.2,0.1,0.5-0.1,0.6C408.7,270.4,408.6,270.5,408.5,270.5z"/>
				<path class="st1" d="M427.2,292.8c-0.7,0-1.2-0.1-1.2-0.1c-5.4-1.3-9.4-5.4-9.8-5.7c-5.6-4.6-7.4-10.1-7.8-13.9
					c-0.5-4.1,0.3-7.2,0.4-7.3c0.1-0.2,0.3-0.4,0.5-0.3c0.2,0.1,0.4,0.3,0.3,0.5c0,0-0.8,3-0.3,7c0.4,3.6,2.1,8.9,7.5,13.3l0,0
					c0,0,4,4.2,9.4,5.5c0,0,2.3,0.5,5.6-0.5c5.6-1.6,10-6.1,12.6-9.5c0.2-0.3,6.3-9.4,4.4-17.3l-2.2-4.9c-0.1-0.2,0-0.5,0.2-0.6
					c0.2-0.1,0.5,0,0.6,0.2l2.2,5c0.6,2.4,0.8,6.5-1.5,12.2c-1.4,3.4-2.9,5.7-3,5.8l0,0c-2.7,3.6-7.2,8.2-13.1,9.9
					C429.9,292.7,428.3,292.8,427.2,292.8z"/>
				<path class="st1" d="M432.9,293.4c-1.3-0.1-2.1-0.3-2.2-0.3c-0.2-0.1-0.4-0.3-0.3-0.5c0.1-0.2,0.3-0.4,0.5-0.3l0,0
					c0.1,0,6.9,1.8,12.8-3.9c0.2-0.3,3.8-4.9,4.5-12.3c0-0.2,0.2-0.4,0.5-0.4c0.2,0,0.4,0.2,0.4,0.5c-0.7,8-4.6,12.6-4.7,12.8l0,0
					C440.2,293,435.6,293.5,432.9,293.4z"/>
				<path class="st2" d="M396.7,265.3C396.7,265.3,396.7,265.3,396.7,265.3c-0.1,0-5-1.1-7.8-0.6c-0.1,0-0.2-0.1-0.3-0.2
					c0-0.1,0.1-0.2,0.2-0.3c2.8-0.5,7.7,0.6,7.9,0.6c0.1,0,0.2,0.1,0.2,0.3C396.9,265.3,396.8,265.3,396.7,265.3z"/>
				<path class="st1" d="M371.5,302.4c-3.6-0.2-5.9-1.4-6-1.5c-10.7-5.7-22.8-17.1-23-17.2c-13.1-13.4-16.5-20.5-16.6-20.7l0-0.1
					l0-0.1c-1.6-8.8,2.3-14.5,5.8-17.6c3.8-3.4,7.9-4.7,8.1-4.8c6.9-2.4,14.8,0,20.3,2.4c5.6,2.5,9.8,5.4,10.3,5.8
					c6,2.5,21.2,17.9,21.8,18.5c0.2,0.2,0.2,0.5,0,0.6c-0.2,0.2-0.5,0.2-0.6,0c-0.2-0.2-15.8-16-21.5-18.3l-0.1,0l0,0
					c-0.2-0.1-17.2-12.5-29.9-8.1c-0.1,0-4.1,1.3-7.8,4.6c-4.9,4.4-6.7,10-5.5,16.8c1.2,2.5,6.1,9.9,16.4,20.4
					c0.1,0.1,12.2,11.5,22.8,17.1c0,0,3.8,2,9,1.2c0.1,0,12.2-1.6,19.6-4.9l0,0l0.1,0c0,0,2.9-0.6,6.1-3.2c3-2.4,6.8-7.1,8.5-15.9
					c0-0.2,0.3-0.4,0.5-0.4c0.2,0,0.4,0.3,0.4,0.5c-1.7,9.1-5.7,14-8.8,16.5c-3.2,2.6-6,3.2-6.4,3.3c-7.5,3.3-19.6,5-19.8,5
					C373.8,302.4,372.6,302.4,371.5,302.4z"/>
				<path class="st2" d="M528.7,252.8C528.7,252.8,528.7,252.8,528.7,252.8c-0.3,0-0.5-0.3-0.5-0.6l0.5-7.3c0-0.3,0.3-0.5,0.6-0.5
					c0,0,0,0,0,0c0.3,0,0.5,0.3,0.5,0.6l-0.5,7.3C529.3,252.6,529,252.9,528.7,252.8z"/>
				<path class="st2" d="M533.6,252.1C533.6,252.1,533.5,252.1,533.6,252.1c-0.3,0-0.6-0.3-0.5-0.6l0.7-7.2c0-0.3,0.3-0.5,0.6-0.5
					c0.3,0,0.5,0.3,0.5,0.6l-0.7,7.2C534.1,251.9,533.9,252.1,533.6,252.1z"/>
				<path class="st2" d="M399.2,263.8C399.1,263.8,399.1,263.8,399.2,263.8c-1.3-0.4-1.6-1.3-1.6-1.8c-0.1-1.9,3-2.2,3.1-2.3l31-2.5
					l0,0c0.1,0,0.6,0.1,0.9,0.5c0.1,0.2,0.1,0.4,0.1,0.6c0,0.2-0.2,0.3-0.4,0.2c-0.2,0-0.3-0.2-0.2-0.4c0,0,0-0.1,0-0.1
					c-0.1-0.1-0.3-0.2-0.4-0.2l-30.9,2.5c0,0-2.6,0.3-2.5,1.6c0,0,0,0.9,1.1,1.2c0.2,0.1,0.3,0.2,0.2,0.4
					C399.4,263.7,399.3,263.8,399.2,263.8z"/>
				<path class="st2" d="M465.3,258.1c-0.1,0-0.2-0.1-0.3-0.2c-0.1-0.1-1-1.3-0.6-2.4c0.2-0.7,0.9-1.1,1.9-1.2l0,0l21.4-2.1
					c0,0,1.3-0.1,2.1,0.7c0.6,0.6,0.8,1.5,0.5,2.8c0,0.2-0.3,0.4-0.5,0.4c-0.2,0-0.4-0.3-0.4-0.5c0.2-0.9,0.1-1.6-0.3-2
					c-0.5-0.5-1.4-0.5-1.4-0.5l-21.4,2.1c-0.5,0.1-1.1,0.3-1.2,0.7c-0.2,0.5,0.3,1.3,0.5,1.5c0.2,0.2,0.1,0.5-0.1,0.6
					C465.6,258.1,465.5,258.1,465.3,258.1z"/>
				<path class="st2" d="M466.4,257.8C466.4,257.8,466.3,257.8,466.4,257.8c-0.1-0.1-0.6-0.7-0.4-1.3c0.1-0.4,0.6-0.8,1.3-1
					l20.8-1.9l0,0c0,0,0.9,0.3,1.1,0.9c0.1,0.4,0,0.8-0.3,1.2c0,0-0.1,0.1-0.1,0c0,0-0.1-0.1,0-0.1c0.3-0.4,0.3-0.7,0.2-1
					c-0.2-0.5-0.9-0.8-1-0.8l-20.8,1.9c-0.6,0.2-1,0.5-1.1,0.8c-0.2,0.5,0.3,1.1,0.3,1.1C466.5,257.7,466.5,257.8,466.4,257.8
					C466.4,257.8,466.4,257.8,466.4,257.8z"/>
				<path class="st2" d="M258.7,219.4c-0.5,0-0.9-0.1-1.4-0.1c-4.1-0.5-6.7-2.5-7.5-5.7c0-0.1-0.8-3.5,1.3-6.9
					c2.1-3.2,6-5.4,11.7-6.4l0.1,0c0.2,0,6-0.3,9.1,2.8c1.4,1.4,2,3.2,1.9,5.3c0,0.3-0.3,7.4-10.8,10.7l-0.1,0
					C263,219.2,261.1,219.6,258.7,219.4z M263,201.6c-5.3,1-9,3-10.8,5.8c-1.9,2.9-1.2,5.8-1.2,5.8c1.6,6.2,11.1,4.7,11.8,4.6
					c9.5-2.9,9.8-9.2,9.8-9.4c0.1-1.8-0.4-3.3-1.5-4.4C268.5,201.5,263.5,201.6,263,201.6z"/>
				<path class="st2" d="M256.8,218.3C256.8,218.3,256.7,218.3,256.8,218.3c-0.2-0.1-3.8-1.5-4.7-4.7c-0.6-2,0.1-4.3,1.9-6.7
					c0,0,3.6-4.9,12.3-4.5c0.1,0,0.1,0,0.2,0c0.1,0,3,0.2,4.5,2.5c1.3,1.8,1.4,4.4,0.3,7.6c0,0.1-0.2,0.2-0.3,0.1
					c-0.1,0-0.2-0.2-0.1-0.3c1-3.1,0.9-5.6-0.3-7.3c-1.5-2.1-4.2-2.3-4.2-2.3c-0.1,0-0.1,0-0.2,0c-8.4-0.4-11.9,4.3-11.9,4.3
					c-1.8,2.3-2.4,4.4-1.8,6.3c0.8,3,4.4,4.4,4.4,4.4c0.1,0,0.2,0.2,0.1,0.3C257,218.2,256.9,218.3,256.8,218.3z"/>
				<path class="st1" d="M181,205.6c-0.1,0-0.3-0.1-0.4-0.2c-6-9.6-4.6-18.7-2.3-24.6c2.4-6.4,6.2-10.5,6.4-10.6l0,0l0,0
					c8.9-6,15-20.5,15-20.7c0.1-0.2,0.3-0.3,0.6-0.2c0.2,0.1,0.3,0.4,0.2,0.6c0,0-1.6,3.8-4.2,8.2c-4.4,7.4-8.5,11.1-11.1,12.9
					c-0.4,0.4-3.9,4.4-6.2,10.4c-3.2,8.3-2.4,16.3,2.3,23.8c0.1,0.2,0.1,0.5-0.1,0.6C181.2,205.6,181.1,205.6,181,205.6z"/>
				<path class="st1" d="M250.8,175.2c0,0-0.1,0-0.1,0c-13.7-4.2-24.1-19.4-24.2-19.5c-0.1-0.2-0.1-0.5,0.1-0.6
					c0.2-0.1,0.5-0.1,0.6,0.1c0.1,0.1,10.3,15,23.7,19.2c0.2,0.1,0.4,0.3,0.3,0.6C251.2,175.1,251,175.2,250.8,175.2z"/>
				<path class="st2" d="M386.5,259.6c-0.2,0-0.3-0.1-0.3-0.3c0-0.2,0.1-0.3,0.3-0.4l140.4-12.3c0.2,0,0.3,0.1,0.4,0.3
					c0,0.2-0.1,0.3-0.3,0.4L386.5,259.6C386.6,259.6,386.5,259.6,386.5,259.6z"/>
				<path class="st2" d="M319.9,257.3c-0.3,0-0.6-0.3-0.6-0.6c0-0.4,0.3-0.7,0.6-0.7l5.7-0.4c0.4,0,0.7,0.3,0.7,0.6
					c0,0.4-0.3,0.7-0.6,0.7L319.9,257.3C319.9,257.3,319.9,257.3,319.9,257.3z"/>
				<path class="st2" d="M519.6,194.9c-0.9,0-1.6-0.6-1.7-0.7l-0.1-0.1l-5.6-15.1c-0.1-0.3,0-0.6,0.3-0.7c0.3-0.1,0.6,0,0.7,0.3
					l5.4,14.8c0.3,0.2,0.9,0.5,1.3,0.4c0.1,0,0.3-0.1,0.4-0.5l-5.7-15.1c0,0-0.1-0.3-0.4-0.5c-0.3-0.1-0.8,0-1.1,0.2
					c-0.3,0.1-0.6,0-0.7-0.2c-0.1-0.3,0-0.6,0.2-0.7c0.8-0.4,1.5-0.5,2-0.2c0.8,0.3,1,1,1.1,1.1l5.8,15.5l-0.1,0.2
					c-0.3,0.9-0.8,1.2-1.2,1.3C520,194.9,519.8,195,519.6,194.9z"/>
				<path class="st2" d="M545.6,226c-0.1,0-0.2-0.1-0.3-0.2l-31-73.8c-0.1-0.2,0-0.4,0.2-0.4c0.2-0.1,0.4,0,0.4,0.2l31,73.8
					c0.1,0.2,0,0.4-0.2,0.4C545.7,226,545.6,226,545.6,226z"/>
				<path class="st1" d="M223.6,120.3c-0.1,0-0.2-0.1-0.3-0.1c-0.2-0.2-0.2-0.5,0-0.6c0.1-0.1,5.8-5.5,17-14.1
					c0.2-0.1,0.5-0.1,0.6,0.1c0.1,0.2,0.1,0.5-0.1,0.6c-11.2,8.6-16.9,14-17,14C223.9,120.2,223.8,120.3,223.6,120.3z"/>
				<path class="st2" d="M400,263.1c-0.5,0-0.9-0.2-1.1-0.5c-0.2-0.3-0.2-0.6-0.1-0.9c0.2-0.5,0.8-0.8,1.5-0.8
					c0.9-0.1,1.4,0.1,1.7,0.4c0.2,0.2,0.1,0.5,0.1,0.6c-0.2,0.9-1.1,1.2-1.5,1.2C400.4,263.1,400.2,263.1,400,263.1z M400.9,261.3
					c-0.2,0-0.3,0-0.5,0c-0.7,0-1,0.3-1.1,0.6c-0.1,0.2-0.1,0.3,0,0.4c0.2,0.3,0.7,0.4,1.3,0.3l0,0c0,0,1-0.1,1.1-0.9l0,0
					c0,0,0-0.1-0.1-0.2C401.6,261.4,401.4,261.3,400.9,261.3z"/>
				<path class="st2" d="M402.5,260.9c-0.1,0-0.2-0.1-0.2-0.2c0-0.1,0.1-0.2,0.2-0.2l18-1.5c0.1,0,0.2,0.1,0.2,0.2
					c0,0.1-0.1,0.2-0.2,0.2L402.5,260.9C402.5,260.9,402.5,260.9,402.5,260.9z"/>
				<path class="st1" d="M248.1,175.6C248.1,175.6,248.1,175.6,248.1,175.6c-8.8-1.2-16.3-5.4-16.4-5.4c-0.2-0.1-0.3-0.4-0.2-0.6
					c0.1-0.2,0.4-0.3,0.6-0.2c0.1,0,7.5,4.2,16.1,5.3c0.2,0,0.4,0.3,0.4,0.5C248.6,175.5,248.4,175.6,248.1,175.6z"/>
				<path class="st2" d="M516.4,194.4c-0.1,0-0.2-0.1-0.3-0.2l-5-13.6c-0.1-0.2,0-0.4,0.2-0.4c0.2-0.1,0.4,0,0.4,0.2l5,13.6
					c0.1,0.2,0,0.4-0.2,0.4C516.5,194.4,516.5,194.4,516.4,194.4z"/>
			</g>
			<g>
				<path class="st3" d="M238.1,250.5l12.4-73.8c0,0,5.2-13.6,18.7-13.1l22-1.3c0,0,8.9-1.1,12.8-1.9l27.4-2.7c0,0,4.3-0.6,8.3-1.2
					l41-4.1c0,0,16.3-1.8,20.5-2c0,0,14.5,3.6,29.5-2.7c0,0,6.6-0.6,11-0.7l54.1-4.8c0,0,15.6-1.5,21.6,9.1l31.8,75.8
					c0,0,4.3,14.4-11.5,17.1l-155.4,13.8l-6.7-6l141.6-11.4L484.7,147l-201.1,19.2l-6.3,60.6c0,0-16.5-0.2-18.2,21.6
					C259.2,248.4,248.3,241.9,238.1,250.5z"/>
				<path class="st4" d="M382.4,258.2l7.9,7.1l25.9-2.2c0,0,3.1-3.2,8.7-3.9c0,0,8.7-2,22.6,0.8l43-3.7l44.6-3.9
					c0,0,22.2-0.6,17.3-24.3l-33.3-77.9c0,0-5.4-6.5-14-7.3c0,0,8.9,1.7,12.4,8l31.9,76.2c0,0,3,13.6-11.5,17.1l-88,7.9L382.4,258.2
					z"/>
				<path class="st5" d="M319.5,256.4l4.3,4.8l2.1,0c0,0,0-3.9,0.4-5.2L319.5,256.4z"/>
				<path class="st6" d="M269.9,203.2c0,0,3.4,1.1,3.8,4.8c0,0,0.6,8.1-10.6,11.3c0,0-10,1.5-11.2-5.3
					C251.9,214,250.2,200.4,269.9,203.2z"/>
				<path class="st7" d="M254.1,218.5c0,0-3.8-1.1-3.9-6.3c0,0-0.3-9.8,14.3-10.8c0,0,4.5-0.1,6.9,1.8c0,0-3.7-2-9.8-1.1
					c0,0-9.3,0.7-10.4,10C251.2,212.3,250.7,215.9,254.1,218.5z"/>
				<path d="M512.7,179.4l6.1,15.5c0,0,2.2,1.5,2.6-0.6l-6-15.8c0,0-0.5-1-1.8-0.5C513.5,177.9,512.6,178.2,512.7,179.4z"/>
				<path class="st8" d="M465.7,257.6c0,0-0.4-1.6,2.5-1.8l20.8-1.7c0,0,1.4,0.3,1.1,1.5c0,0,0.9-1.6-0.9-2.1l-22.6,1.8
					C466.7,255.3,464.3,256.3,465.7,257.6z"/>
				<path class="st9" d="M466.4,258c0,0-0.6-0.9,0.6-1.6l21.9-1.9c0,0,1.5,0.4,0.4,2l-22.3,1.9C467,258.4,466.7,258.5,466.4,258z"/>
				<path class="st9" d="M424,259.2l-23.4,1.8c0,0-3.1,1-2,2.8c0,0,0.3,0.7,2,0.6l15.5-1.3C416.1,263.1,418.6,260.4,424,259.2z"/>
				<path class="st10" d="M501.4,142.8c0,0,9.5,0.5,14.2,10.9l31,74.1c0,0,3.2,14.7-14,15.6l-24.8,3.3c0,0,21-1.1,30.2-2.4
					c4-0.6,6.9-2.2,7.9-3.3c0,0,8.1-6.5,1.8-17.9l-30-71.7C517.6,151.4,514.1,143.4,501.4,142.8z"/>
				<path class="st11" d="M552.3,239.9c0,0-1,6.2-7.2,9.9c0,0-4.9,2.5-10.1,2.6l-44,3.8c0,0,0.9-1.1,1-2.7l43.6-3.3
					C535.6,250.2,549.1,248.9,552.3,239.9z"/>
				<polygon class="st12" points="529.6,245.2 529.2,252.9 534.5,252.5 534.8,244.7 				"/>
				<path class="st11" d="M464.8,258.5c0,0-0.6-1-0.5-2.1l-25.8,2.3c0,0,7.8,0.9,9,1.3L464.8,258.5z"/>
				<path class="st11" d="M398.6,264.4c0,0-1.3-0.4-1.4-2.1l-9.4,0.7l2.4,2.1L398.6,264.4z"/>
				<polygon class="st4" points="324,261.6 325.9,261.8 326,261.2 323.8,261.2 				"/>
			</g>
			<g>
				<path class="st13" d="M433.3,223.8c-26.4,1.9-52.9,3.9-79.3,5.8c-2-18.3-4.1-36.6-6.1-54.9c23.8-2,47.5-4,71.3-6
					C423.9,187.2,428.6,205.5,433.3,223.8z M358.9,225.6c22.8-1.7,45.5-3.4,68.3-5.1c-3.9-15.9-7.8-31.8-11.8-47.7
					c-20.8,1.7-41.5,3.4-62.3,5.2C355,193.9,356.9,209.8,358.9,225.6z M415.2,186.7c-5.2,0.4-10.4,0.8-15.6,1.3
					c-0.8-3.9-1.6-7.7-2.4-11.6c5.1-0.4,10.2-0.8,15.2-1.3C413.3,179,414.2,182.8,415.2,186.7z M403.7,183.9
					c2.3-0.2,3.4-0.3,5.7-0.5c-0.4-1.7-0.6-2.6-1-4.3c-2.3,0.2-3.4,0.3-5.7,0.5C403.1,181.3,403.3,182.2,403.7,183.9z M373,190.1
					c-5.2,0.4-10.4,0.8-15.6,1.3c-0.5-3.9-1-7.7-1.5-11.6c5.1-0.4,10.2-0.8,15.2-1.3C371.8,182.4,372.4,186.2,373,190.1z
					 M361.9,187.3c2.3-0.2,3.4-0.3,5.7-0.5c-0.3-1.7-0.4-2.6-0.6-4.3c-2.3,0.2-3.4,0.3-5.7,0.5C361.5,184.7,361.7,185.6,361.9,187.3
					z M378.2,222.7c-5.5,0.4-11.1,0.8-16.6,1.2c-0.5-3.9-1-7.7-1.5-11.6c5.4-0.4,10.8-0.8,16.2-1.2
					C376.9,214.9,377.5,218.8,378.2,222.7z M366.3,219.8c2.4-0.2,3.6-0.3,6.1-0.5c-0.3-1.7-0.4-2.6-0.6-4.3c-2.4,0.2-3.6,0.3-6,0.5
					C366,217.3,366.1,218.1,366.3,219.8z M369.3,197.9c-1.3,0.1-2,0.2-3.3,0.3c-0.3-2.1-0.4-3.2-0.7-5.3c-2.5,0.2-5,0.4-7.5,0.6
					c0.3,2.3,0.4,3.5,0.7,5.8c1.5-0.1,2.3-0.2,3.9-0.3c0,0,0,0,0,0.1c0.3,2.1,0.4,3.2,0.7,5.3c0,0,0,0,0,0.1
					c-1.6,0.1-2.3,0.2-3.9,0.3c0.3,2.3,0.4,3.5,0.7,5.8c2.6-0.2,5.2-0.4,7.7-0.6c-0.3-2.1-0.4-3.2-0.7-5.3c1.4-0.1,2-0.2,3.4-0.3
					c0.3,2.1,0.5,3.2,0.8,5.3c2.6-0.2,5.2-0.4,7.7-0.6c-0.4-2.3-0.6-3.5-0.9-5.8c-1.6,0.1-2.3,0.2-3.9,0.3c0,0,0,0,0-0.1
					c-0.3-2.1-0.5-3.2-0.8-5.3c0,0,0,0,0-0.1c1.5-0.1,2.3-0.2,3.9-0.3c-0.4-2.3-0.6-3.5-0.9-5.8c-2.5,0.2-5,0.4-7.5,0.6
					C368.8,194.7,369,195.8,369.3,197.9z M413.3,195C413.3,195,413.3,195,413.3,195c1.5-0.2,2.3-0.2,3.9-0.4
					c-0.6-2.3-0.8-3.5-1.4-5.8c-2.5,0.2-5,0.4-7.5,0.6c0.5,2.1,0.7,3.2,1.2,5.3c-1.3,0.1-2,0.2-3.3,0.3c-0.5-2.1-0.7-3.2-1.2-5.3
					c-2.5,0.2-5,0.4-7.5,0.6c0.5,2.3,0.7,3.5,1.2,5.8c1.5-0.1,2.3-0.2,3.9-0.3c0,0,0,0,0,0.1c0.4,2.1,0.7,3.2,1.1,5.3c0,0,0,0,0,0.1
					c-1.6,0.1-2.3,0.2-3.9,0.3c0.5,2.3,0.7,3.5,1.2,5.8c2.6-0.2,5.2-0.4,7.7-0.6c-0.5-2.1-0.7-3.2-1.2-5.3c1.4-0.1,2-0.2,3.4-0.3
					c0.5,2.1,0.7,3.2,1.2,5.3c2.6-0.2,5.2-0.4,7.7-0.6c-0.6-2.3-0.8-3.5-1.4-5.8c-1.6,0.1-2.3,0.2-3.9,0.3c0,0,0,0,0-0.1
					C414,198.2,413.8,197.1,413.3,195z M395,185.4c-2.2,0.2-3.3,0.3-5.6,0.4c-0.2-1-0.3-1.5-0.5-2.5c2.2-0.2,3.3-0.3,5.5-0.4
					c-0.4-2.2-0.7-3.3-1.1-5.5c-2.4,0.2-3.6,0.3-6,0.5c0.2,1.1,0.3,1.7,0.5,2.8c0,0,0,0-0.1,0c-2.2,0.2-3.3,0.3-5.5,0.5
					c0,0,0,0-0.1,0c-0.2-1.1-0.3-1.7-0.5-2.8c-2.4,0.2-3.6,0.3-6,0.5c0.4,2.2,0.6,3.3,0.9,5.5c2.2-0.2,3.3-0.3,5.5-0.4
					c0.2,1,0.3,1.5,0.4,2.5c-2.2,0.2-3.3,0.3-5.6,0.4c0.3,2,0.5,3,0.8,5c-0.1,0-0.1,0-0.2,0c0.4,2.3,0.6,3.5,1,5.8
					c1.5-0.1,2.3-0.2,3.9-0.3c0,0,0,0,0,0.1c0.4,2.1,0.6,3.2,0.9,5.3c0,0,0,0,0,0.1c-1.6,0.1-2.3,0.2-3.9,0.3c0.4,2.3,0.6,3.5,1,5.8
					c0.1,0,0.1,0,0.2,0c0.3,2,0.5,3,0.8,5c2.3-0.2,3.5-0.3,5.9-0.4c0.2,1,0.3,1.5,0.4,2.5c-2.4,0.2-3.5,0.3-5.9,0.4
					c0.4,2.2,0.6,3.3,0.9,5.5c2.2-0.2,4.4-0.3,6.5-0.5c-0.2-1.1-0.3-1.7-0.5-2.8c0,0,0,0,0.1,0c2.4-0.2,3.6-0.3,5.9-0.4
					c0,0,0,0,0.1,0c0.2,1.1,0.3,1.7,0.5,2.8c2.2-0.2,4.4-0.3,6.5-0.5c-0.4-2.2-0.7-3.3-1.1-5.5c-2.4,0.2-3.5,0.3-5.9,0.4
					c-0.2-1-0.3-1.5-0.5-2.5c2.3-0.2,3.5-0.3,5.9-0.4c-0.4-2-0.6-3-1-5c0,0,0,0,0,0c-0.5-2.3-0.7-3.5-1.2-5.8
					c-1.6,0.1-2.3,0.2-3.9,0.3c0,0,0,0,0-0.1c-0.4-2.1-0.6-3.2-1-5.3c0,0,0,0,0-0.1c1.5-0.1,2.3-0.2,3.9-0.3
					c-0.5-2.3-0.7-3.5-1.2-5.8c0,0,0,0,0,0C395.6,188.4,395.4,187.4,395,185.4z M393.5,210.2C393.5,210.2,393.4,210.2,393.5,210.2
					c-2.4,0.2-3.6,0.3-5.9,0.5c0,0,0,0-0.1,0c-0.2-0.9-0.2-1.4-0.4-2.3c0.5,0,0.7-0.1,1.2-0.1c-0.4-2.1-0.6-3.2-1-5.3
					c1.4-0.1,2-0.2,3.4-0.3c0.4,2.1,0.6,3.2,1,5.3c0.5,0,0.8-0.1,1.3-0.1C393.2,208.9,393.3,209.3,393.5,210.2z M383.7,189.1
					C383.7,189.1,383.7,189.1,383.7,189.1c2.3-0.2,3.4-0.3,5.7-0.5c0,0,0,0,0.1,0c0.2,0.9,0.3,1.4,0.4,2.3c-0.5,0-0.8,0.1-1.3,0.1
					c0.4,2.1,0.6,3.2,1,5.3c-1.3,0.1-2,0.2-3.3,0.3c-0.4-2.1-0.6-3.2-1-5.3c-0.5,0-0.7,0.1-1.1,0.1
					C383.9,190.4,383.8,190,383.7,189.1z M419.6,209.6c-4.1,0.3-8.3,0.6-12.4,0.9c0.6,2.9,1.3,5.9,1.9,8.8c4.2-0.3,8.4-0.6,12.6-0.9
					C421,215.5,420.3,212.6,419.6,209.6z"/>
			</g>
			<path class="st1" d="M414.9,264c-0.1,0-0.2-0.1-0.3-0.1c-0.2-0.2-0.1-0.5,0-0.6c0.1-0.1,2.9-2.5,8.3-4.2c5-1.5,13.2-2.6,24.3,0.9
				c0.2,0.1,0.4,0.3,0.3,0.6c-0.1,0.2-0.3,0.4-0.6,0.3c-10.8-3.4-18.9-2.3-23.7-0.9c-5.3,1.6-8,4-8,4C415.1,264,415,264,414.9,264z"
				/>
		</g>
		<g>
			<path class="st14" d="M966.5-13.4L845,0.2c0,0-59.9,6.1-98.1-0.8c0,0-35-4.7-52.5-15.9l-67.5-36c0,0-17.5-13.6-45.1,10.7
				l-54.6,18.6c0,0-17.4,3.1-18.8,15.3l-5.4,37.1l-16.5,18.7l-1.3,1.5c0,0-7.1,4.1-16.4,23.4c0,0-12.8,10-14.3,25l0.8,1.5l0.4,0.9
				l-38.4,37.8c0,0-2.5,2.6-1.5,6.2l11.9,33.4c0,0,0,6.3,4.6,10.3l13,6.4c0,0,10.4,2.9,17.7-2.4l49.4-49.3c0,0,4.4,2.2,7.5,2.4
				c0,0,16.7-1.2,29.5-5.5l36.7-12.4c0,0,29.6-11.1,48.3-9.2c0,0,26-1.6,29.4-2.4c0,0,39.3,7.3,70.5-12.6c0,0,22.9-12.1,86.6-9.6
				c0,0,21.8,0.3,41.3,4.7l92.6,13.8L966.5-13.4z"/>
			<g>
				<g>
					<path class="st1" d="M465.3,106.6c-0.1,0-0.2,0-0.2,0c-4.9-0.5-8.3-2.6-9.7-6.1l-1.7-2.5l0-0.2c0-0.1,0.2-3.4,2.1-8.2
						c1.7-4.4,5.3-10.8,12.4-16.9l8-14.3c0-0.1,3.4-5.5,8.9-9.7l20.1-23.2c0.6-1.2,9-17,21.5-21.8c1.9-1.5,48.6-38.2,58.2-48.9l0,0
						c0,0,5-4.3,12.2-7.5c6.7-3,16.7-5.9,26.4-2.1l0.1,0L694.6-17c0.1,0,7.4,4.2,19.9,8.4C725.9-4.7,744.2,0,766,0.6l0,0
						c0.4,0,44.5,4.1,86.7-2.1l113.8-12.3c0.3,0,0.5,0.2,0.5,0.4c0,0.3-0.2,0.5-0.4,0.5L852.9-0.5c-42,6.2-85.8,2.2-86.9,2.1
						c-22-0.6-40.3-5.4-51.9-9.3c-12.5-4.2-19.9-8.4-20-8.4L623-54c-5.2-2-13.9-3.2-25.6,2.1c-6.8,3.1-11.6,7.1-12,7.4
						c-9.8,11-57.8,48.6-58.3,49l-0.1,0l-0.1,0c-12.4,4.7-21,21.2-21,21.4l0,0.1l0,0l-20.2,23.3l0,0c-5.2,4-8.5,9.2-8.7,9.4l-8,14.4
						l-0.1,0.1c-7,5.9-10.5,12.3-12.2,16.5c-1.6,4.1-1.9,7.1-2,7.8l1.6,2.3l0,0.1c3.1,7.7,15.5,5.4,15.6,5.4
						c5.3-1.1,13.7-4.9,23.1-16.7c5.7-7.1,9.1-13.9,9.1-14l0.1-0.3l0.3,0c0.1,0,6.4-0.1,15.5-8.6l21.4-22.6l0.1,0
						c0.3-0.1,27.1-11,39.1-24.7l0.1-0.2l0.2,0c0.1,0,14.9-0.1,22.7-4.8l0.3-0.2l0.3,0.3c0,0,2.6,2.8,7.6,4.6
						c0.2,0.1,0.4,0.4,0.3,0.6c-0.1,0.2-0.4,0.4-0.6,0.3c-4.4-1.6-6.9-3.8-7.7-4.6c-7.7,4.5-20.7,4.8-22.6,4.8
						C569.3,32.6,543.8,43.2,542,44l-21.3,22.5c-8.4,7.9-14.4,8.8-15.8,8.9c-0.7,1.3-4,7.4-9.1,13.9c-5.3,6.7-13.8,15.1-23.7,17.1
						C471.9,106.3,468.9,106.9,465.3,106.6z"/>
					<path class="st1" d="M612.8,59.3c-0.2,0-0.4-0.2-0.4-0.4c-2.2-8.3-0.5-33.9-0.4-35.8c-1-4.3-1.8-29.4-1.8-30.5
						c0-0.3,0.2-0.5,0.5-0.5c0.3,0,0.5,0.2,0.5,0.5c0,0.3,0.8,26.3,1.8,30.3l0,0.1l0,0.1c0,0.3-1.9,27.3,0.4,35.6
						c0.1,0.3-0.1,0.5-0.3,0.6C612.9,59.3,612.9,59.4,612.8,59.3z"/>
					<path class="st1" d="M519.9,145.3L519.9,145.3c-5.5-0.7-9.6-3-12.1-6.6c-4.6-6.6-2.6-15.5-2.5-15.9c0.9-3.9,3.8-10,12.5-17.1
						c4.9-4,9.5-6.5,10-6.8c5.8-5.2,16.6-10.1,32.4-14.7c11.7-3.4,21.9-5.3,22-5.3l0,0c8.8-0.8,23.6-13.5,23.8-13.7l0.1-0.1
						c5.4-3.2,16.3-19.4,16.4-19.6c0.1-0.2,0.4-0.3,0.7-0.1c0.2,0.1,0.3,0.4,0.1,0.7c-0.5,0.7-11.1,16.5-16.7,19.8
						c-1,0.8-15.2,13.1-24.2,13.9c-1.1,0.2-40.6,7.7-53.9,19.8l0,0l-0.1,0c-0.2,0.1-19,10.3-22.1,23.3c0,0.1-2,8.8,2.4,15.1
						c2.4,3.4,6.2,5.5,11.4,6.2c0.8,0,12.2-0.7,28.3-5.3l38.8-13.1c0.3-0.1,29.4-10.5,46.9-8.8c1,0,24.3-1,29.7-2.3l0.1,0l0.1,0
						c0.1,0,9.4,1.8,22.7,1.2c12.2-0.6,30.4-3.4,47.6-13.6l0.1,0c0.3-0.1,31.3-10.6,54.7-9.3c1.1,0,37.4-1.1,54.5,1.4L955,111.1
						c0.3,0,0.4,0.3,0.4,0.5c0,0.3-0.3,0.4-0.5,0.4L843.2,95.4c-17.2-2.6-54-1.4-54.3-1.4l0,0c-22.8-1.3-52.9,8.8-54.3,9.3
						c-17.3,10.3-35.7,13.1-48,13.7c-12.6,0.6-21.7-1-22.8-1.2c-5.7,1.3-28.8,2.3-29.8,2.3l-0.1,0c-17.3-1.6-46.2,8.7-46.5,8.8
						L548.5,140C531.9,144.7,520.1,145.3,519.9,145.3L519.9,145.3z"/>
					<path class="st1" d="M449.5,195.3c-2.9-0.3-5-1-5.2-1l-0.1,0l-12.4-6.2c-3.9-2.4-4.8-9.7-4.9-10.5l-12.1-34l0,0
						c-0.5-2.6,1.4-5.3,1.5-5.4l0.1-0.1l39.1-38.1c0.2-0.2,0.5-0.2,0.7,0c0.2,0.2,0.2,0.5,0,0.7l-39,38.1c-0.2,0.3-1.7,2.6-1.3,4.6
						l12.1,34.1l0,0.1c0,0.1,0.9,7.6,4.5,9.9l12.3,6.2c0.6,0.2,11.1,3.4,18.4-2.5l48.9-48.9c0.2-0.2,0.5-0.2,0.7,0
						c0.2,0.2,0.2,0.5,0,0.7l-48.9,48.9l0,0C459.1,195.4,453.5,195.7,449.5,195.3z"/>
					<path class="st1" d="M447.6,194.7c0,0-0.1,0-0.1,0l-5-2.1c-9.9-4-12-9.3-12.2-9.8c-3.3-7,0.4-11.1,0.6-11.3l9.8-10l105-104.7
						l0,0c3.7-2.5,9.3-4.9,15.2-2.7c3.4,1.3,5.3,3.5,5.5,3.8l8.2,8.2l0,0c2.9,4.2,1,11.1,0.9,11.4l0,0.1l-0.1,0.1l-3.1,4.1
						c-0.2,0.2-0.5,0.3-0.7,0.1c-0.2-0.2-0.3-0.5-0.1-0.7l3-4c0.2-0.8,1.6-6.9-0.8-10.4l-8.2-8.2c0,0-1.9-2.3-5.1-3.5
						c-4.4-1.6-9.2-0.8-14.3,2.6L441.4,162.2l-9.8,10c-0.1,0.1-3.5,3.8-0.4,10.2l0,0.1c0.6,1.8,3.8,6.1,11.6,9.3l5,2.1
						c0.2,0.1,0.4,0.4,0.3,0.6C448,194.6,447.8,194.7,447.6,194.7z"/>
					<path class="st1" d="M566.1,58.7c-0.1,0-0.2-0.1-0.3-0.2l-15.9-18.4c-0.2-0.2-0.1-0.5,0-0.7c0.2-0.2,0.5-0.1,0.7,0l15.9,18.4
						c0.2,0.2,0.1,0.5,0,0.7C566.3,58.6,566.2,58.7,566.1,58.7z"/>
					<path class="st1" d="M606.3,66.1c-0.2,0-0.3-0.1-0.4-0.3c-2.8-6.1-10.5-13.4-10.8-13.7c-4.8-4.1-26.3-6.2-26.6-6.2
						c-0.3,0-0.5-0.3-0.4-0.5c0-0.3,0.3-0.5,0.5-0.4c0.9,0.1,22.1,2.2,27.1,6.5l0,0c0.3,0.3,8,7.7,11,14c0.1,0.2,0,0.5-0.2,0.6
						C606.4,66.1,606.3,66.1,606.3,66.1z"/>
					<path class="st1" d="M595.4,52.2c-0.1,0-0.3-0.1-0.4-0.2c-0.1-0.2,0-0.5,0.2-0.6c0.1,0,8.2-4.8,10.1-15.2
						c0-0.3,0.3-0.4,0.6-0.4c0.3,0,0.4,0.3,0.4,0.6c-2,10.9-10.2,15.7-10.6,15.9C595.6,52.2,595.5,52.2,595.4,52.2z"/>
					<path class="st1" d="M611.7,39.5C611.7,39.5,611.7,39.5,611.7,39.5c-6.3-1.9-12.1-6.9-15.8-10.8c-4.1-4.2-6.7-8.1-6.7-8.1
						c-0.1-0.2-0.1-0.5,0.1-0.7c0.2-0.1,0.5-0.1,0.7,0.1c0.1,0.2,10.4,15.1,21.9,18.5c0.3,0.1,0.4,0.3,0.3,0.6
						C612.2,39.4,611.9,39.6,611.7,39.5z"/>
					<path class="st1" d="M502.8,29.2C502.8,29.2,502.8,29.2,502.8,29.2c-0.3,0-0.5-0.3-0.4-0.5l5.2-34.5c0.8-6.7,4.2-10.5,7-12.6
						c2.9-2.1,5.6-2.8,5.9-2.9l60.4-20.7c0.2-0.1,0.5,0,0.6,0.3c0.1,0.2,0,0.5-0.3,0.6l-60.4,20.7l0,0c0,0-2.7,0.6-5.6,2.8
						c-3.8,2.8-6,6.9-6.6,11.9l-5.2,34.6C503.3,29.1,503.1,29.3,502.8,29.2z"/>
					<path class="st1" d="M430.9,154.9c-0.1,0-0.2-0.1-0.3-0.1c-0.2-0.2-0.2-0.5,0-0.7l22.7-21.7l0,0c0,0,0.7-0.6,0.4-1.9l-5.3-10.7
						c-0.1-0.2,0-0.5,0.2-0.6c0.2-0.1,0.5,0,0.6,0.2l5.3,10.7l0,0c0.5,1.8-0.5,2.7-0.7,2.9l-22.6,21.7
						C431.2,154.8,431,154.9,430.9,154.9z"/>
					<path class="st1" d="M431.8,161.8c-0.1,0-0.2-0.1-0.3-0.1c-0.2-0.2-0.2-0.5,0-0.7l28.2-27.8c0,0,1-1,0.4-3.3l-7.3-13.8
						c-0.1-0.1-0.4-0.3-0.6-0.2c-0.2,0.1-0.5-0.1-0.6-0.3c-0.1-0.2,0.1-0.5,0.3-0.6c0.7-0.2,1.4,0.2,1.6,0.5l0,0l0,0.1l7.4,13.9l0,0
						c0.8,2.9-0.6,4.2-0.6,4.3l-28.2,27.8C432.1,161.7,432,161.8,431.8,161.8z"/>
					<path class="st1" d="M455.1,186.7C455.1,186.7,455,186.7,455.1,186.7c-0.2,0-2.4-0.6-5-2c-3.5-1.8-5.8-3.9-7-6.3l0,0l0-0.1
						c0-0.2-1.1-5.4,2.2-9.3l0,0l101.9-100l0,0c0.1-0.1,8.8-6.7,17.8,0.2l0,0l5,5l0,0.1c0.1,0.1,1.8,3,0.3,6.5
						c-0.1,0.2-0.4,0.4-0.6,0.3c-0.2-0.1-0.4-0.4-0.3-0.6c1.2-2.8,0-5.3-0.2-5.6l-4.9-4.9c-3.5-2.7-7.4-3.5-11.4-2.5
						c-2.9,0.7-4.9,2.2-5.1,2.3l-101.8,100c-2.8,3.4-2.1,7.9-2,8.5c2.5,5.3,11.1,7.7,11.2,7.7c0.3,0.1,0.4,0.3,0.3,0.6
						C455.5,186.5,455.3,186.7,455.1,186.7z"/>
				</g>
				<path class="st1" d="M580.9,19.2c-0.1,0-0.2,0-0.2-0.1c-0.2-0.2-0.2-0.5-0.1-0.7c3-3.9,2.1-9.8,2.1-9.8c0-0.3,0.1-0.5,0.4-0.5
					c0.3,0,0.5,0.1,0.5,0.4c0,0.3,1,6.4-2.3,10.6C581.2,19.1,581.1,19.2,580.9,19.2z"/>
				<path class="st1" d="M504.5,75.3c-0.1,0-0.2-0.1-0.3-0.2c-2.9-3.5-8.3-6.2-8.4-6.2c-0.2-0.1-0.3-0.4-0.2-0.6
					c0.1-0.2,0.4-0.3,0.6-0.2c0.2,0.1,5.7,2.8,8.7,6.5c0.2,0.2,0.1,0.5-0.1,0.7C504.8,75.3,504.7,75.4,504.5,75.3z"/>
				<path class="st1" d="M541.7,44c-0.2,0-0.4-0.2-0.4-0.4c-0.7-3.3-4.7-6.1-4.8-6.2c-0.2-0.1-0.3-0.4-0.1-0.7
					c0.1-0.2,0.4-0.3,0.7-0.1c0.2,0.1,4.4,3.1,5.2,6.8c0.1,0.3-0.1,0.5-0.4,0.6C541.7,44,541.7,44,541.7,44z"/>
			</g>
		</g>
	</g>
</g>
</svg>
