<?xml version="1.0" encoding="utf-8"?>
<!-- Generator: Adobe Illustrator 20.1.0, SVG Export Plug-In . SVG Version: 6.00 Build 0)  -->
<svg version="1.1" xmlns="http://www.w3.org/2000/svg" xmlns:xlink="http://www.w3.org/1999/xlink" x="0px" y="0px"
	 viewBox="0 0 60 60" style="enable-background:new 0 0 60 60;" xml:space="preserve">
<style type="text/css">
	.st0{display:none;}
	.st1{display:inline;}
	.st2{fill:#00A0EA;}
	.st3{fill:#00A0E9;}
	.st4{fill:#FFFFFF;}
	.st5{fill:#008CFF;}
</style>
<g id="印刷青" class="st0">
	<g class="st1">
		<rect y="57" class="st2" width="60" height="3"/>
		<path class="st2" d="M51.5,60h-43V15.2h43V60z M11.5,57h37V18.2h-37V57z"/>
		<rect x="28.5" y="8.1" class="st3" width="3" height="20"/>
		<polygon class="st3" points="38.7,8.8 30,0.1 21.3,8.8 		"/>
	</g>
</g>
<g id="レイヤー_2" class="st0">
	<g class="st1">
		<path class="st4" d="M37.2,23.4H60L41.7,37.1l7,21.9L30,45.5L11.3,59l7-21.9L0,23.4h22.8L30,1.1L37.2,23.4z"/>
	</g>
</g>
<g id="レイヤー_3" class="st0">
	<g class="st1">
		<path class="st4" d="M56.8,60c-0.4-14.5-12.2-26.2-26.9-26.2C15.3,33.8,3.5,45.5,3.1,60H56.8z"/>
		<rect x="27.9" y="0" class="st4" width="4.1" height="20.7"/>
		
			<rect x="42.2" y="12.4" transform="matrix(0.1963 -0.9805 0.9805 0.1963 28.1505 63.316)" class="st4" width="21.1" height="4.1"/>
		<rect x="5.1" y="3.9" transform="matrix(0.9806 -0.1962 0.1962 0.9806 -2.7027 1.6908)" class="st4" width="4.1" height="21.1"/>
	</g>
</g>
<g id="レイヤー_4">
	<path class="st5" d="M60,53.1H0L30.2,6.9L60,53.1z M3.9,50.9h52.1L30.2,10.8L3.9,50.9z"/>
</g>
</svg>
