<?xml version="1.0" encoding="utf-8"?>
<!-- Generator: Adobe Illustrator 14.0.0, SVG Export Plug-In . SVG Version: 6.00 Build 43363)  -->
<!DOCTYPE svg PUBLIC "-//W3C//DTD SVG 1.1//EN" "http://www.w3.org/Graphics/SVG/1.1/DTD/svg11.dtd">
<svg version="1.1" id="レイヤー_1" xmlns="http://www.w3.org/2000/svg" xmlns:xlink="http://www.w3.org/1999/xlink" x="0px"
	 y="0px" width="50px" height="50px" viewBox="0 0 50 50" enable-background="new 0 0 50 50" xml:space="preserve">
<g id="印刷青" display="none">
	<g display="inline">
		<rect y="47.5" fill="#00A0EA" width="50" height="2.5"/>
		<path fill="#00A0EA" d="M42.916,50H7.083V12.667h35.833V50z M9.583,47.5h30.833V15.167H9.583V47.5z"/>
		<rect x="23.75" y="6.75" fill="#00A0E9" width="2.5" height="16.667"/>
		<polygon fill="#00A0E9" points="32.25,7.333 25,0.083 17.75,7.333 		"/>
	</g>
</g>
<g id="レイヤー_2" display="none">
	<g display="inline">
		<path fill="#FFFFFF" d="M31,19.5h19L34.75,30.916l5.834,18.25L25,37.916L9.417,49.166l5.833-18.25L0,19.5h19l6-18.583L31,19.5z"/>
	</g>
</g>
<g id="レイヤー_3" display="none">
	<g display="inline">
		<path fill="#FFFFFF" d="M47.334,50C47,37.916,37.166,28.166,24.917,28.166c-12.167,0-22,9.75-22.333,21.834H47.334z"/>
		<rect x="23.25" fill="#FFFFFF" width="3.416" height="17.25"/>
		
			<rect x="35.103" y="10.318" transform="matrix(-0.1963 0.9805 -0.9805 -0.1963 64.3024 -28.654)" fill="#FFFFFF" width="17.583" height="3.416"/>
		
			<rect x="4.244" y="3.256" transform="matrix(-0.9806 0.1962 -0.1962 -0.9806 14.1539 22.6941)" fill="#FFFFFF" width="3.417" height="17.584"/>
	</g>
</g>
<g id="レイヤー_4" display="none">
	<path display="inline" fill="#008CFF" d="M50,44.25H0l25.167-38.5L50,44.25z M3.25,42.416h43.416L25.167,9L3.25,42.416z"/>
</g>
<g id="レイヤー_5" display="none">
	<path display="inline" fill="#FF0000" d="M25,50C11.25,50,0,38.75,0,25S11.25,0,25,0s25,11.25,25,25S38.75,50,25,50z M25,2.083
		C12.333,2.083,2.083,12.333,2.083,25c0,12.666,10.25,22.916,22.917,22.916c12.666,0,22.916-10.25,22.916-22.916
		C47.916,12.333,37.666,2.083,25,2.083z"/>
</g>
<g id="レイヤー_6">
	
		<rect x="-9.262" y="23.887" transform="matrix(-0.7071 0.7071 -0.7071 -0.7071 60.3845 24.9289)" fill="#333333" width="68.582" height="2.167"/>
	
		<rect x="23.946" y="-9.262" transform="matrix(-0.707 0.7072 -0.7072 -0.707 60.4264 25.0245)" fill="#333333" width="2.167" height="68.583"/>
</g>
</svg>
