<?xml version="1.0" encoding="utf-8"?>
<!-- Generator: Adobe Illustrator 20.1.0, SVG Export Plug-In . SVG Version: 6.00 Build 0)  -->
<svg version="1.1" xmlns="http://www.w3.org/2000/svg" xmlns:xlink="http://www.w3.org/1999/xlink" x="0px" y="0px"
	 viewBox="0 0 900 300" style="enable-background:new 0 0 900 300;" xml:space="preserve">
<style type="text/css">
	.st0{display:none;}
	.st1{display:inline;}
	.st2{fill:#FFFFFF;}
	.st3{fill:#0767AB;}
	.st4{clip-path:url(#SVGID_2_);fill:#FFFFFF;}
	.st5{clip-path:url(#SVGID_2_);}
	
		.st6{clip-path:url(#SVGID_2_);fill:none;stroke:#0767AB;stroke-width:8;stroke-linecap:round;stroke-linejoin:round;stroke-miterlimit:10;}
	.st7{clip-path:url(#SVGID_4_);fill:#FFFFFF;}
	.st8{clip-path:url(#SVGID_4_);}
	.st9{fill:#036DB7;}
	.st10{clip-path:url(#SVGID_6_);fill:#FFFFFF;}
	.st11{clip-path:url(#SVGID_6_);}
</style>
<g id="レイヤー_1" class="st0">
	<g class="st1">
		<path class="st2" d="M3336.8,3443.7L3537,3461c0,0,23-30,64-27l138,5l51,16c0,0,134,4,149.3,13.3c0,0,76-15.3,70,29.3L3992,3525
			l116.7-16.7c0,0,46.7-5.3,57.3,36.7l71.3,145.3c0,0,16,44-34,57.3l-186,24.7c0,0,9.3,66-46.7,76c0,0-32-11.3-38.7-28
			c0,0-0.7,44-76.7,56c0,0-21.3-4-36.7-12c0,0-10,43.3-56.7,39.3l-48-17.3c0,0-15.3,20.7-44.7,21.3c0,0-52.7-15.3-75.3-31.3
			c0,0-48.7-47.3-55.3-76.7l-4.7-7.3l-72-71.3l-36.7-35.3l-88.7-16v-220.7L3336.8,3443.7z"/>
		<g>
			<path class="st3" d="M4046.2,3698.4c-64.1,8-128.2,16-192.4,24.1c-7.2-44.3-14.4-88.6-21.7-132.9c57.6-7.8,115.3-15.6,172.9-23.4
				C4018.7,3610.3,4032.4,3654.3,4046.2,3698.4z M3865.1,3712c55.2-6.9,110.4-13.9,165.6-20.8c-11.5-38.2-23-76.4-34.5-114.6
				c-50.3,6.8-100.6,13.5-151,20.3C3851.8,3635.2,3858.4,3673.6,3865.1,3712z M3997.3,3610.3c-12.6,1.7-25.2,3.3-37.8,5
				c-2.4-9.3-4.9-18.6-7.3-28c12.3-1.6,24.6-3.3,36.9-4.9C3991.8,3591.6,3994.6,3601,3997.3,3610.3z M3969,3604.8
				c5.5-0.7,8.3-1.1,13.8-1.8c-1.2-4.1-1.8-6.2-2.9-10.3c-5.5,0.7-8.2,1.1-13.7,1.8C3967.4,3598.7,3967.9,3600.7,3969,3604.8z
				 M3895.2,3623.7c-12.6,1.7-25.2,3.3-37.8,5c-1.7-9.3-3.3-18.7-5-28c12.3-1.6,24.6-3.3,36.9-4.9
				C3891.3,3605,3893.2,3614.4,3895.2,3623.7z M3867.7,3618.3c5.5-0.7,8.3-1.1,13.8-1.8c-0.8-4.1-1.2-6.2-2.1-10.3
				c-5.5,0.7-8.2,1.1-13.7,1.8C3866.5,3612.1,3866.9,3614.1,3867.7,3618.3z M3911.7,3702.4c-13.4,1.7-26.8,3.4-40.2,5.1
				c-1.7-9.3-3.3-18.7-5-28c13.1-1.7,26.2-3.4,39.4-5C3907.8,3683.7,3909.7,3693,3911.7,3702.4z M3882.5,3697
				c5.9-0.7,8.8-1.1,14.7-1.9c-0.8-4.1-1.2-6.2-2.1-10.3c-5.8,0.7-8.8,1.1-14.6,1.9C3881.3,3690.8,3881.7,3692.8,3882.5,3697z
				 M3887.1,3643.1c-3.2,0.4-4.9,0.6-8.1,1.1c-1-5.1-1.5-7.7-2.5-12.8c-7.3,1-10.9,1.4-18.1,2.4c1,5.6,1.5,8.4,2.5,14.1
				c3.7-0.5,5.6-0.7,9.4-1.2c0,0.1,0,0.1,0,0.1c1,5.1,1.4,7.7,2.4,12.8c0,0.1,0,0.1,0,0.1c-3.8,0.5-5.7,0.7-9.5,1.2
				c1,5.6,1.5,8.4,2.5,14.1c7.5-1,11.2-1.4,18.7-2.4c-1-5.1-1.5-7.7-2.5-12.8c3.3-0.4,4.9-0.6,8.2-1.1c1,5.1,1.5,7.7,2.6,12.8
				c7.5-1,11.2-1.4,18.7-2.4c-1.2-5.6-1.8-8.4-3-14.1c-3.8,0.5-5.7,0.7-9.5,1.2c0-0.1,0-0.1,0-0.1c-1.1-5.1-1.6-7.7-2.7-12.8
				c0-0.1,0-0.1,0-0.1c3.7-0.5,5.6-0.7,9.4-1.2c-1.2-5.6-1.8-8.4-3-14.1c-7.3,1-10.9,1.4-18.1,2.4
				C3885.5,3635.4,3886,3638,3887.1,3643.1z M3993.8,3630.6c0-0.1,0-0.1,0-0.1c3.7-0.5,5.6-0.7,9.4-1.2c-1.6-5.6-2.5-8.4-4.1-14
				c-7.3,1-10.9,1.4-18.1,2.4c1.4,5.1,2.1,7.7,3.6,12.8c-3.2,0.4-4.9,0.6-8.1,1.1c-1.4-5.1-2.1-7.7-3.5-12.8
				c-7.3,1-10.9,1.4-18.1,2.4c1.4,5.6,2.2,8.4,3.6,14c3.7-0.5,5.6-0.7,9.4-1.2c0,0.1,0,0.1,0,0.1c1.4,5.1,2,7.7,3.4,12.8
				c0,0.1,0,0.1,0,0.1c-3.8,0.5-5.7,0.7-9.5,1.2c1.4,5.6,2.2,8.4,3.6,14c7.5-1,11.2-1.4,18.7-2.4c-1.4-5.1-2.1-7.7-3.5-12.8
				c3.3-0.4,4.9-0.6,8.2-1.1c1.4,5.1,2.1,7.7,3.6,12.8c7.5-1,11.2-1.4,18.7-2.4c-1.6-5.6-2.5-8.4-4.1-14c-3.8,0.5-5.7,0.7-9.5,1.2
				c0-0.1,0-0.1,0-0.1C3996,3638.3,3995.3,3635.8,3993.8,3630.6z M3948.1,3609.6c-5.4,0.7-8.1,1.1-13.5,1.8
				c-0.6-2.4-0.9-3.5-1.4-5.9c5.4-0.7,8-1.1,13.4-1.8c-1.4-5.3-2-8-3.4-13.4c-5.8,0.8-8.7,1.2-14.6,2c0.7,2.7,1,4.1,1.7,6.8
				c-0.1,0-0.1,0-0.1,0c-5.4,0.7-8,1.1-13.4,1.8c-0.1,0-0.1,0-0.1,0c-0.6-2.7-0.9-4.1-1.6-6.8c-5.8,0.8-8.7,1.2-14.6,2
				c1.2,5.4,1.8,8,2.9,13.4c5.4-0.7,8-1.1,13.4-1.8c0.5,2.4,0.8,3.6,1.4,5.9c-5.4,0.7-8.1,1.1-13.5,1.8c1,4.8,1.6,7.2,2.6,12
				c-0.2,0-0.2,0-0.4,0.1c1.2,5.6,1.8,8.4,3.1,14.1c3.7-0.5,5.6-0.7,9.4-1.2c0,0.1,0,0.1,0,0.1c1.2,5.1,1.7,7.7,2.9,12.8
				c0,0.1,0,0.1,0,0.1c-3.8,0.5-5.7,0.7-9.5,1.2c1.2,5.6,1.8,8.4,3.1,14.1c0.2,0,0.3,0,0.4-0.1c1,4.8,1.6,7.2,2.6,12
				c5.7-0.7,8.5-1.1,14.2-1.8c0.5,2.4,0.8,3.6,1.4,5.9c-5.7,0.7-8.6,1.1-14.3,1.8c1.2,5.4,1.8,8,2.9,13.4c6.3-0.8,9.5-1.2,15.8-2
				c-0.6-2.7-0.9-4.1-1.6-6.8c0.1,0,0.1,0,0.2,0c5.8-0.7,8.6-1.1,14.4-1.8c0.1,0,0.1,0,0.2,0c0.7,2.7,1,4.1,1.7,6.8
				c6.3-0.8,9.5-1.2,15.8-2c-1.4-5.3-2-8-3.4-13.4c-5.7,0.7-8.6,1.1-14.3,1.8c-0.6-2.4-0.9-3.5-1.4-5.9c5.7-0.7,8.5-1.1,14.2-1.8
				c-1.2-4.8-1.8-7.2-3.1-12c0,0,0,0,0,0c-1.4-5.6-2.1-8.4-3.6-14c-3.8,0.5-5.7,0.7-9.5,1.2c0-0.1,0-0.1,0-0.1
				c-1.3-5.1-1.9-7.7-3.2-12.8c0-0.1,0-0.1,0-0.1c3.7-0.5,5.6-0.7,9.4-1.2c-1.4-5.6-2.1-8.4-3.6-14c0,0,0,0,0,0
				C3949.9,3616.8,3949.3,3614.4,3948.1,3609.6z M3947.5,3670.2c-0.1,0-0.1,0-0.1,0c-5.7,0.7-8.5,1.1-14.2,1.8c-0.1,0-0.1,0-0.1,0
				c-0.5-2.2-0.8-3.3-1.3-5.5c1.1-0.1,1.7-0.2,2.9-0.4c-1.2-5.1-1.8-7.7-3-12.8c3.3-0.4,4.9-0.6,8.2-1.1c1.2,5.1,1.8,7.7,3.1,12.8
				c1.3-0.2,1.9-0.2,3.2-0.4C3946.7,3666.9,3946.9,3668,3947.5,3670.2z M3921,3619.9c0.1,0,0.1,0,0.1,0c5.4-0.7,8.2-1.1,13.6-1.8
				c0.1,0,0.1,0,0.1,0c0.5,2.2,0.8,3.3,1.3,5.5c-1.3,0.2-1.9,0.2-3.1,0.4c1.2,5.1,1.8,7.7,3.1,12.8c-3.2,0.4-4.9,0.6-8.1,1.1
				c-1.2-5.1-1.8-7.7-3-12.8c-1.1,0.1-1.7,0.2-2.8,0.4C3921.7,3623.2,3921.5,3622.1,3921,3619.9z M4011,3665.5
				c-10,1.3-20.1,2.6-30.1,3.8c2.3,8.5,3.4,12.8,5.7,21.3c10.2-1.3,20.4-2.6,30.6-3.9C4014.7,3678.3,4013.5,3674,4011,3665.5z"/>
		</g>
		<g>
			<path class="st3" d="M4242.2,3685.7l-0.1-0.3l-80.6-163.2l-0.3-0.5c-16.6-26.3-55.6-19.9-58.7-19.3l-97.6,14
				c6.5-7.5,10-15.2,10.3-23c0.6-14.1-9.4-22.8-9.8-23.2l-0.1-0.1c-14.4-11.8-54.5-7.8-63.1-6.8l-9.7-2.5c-15.4-5.9-60-7.6-65.1-7.7
				l-0.3,0l-0.3,0c-49.2,2.9-86.7-6.6-99.8-12c-20.8-8.6-39.6-7.9-42.6-7.8l-120.4-5.3c-37-2.2-62,19.3-69.3,26.5l-199.5-17.5
				c-3.3-0.3-6.2,2.2-6.5,5.5c-0.3,3.3,2.2,6.2,5.5,6.5l205.4,18l2-2.3c0.2-0.3,24.1-27,61.9-24.7l121.2,5.4l0.4,0
				c0.2,0,17.9-1.2,37.5,6.9c1.6,0.7,40.5,16.6,104.8,12.9c13.5,0.5,50.1,2.6,61.1,7l13,3.4l1.1-0.1c16.8-2.1,46.5-2.9,55.1,4
				c0.4,0.4,5.9,5.6,5.6,13.5c-0.4,8.5-7.4,17.9-20.3,27.2c-6.1,2.4-56.4,21.5-90,12l-1.5-0.4l0,0c-10.1-15.9-4.2-40.5-4.1-40.7
				c0.8-3.2-1.2-6.5-4.4-7.3c-3.2-0.8-6.5,1.2-7.3,4.4c-0.3,1.2-6.4,26.5,3.6,46.4c-7.8,1.5-19.5,3.6-23.2,3.6l-0.2,0
				c-1.9,0.1-46.5,1.3-67.1,8.6c-11,3-40.5,10.7-48.8,11.4l-54.7,5.9l-0.6,0.2c-0.3,0.1-27.9,9.5-49.5,6.8c-2.1-0.3-4.1,0.6-5.4,2.2
				l-13.4,0.8l-0.2,0c-27.4,2.4-40.6,14.9-46.8,25c-14.4,1.1-28.2-1-40.9-6.3c-10.3-4.3-16-9.2-16.1-9.3c-2.5-2.2-6.3-1.9-8.5,0.5
				c-2.2,2.5-2,6.3,0.5,8.5c1,0.9,21.9,19,57.6,19c0.7,0,1.4,0,2.2,0c-0.1,0.4-0.1,0.7-0.2,0.8l0,0.2l-16.9,159.4
				c-4.1,6.5-6.9,12.2-8.6,17.3c-19.5-14.5-43.6-43-43.8-43.3l-66.4-65.1l-91.3-16.5c-3.3-0.6-6.4,1.6-7,4.8c-0.6,3.3,1.6,6.4,4.8,7
				l87.7,15.8l63.1,61.9c2.7,3.2,29.5,34.6,50.4,48.3c-0.2,8.1,2.4,13,3.6,14.8c26.1,51.3,66,72,69.5,73.7
				c33.5,18.9,62.4,22.9,63.6,23l0.6,0.1l0.6,0c18.4-1.1,31.3-5.9,38.5-14.1c1.9-2.2,3.2-4.4,4.1-6.4c19,6.6,37.8,13.2,39.4,13.8
				c1.7,0.7,4.6,1,8.6,1c3.1,0,7-0.2,11.5-0.6l0.5-0.1c25.5-4.2,37-16.1,42.2-25.4c2-3.6,3.2-7,4-10c9.4,5.4,18.9,9.4,26.3,9.4
				c0.3,0,0.6,0,0.8,0l0.4,0c2.1-0.2,52.3-5.9,73-28.9l0.1-0.1c0.3-0.4,6.5-7.6,10.4-20.6c6.4,8.1,16.3,16,31.4,21.9l0.9,0.3
				l0.9,0.1c0.3,0,1,0.1,1.9,0.1c2.2,0,5.9-0.2,8.9-1.4c0.2-0.1,0.6-0.2,1-0.3c3.3-1,6.3-2.1,9-3.4c-1,1.5-1.3,3.5-0.6,5.4
				c0.9,2.4,3.2,3.9,5.6,3.9c0.7,0,1.4-0.1,2.1-0.4c0.4-0.2,9.9-3.8,19.5-11.7c13-10.8,19.9-24.4,19.9-39.4c0-3.3-2.7-6-6-6
				s-6,2.7-6,6c0,17.2-12.3,28.4-21.6,34.5c12.6-10,17.9-23.1,19.9-33.9c0.5-2,3.4-15.4-0.7-29l84.2-11.7l87.3-12.1
				c14-1.3,28.8-7.6,29.4-7.9l0.1-0.1c15.2-6.9,23.7-19.7,24.6-36.9C4246,3696.6,4242.3,3686.2,4242.2,3685.7z M3846.8,3754.5
				c-9.6-5.4-52.9-28.1-78.6-15.3c-10.8,5.5-28.7,20.9-29.8,43.3l-8.8-7.5c-7.3-11.9-38.6-33.2-46.7-38.6c-1.7-2-3.6-4.1-5.7-6.2
				c0-0.2,0.1-0.5,0.1-0.7l5.2-139.3l278-41.2l135.6-18.1l73,179.6L3846.8,3754.5z M3792.1,3558l0.4-0.1c18.4-6.5,61.6-7.9,63.6-7.9
				c6.7,0,25.5-3.8,27.6-4.3l3.3-0.8c0.9,0.6,2,0.8,3.1,0.8c1.3,0,2.5-0.4,3.6-1.2c2.4,0.5,4.9,0.9,7.4,1.3l-147.7,21.9
				C3768.3,3564.5,3789,3558.8,3792.1,3558z M3687.7,3575.5l46.1-5l-61.4,9.1C3680,3578,3685.8,3576.2,3687.7,3575.5z
				 M3567.4,3691.9c0.8,7.9,5.3,12,9.2,14.2c4.6,2.5,10.8,3.7,19.4,3.7c16.8,0,33.4-14.7,33.4-29.6c0-13.7-9.5-20.6-28.4-20.6
				c-14.2,0-28.6,10.9-32.6,23.3l7.3-69.3c0.1-0.5,0.5-2.3,1.6-4.6c1.2-1,2-2.5,2.2-4.1c4.7-7.4,15.1-17.2,37.5-19.2l20.7-1.2
				c1.3-0.1,2.4-0.5,3.3-1.3c0.8,0,1.5,0,2.3,0c9.7,0,19.6-1.5,27.6-3.2l-5.2,141c-6.7-4.3-14.4-7.4-23-7.8
				c-9.7-0.5-16.4,2.7-18.5,3.8c-21.1,8.1-28.9,24-31.7,36c-0.7,3-1.1,6-1.4,8.7c-11.8-5.1-22.8-3.5-31.1,0.1L3567.4,3691.9z
				 M3579.3,3689.4c0-7.5,10.9-17.9,21.7-17.9c16.4,0,16.4,5.2,16.4,8.6c0,7.5-10.6,17.6-21.4,17.6
				C3579.3,3697.7,3579.3,3692.7,3579.3,3689.4z M3673.6,3901c-3.5-0.6-23.8-4.1-48.3-16.1c8.3-1.6,22.7-6.9,29.4-24.5
				c1.2-3.1-0.4-6.6-3.5-7.7c-3.1-1.2-6.6,0.4-7.7,3.5c-6.4,17-23.5,17.4-24.3,17.4c-3,0-5.4,2.2-5.9,5
				c-6.6-3.6-40.9-23.9-63.3-68.2l-0.1-0.4l-0.5-0.5c-0.3-0.5-1.6-2.8-1.5-7.3c0.1-4.9,1.8-13.1,9.4-24.9c2.7-2.3,16.6-13.2,34-2
				c0.1,1,0.2,1.6,0.3,1.7l0.3,1.6l61.3,72.7l0.4,0.5l0.5,0.4c13.4,10.4,39.4,32,39.6,32.2l0.8,0.7l1,0.4c3,1,6.1,2.1,9.4,3.3
				C3702.5,3893.4,3694.1,3899.6,3673.6,3901z M3808.1,3875.5c-5.6,10-16.9,16.6-33.5,19.4c-5.5,0.5-12.7,0.7-14.6,0.3
				c-4.4-1.7-50.2-17.6-59.3-20.8c-0.2-0.2-0.5-0.4-0.8-0.7c34-11,37.1-32.8,38.5-42.4c0.1-0.8,0.2-1.7,0.4-2.3
				c1.4-1.7,1.8-4.1,0.9-6.2c-1.3-3-4.8-4.5-7.9-3.2c-4.1,1.8-4.7,5.9-5.3,10c-1.3,9.2-3.7,26.3-36.7,34.5c-0.4,0.1-0.7,0.2-1.1,0.4
				c-8.4-6.9-19.2-15.7-26.6-21.5l-49.3-58.4c0.2-0.7,0.3-1.5,0.2-2.2c-0.1-0.6-1.9-14.2,9-24.7l0.2-0.2c3.3-3.5,14.1-12.7,21.7-11
				l32.1,31.6c-2.3,7.8-10.5,30.5-29.4,30.5c-2.8,0-5,2.2-5,5s2.2,5,5,5c12.9,0,24-7.3,31.9-21c5.7-9.8,7.9-19.5,7.9-20l0.6-2.7
				l-37.7-37.2l-1-0.4c-14.9-5.4-31,10.9-33.2,13.2c-7.7,7.5-10.7,16.2-11.7,22.8l-0.1-0.1c-0.8-6.8-2.4-34.8,25.6-45.3l0.5-0.2
				l0.5-0.3c0.8-0.5,20.5-11.5,44.5,17.4l0.6,0.7l0.7,0.5c16.2,10.7,40.6,28.9,44,35.6l0.5,1.1l21.5,18.2c0.9,0.8,2,1.2,3.1,1.4
				c7.1,9.2,21.9,27.3,37.7,39.7c2.7,2.4,14.9,13,29.1,22.5C3811.3,3867,3810.5,3871.1,3808.1,3875.5z M3914.1,3843.8
				c-9,9.9-25.4,16.1-39.6,19.9c7.7-6.5,14.4-16.1,17.1-30.1c0.6-3.3-1.5-6.4-4.7-7c-3.2-0.6-6.4,1.5-7,4.7
				c-6.1,30.9-34.2,32-35.5,32.1c-2.2,0-4.1,1.3-5.1,3c-14.7-6-36.2-22.3-48.8-33.4l-0.3-0.2c-13.5-10.6-26.6-26.1-33.9-35.3
				c-0.1-0.4-0.3-0.8-0.5-1.1c0.7-1.3,3.6-5.7,12.4-13.8c13.9-12.8,23.7-11.4,26.4-10.7l28.7,31.7c-9.5,14.7-26.1,22-26.4,22.1
				c-2.5,1.1-3.7,4-2.7,6.5c0.8,1.9,2.7,3.1,4.6,3.1c0.6,0,1.3-0.1,1.9-0.4c0.9-0.4,22.4-9.6,33.1-29.6l1.7-3.1l-35-38.7l-0.9-0.4
				c-6.1-2.9-21.1-3.5-38.2,12.2c-3.9,3.6-7.9,7.5-10.8,11.2c-1.2-23.4,22.2-35.9,23.2-36.4c18.6-9.3,56,8.3,68.8,15.9c0,0,0,0,0,0
				c0,0,0,0,0,0l0.2,0.1c4.4,2.3,10.5,7,16.5,12c0.7,1.2,1.8,2.1,3.1,2.6c8.5,7.2,15.9,14.2,16,14.3l1.7,1.6h2.4
				c2.5,0,8.4,1.2,11.5,1.9c3,0.7,5.9-0.9,7-3.7l21.2-3.5c-0.5,4.9-0.5,11.5,1.2,18.8c0.3,1.3,0.7,2.7,1.2,4.2
				C3923,3832.6,3914.6,3843.2,3914.1,3843.8z M4008.6,3803.9l-0.1,0.4c-3.3,18.1-14.6,30.2-33.6,35.9c-0.8,0.2-1.4,0.4-1.9,0.6
				c-1,0.4-3.1,0.6-4.7,0.5c-37-14.7-35.4-43-33.8-52.1l4.6-0.8c2.1,2.2,5.6,2.5,8.1,0.6c9.4-7.4,26.2-9.8,26.3-9.8
				c18.7-2.4,30.1,0.1,34.5,1.4C4011.5,3791.9,4008.6,3803.8,4008.6,3803.9z M4233.3,3708.7c-0.7,12.4-6.6,21.3-17.5,26.2
				c-0.9,0.4-14.2,5.9-25.9,7l-87.7,12.2l-91.4,12.7c-1.2,0.2-2.3,0.7-3.1,1.4c-7-1.6-18.9-3-35.7-0.8c-0.7,0.1-15,2.1-26.7,8.7
				c-0.9-0.3-1.9-0.4-3-0.3l-54.7,9c-0.2,0-0.3,0.1-0.5,0.1c-0.7-0.1-1.4-0.2-2.1-0.2c-1.4-1.3-3.5-3.3-6.1-5.6l297-39.6
				c24-2.8,40.7-11.1,49.5-24.8c6.8-10.6,6.1-20.2,5.9-21.3c-0.3-3.3-3.3-5.7-6.6-5.4c-3.3,0.3-5.7,3.2-5.4,6.5
				c0.1,1.1,1.6,27.6-44.9,33l-307.7,41c-1.7-1.4-3.3-2.7-5-4l324.3-44.2l-82.3-202.5l-126.3,16.9c5.9-2,9.7-3.5,10.5-3.9
				c0.2,0,0.5,0,0.7-0.1l115.6-16.6l0.2,0c0.3-0.1,33.6-5.9,46.3,13.6l80.1,162.2C4231.5,3691.7,4233.9,3699.6,4233.3,3708.7z"/>
			<path class="st3" d="M3612.9,3817.7l-29.1-35.6h-2.4c-11.1,0-19.5,3-24.8,9c-6.8,7.6-5.7,17.2-5.7,17.6c0.3,2.7,2.8,4.7,5.5,4.4
				c2.7-0.3,4.7-2.8,4.4-5.5c0-0.1-0.5-5.6,3.3-9.9c3-3.3,8-5.2,14.9-5.5l23.8,29.1c-0.2,2.4-1.2,7-4.8,10
				c-4.1,3.4-10.7,4.3-19.7,2.4c-2.7-0.6-5.3,1.2-5.9,3.9c-0.6,2.7,1.2,5.3,3.9,5.9c3.8,0.8,7.3,1.2,10.5,1.2
				c7.2,0,13.1-1.9,17.6-5.7c8.7-7.4,8.4-19,8.4-19.5L3612.9,3817.7z"/>
		</g>
	</g>
	<g class="st1">
		<defs>
			<rect id="SVGID_1_" width="900" height="300"/>
		</defs>
		<clipPath id="SVGID_2_">
			<use xlink:href="#SVGID_1_"  style="overflow:visible;"/>
		</clipPath>
		<rect x="-9.8" y="-12.2" class="st4" width="917.7" height="320.7"/>
		<g class="st5">
			<path class="st2" d="M18.5-1.4l164.9,82c0,0,13.1-11,30.9-5.6l60.4,15.9l20.9,12.1c0,0,58.7,15,64.6,20.7c0,0,35.1,0.8,28,19.9
				l-10.4,10.3l53.1,4.2c0,0,21.1,2.3,21.7,21.9l17.1,71.2c0,0,2.7,21-20.7,21.9l-84.5-7.5c0,0-2.4,30.1-28.1,28.9
				c0,0-13-8.2-14.3-16.2c0,0-4.7,19.4-39.4,17.1c0,0-9-3.9-15-8.9c0,0-8.7,18.1-28.9,11.7l-19.5-12.4c0,0-8.8,7.6-21.8,5
				c0,0-21.7-12-30.1-21.3c0,0-16.8-25.7-16.8-39.3l-1.3-3.7l-24.7-38.6l-12.7-19.2L-3.9,116.3L17.9,0.9L18.5-1.4z"/>
			<g>
				<path class="st3" d="M384.6,235.8c-29.1-2.8-58.2-5.6-87.3-8.4c1.2-20.3,2.4-40.5,3.6-60.8c26.2,2.3,52.4,4.5,78.6,6.8
					C381.2,194.2,382.9,215,384.6,235.8z M303.3,223.9c25,2.4,50.1,4.8,75.1,7.2c-1.3-18-2.6-36-3.9-54c-22.9-2-45.8-4-68.6-6
					C305.1,188.7,304.2,206.3,303.3,223.9z M371.8,192.1c-5.7-0.5-11.4-1-17.2-1.5c-0.2-4.4-0.3-8.7-0.5-13.1
					c5.6,0.5,11.2,1,16.8,1.5C371.2,183.3,371.5,187.7,371.8,192.1z M359.8,186.9c2.5,0.2,3.8,0.3,6.3,0.6c-0.1-1.9-0.2-2.9-0.3-4.8
					c-2.5-0.2-3.7-0.3-6.2-0.6C359.7,184,359.7,185,359.8,186.9z M325.4,187.9c-5.7-0.5-11.4-1-17.2-1.5c0.2-4.3,0.4-8.6,0.6-12.9
					c5.6,0.5,11.2,1,16.8,1.5C325.5,179.3,325.4,183.6,325.4,187.9z M313.8,182.8c2.5,0.2,3.8,0.3,6.3,0.6c0-1.9,0.1-2.9,0.1-4.8
					c-2.5-0.2-3.7-0.3-6.2-0.6C313.9,179.9,313.8,180.9,313.8,182.8z M324.8,224.2c-6.1-0.6-12.2-1.2-18.3-1.7
					c0.2-4.3,0.4-8.6,0.6-12.9c6,0.6,11.9,1.1,17.9,1.7C325,215.6,324.9,219.9,324.8,224.2z M312.5,219c2.7,0.3,4,0.4,6.7,0.6
					c0-1.9,0.1-2.9,0.1-4.8c-2.7-0.3-4-0.4-6.6-0.6C312.6,216.1,312.6,217.1,312.5,219z M319.8,195.7c-1.5-0.1-2.2-0.2-3.7-0.3
					c0.1-2.4,0.1-3.5,0.2-5.9c-3.3-0.3-4.9-0.4-8.2-0.7c-0.1,2.6-0.2,3.9-0.3,6.5c1.7,0.2,2.6,0.2,4.3,0.4c0,0,0,0,0,0.1
					c-0.1,2.4-0.1,3.5-0.2,5.9c0,0,0,0,0,0.1c-1.7-0.2-2.6-0.2-4.3-0.4c-0.1,2.6-0.2,3.9-0.3,6.5c3.4,0.3,5.1,0.5,8.5,0.8
					c0.1-2.4,0.1-3.5,0.2-5.9c1.5,0.1,2.2,0.2,3.7,0.3c-0.1,2.4-0.1,3.5-0.1,5.9c3.4,0.3,5.1,0.5,8.5,0.8c0-2.6,0-3.9,0.1-6.5
					c-1.7-0.2-2.6-0.2-4.3-0.4c0,0,0,0,0-0.1c0-2.4,0.1-3.6,0.1-5.9c0,0,0,0,0-0.1c1.7,0.2,2.6,0.2,4.3,0.4c0-2.6,0-3.9,0.1-6.5
					c-3.3-0.3-4.9-0.4-8.2-0.7C319.9,192.1,319.9,193.3,319.8,195.7z M368.2,200.7C368.2,200.7,368.2,200.7,368.2,200.7
					c1.7,0.1,2.6,0.2,4.3,0.3c-0.2-2.6-0.3-4-0.4-6.6c-3.3-0.3-4.9-0.4-8.2-0.7c0.1,2.4,0.2,3.6,0.3,6c-1.5-0.1-2.2-0.2-3.7-0.3
					c-0.1-2.4-0.2-3.6-0.3-6c-3.3-0.3-4.9-0.4-8.2-0.7c0.1,2.6,0.1,3.9,0.2,6.6c1.7,0.2,2.6,0.2,4.3,0.4c0,0,0,0,0,0.1
					c0.1,2.4,0.1,3.6,0.2,6c0,0,0,0,0,0.1c-1.7-0.2-2.6-0.2-4.3-0.4c0.1,2.6,0.1,3.9,0.2,6.6c3.4,0.3,5.1,0.5,8.5,0.8
					c-0.1-2.4-0.2-3.6-0.3-6c1.5,0.1,2.2,0.2,3.7,0.3c0.1,2.4,0.2,3.6,0.3,6c3.4,0.3,5.1,0.5,8.5,0.8c-0.2-2.6-0.3-4-0.4-6.6
					c-1.7-0.2-2.6-0.2-4.3-0.4c0,0,0,0,0-0.1C368.4,204.3,368.3,203.1,368.2,200.7z M350.1,186.9c-2.4-0.2-3.7-0.3-6.1-0.5
					c0-1.1,0-1.7,0-2.8c2.4,0.2,3.7,0.3,6.1,0.5c-0.1-2.5-0.1-3.7-0.2-6.2c-2.6-0.2-4-0.3-6.6-0.6c0,1.3,0,1.9,0.1,3.2
					c0,0,0,0-0.1,0c-2.4-0.2-3.6-0.3-6.1-0.5c0,0,0,0-0.1,0c0-1.3,0-1.9,0-3.2c-2.6-0.2-4-0.3-6.6-0.6c0,2.5,0,3.7,0,6.2
					c2.4,0.2,3.7,0.3,6.1,0.5c0,1.1,0,1.6,0,2.7c-2.4-0.2-3.7-0.3-6.1-0.5c0,2.2,0,3.3,0,5.6c-0.1,0-0.1,0-0.2,0c0,2.6,0,3.9,0,6.5
					c1.7,0.2,2.6,0.2,4.3,0.4c0,0,0,0,0,0.1c0,2.4,0,3.6,0,5.9c0,0,0,0,0,0.1c-1.7-0.2-2.6-0.2-4.3-0.4c0,2.6,0,3.9,0,6.5
					c0.1,0,0.1,0,0.2,0c0,2.2,0,3.3,0,5.6c2.6,0.2,3.9,0.4,6.4,0.6c0,1.1,0,1.6,0,2.7c-2.6-0.2-3.9-0.4-6.5-0.6c0,2.5,0,3.7,0,6.2
					c2.9,0.3,4.3,0.4,7.2,0.7c0-1.3,0-1.9,0-3.2c0,0,0,0,0.1,0c2.6,0.2,3.9,0.4,6.5,0.6c0,0,0,0,0.1,0c0,1.3,0,1.9,0.1,3.2
					c2.9,0.3,4.3,0.4,7.2,0.7c-0.1-2.5-0.1-3.7-0.2-6.2c-2.6-0.2-3.9-0.4-6.5-0.6c0-1.1,0-1.7,0-2.8c2.6,0.2,3.9,0.4,6.4,0.6
					c-0.1-2.2-0.1-3.4-0.2-5.6c0,0,0,0,0,0c-0.1-2.6-0.1-3.9-0.2-6.5c-1.7-0.2-2.6-0.2-4.3-0.4c0,0,0,0,0-0.1
					c-0.1-2.4-0.1-3.6-0.1-6c0,0,0,0,0-0.1c1.7,0.2,2.6,0.2,4.3,0.4c-0.1-2.6-0.1-3.9-0.2-6.5c0,0,0,0,0,0
					C350.2,190.3,350.2,189.1,350.1,186.9z M343.8,213.6C343.8,213.6,343.8,213.6,343.8,213.6c-2.6-0.2-3.9-0.4-6.5-0.6
					c0,0,0,0-0.1,0c0-1,0-1.5,0-2.5c0.5,0,0.8,0.1,1.3,0.1c0-2.4,0-3.6,0-5.9c1.5,0.1,2.2,0.2,3.7,0.3c0,2.4,0.1,3.6,0.1,5.9
					c0.6,0.1,0.9,0.1,1.5,0.1C343.8,212.1,343.8,212.6,343.8,213.6z M337.1,188.8C337.1,188.8,337.1,188.8,337.1,188.8
					c2.5,0.2,3.8,0.3,6.2,0.6c0,0,0,0,0.1,0c0,1,0,1.5,0,2.5c-0.6-0.1-0.9-0.1-1.4-0.1c0,2.4,0.1,3.6,0.1,5.9
					c-1.5-0.1-2.2-0.2-3.7-0.3c0-2.4,0-3.6,0-5.9c-0.5,0-0.8-0.1-1.3-0.1C337.1,190.3,337.1,189.8,337.1,188.8z M372.3,217.8
					c-4.6-0.4-9.1-0.9-13.7-1.3c0.2,4,0.2,6,0.4,10c4.6,0.4,9.3,0.9,13.9,1.3C372.7,223.8,372.6,221.8,372.3,217.8z"/>
			</g>
			<g>
				<path class="st3" d="M472.3,249.6l0-0.2l-19.4-80l-0.1-0.3c-4.7-13.2-22.6-14.3-24-14.3l-44.5-3.5c3.6-2.7,5.9-5.7,6.8-9.1
					c1.7-6.2-1.9-11-2-11.2l0,0c-5.2-6.6-23.3-8.9-27.2-9.3l-4.1-2.1c-6.2-4.1-25.7-9.3-27.9-9.9l-0.1,0l-0.1,0
					c-22-3.6-37.6-11.5-42.8-15.2c-8.3-5.8-16.7-7.4-18-7.6l-52.6-14.3C200.2,68,187,75,183.1,77.5L18.5-4.5c-1.4-0.5-3,0.3-3.4,1.8
					c-0.5,1.4,0.3,3,1.8,3.4L184,83.5l1.1-0.8c0.1-0.1,13.3-9.5,29.7-4.8l52.9,14.4l0.2,0c0.1,0,8,1.2,15.9,6.7
					c0.6,0.5,16.2,11.3,45,16.1c5.9,1.5,21.8,6.1,26.3,9.2l5.4,2.8l0.5,0c7.6,0.7,20.8,3.3,23.9,7.2c0.2,0.2,2.1,3,1.1,6.5
					c-1,3.7-5,7.2-11.7,10c-2.9,0.5-27,3.9-40.9-3.6l-0.6-0.3l0,0c-2.9-8,2.2-18.3,2.2-18.4c0.7-1.3,0.1-3-1.2-3.6
					c-1.3-0.7-3-0.1-3.6,1.2c-0.3,0.5-5.5,11.1-3,20.9c-3.6-0.1-8.9-0.3-10.6-0.7l-0.1,0c-0.8-0.2-20.6-4-30.5-2.9
					c-5.1,0.2-18.9,0.7-22.7,0.2l-24.7-2.8l-0.3,0c-0.1,0-13.3,1.4-22.5-1.9c-0.9-0.3-1.9-0.1-2.6,0.4l-6-1l-0.1,0
					c-12.3-1.6-19.4,2.6-23.1,6.4c-6.5-0.9-12.3-3.2-17.4-6.8c-4.1-2.9-6.1-5.7-6.2-5.7c-0.9-1.2-2.6-1.5-3.8-0.6
					c-1.2,0.9-1.5,2.6-0.6,3.8c0.3,0.5,7.8,10.5,23.5,14.1c0.3,0.1,0.6,0.1,1,0.2c-0.1,0.2-0.1,0.3-0.1,0.3l0,0.1l-23.2,68.7
					c-2.5,2.4-4.2,4.7-5.5,6.8c-7.2-8.3-15-23.3-15.1-23.5l-22.8-35.3L-3.3,113.7c-1.4-0.6-3,0.1-3.6,1.4c-0.6,1.4,0.1,3,1.4,3.6
					L110,170.9l21.7,33.6c0.9,1.7,9.6,18.2,17.4,26.3c-0.9,3.6-0.2,6,0.1,6.9c6.4,25.2,22,38.3,23.4,39.4
					c12.9,11.7,25.3,16.3,25.8,16.5l0.2,0.1l0.3,0c8.2,1.3,14.4,0.5,18.4-2.4c1.1-0.8,1.9-1.6,2.4-2.4c7.7,4.8,15.4,9.6,16,10
					c0.7,0.5,1.9,0.9,3.7,1.3c1.4,0.3,3.1,0.6,5.1,0.9l0.2,0c11.7,0.6,17.9-3.5,21.1-7c1.2-1.4,2.1-2.8,2.8-4
					c3.6,3.3,7.4,6,10.7,6.7c0.1,0,0.2,0.1,0.4,0.1l0.2,0c1,0.1,23.6,2.6,35.1-5.5l0.1,0c0.2-0.1,3.6-2.7,6.6-8.1
					c2,4.2,5.6,8.7,11.7,12.8l0.3,0.2l0.4,0.1c0.1,0,0.4,0.1,0.8,0.2c1,0.2,2.6,0.5,4,0.3c0.1,0,0.3,0,0.5,0c1.5-0.1,3-0.3,4.3-0.6
					c-0.6,0.6-0.9,1.4-0.8,2.3c0.2,1.1,1,2,2.1,2.3c0.3,0.1,0.6,0.1,1,0c0.2,0,4.8-0.7,9.7-3.3c6.8-3.5,11.2-8.8,12.7-15.4
					c0.3-1.5-0.6-2.9-2.1-3.2c-1.5-0.3-2.9,0.6-3.2,2.1c-1.7,7.6-8.3,11.3-12.9,13.1c6.6-3.2,10.2-8.4,12.1-13
					c0.4-0.8,3-6.5,2.6-12.8l38.3,3.2l39.7,3.3c6.3,0.8,13.5-0.5,13.8-0.6l0.1,0c7.4-1.5,12.4-6.3,14.5-13.9
					C472.9,254.8,472.4,249.9,472.3,249.6z M291.1,240.8c-3.7-3.3-20.6-17.6-33.2-14.5c-5.3,1.4-14.7,6.4-17.4,16.2l-3.1-4.2
					c-2.1-6-13.7-18.5-16.8-21.6c-0.6-1.1-1.2-2.2-1.9-3.3c0-0.1,0.1-0.2,0.1-0.3l16.1-61l126.8,9.3l61.6,5.4l14.4,86.5L291.1,240.8
					z M286.4,148.7l0.2,0c8.8-1.1,28,2.6,28.8,2.8c3,0.6,11.6,0.8,12.6,0.9l1.5,0c0.4,0.3,0.8,0.6,1.3,0.7c0.6,0.1,1.1,0.1,1.7-0.2
					c1,0.5,2.1,0.9,3.1,1.3l-67.4-5C275.2,149.2,284.9,148.8,286.4,148.7z M238.6,146.1l20.8,2.4l-28-2.1
					C234.9,146.4,237.7,146.2,238.6,146.1z M174,185.5c-0.4,3.6,1.2,5.8,2.6,7.2c1.8,1.6,4.4,2.7,8.2,3.6c7.4,1.7,16.2-3.2,17.7-9.8
					c1.4-6-2.2-10-10.5-11.9c-6.3-1.4-13.7,2-16.7,7.1l10.1-29.8c0.1-0.2,0.5-0.9,1.1-1.9c0.6-0.3,1.1-0.9,1.4-1.6
					c2.8-2.8,8.4-6.1,18.4-4.8l9.3,1.5c0.6,0.1,1.1,0,1.6-0.2c0.3,0.1,0.7,0.2,1,0.2c4.3,1,8.8,1.3,12.5,1.3l-16.3,61.7
					c-2.5-2.6-5.6-4.7-9.4-5.7c-4.2-1.2-7.5-0.4-8.5-0.1c-10.1,1.5-15.1,7.7-17.5,12.7c-0.6,1.3-1.1,2.5-1.5,3.7
					c-4.7-3.4-9.7-3.8-13.7-3L174,185.5z M179.4,185.6c0.7-3.3,6.6-6.8,11.3-5.8c7.2,1.6,6.7,3.9,6.4,5.4c-0.7,3.3-6.4,6.7-11.2,5.7
					C178.6,189.3,179.1,187.1,179.4,185.6z M200.1,288.3c-1.5-0.6-10.1-4.2-19.7-11.9c3.8,0.1,10.7-0.8,15.4-7.9
					c0.8-1.3,0.5-2.9-0.8-3.8c-1.3-0.8-2.9-0.5-3.8,0.8c-4.5,6.9-12.1,5.4-12.4,5.3c-1.3-0.3-2.6,0.4-3.1,1.6
					c-2.6-2.2-15.7-14.6-21.2-36.4l0-0.2l-0.2-0.3c-0.1-0.2-0.4-1.4,0.1-3.4c0.5-2.1,2.1-5.6,6.6-10.1c1.4-0.8,8.6-4.2,15.2,2.5
					c0,0.5-0.1,0.7-0.1,0.8l0,0.7l19.9,38.2l0.1,0.3l0.2,0.2c4.9,5.9,14.2,18,14.3,18.1l0.3,0.4l0.4,0.3c1.2,0.7,2.5,1.5,3.8,2.4
					C213.6,287.8,209.3,289.8,200.1,288.3z M262,290.4c-3.5,3.9-9.1,5.6-16.7,5.2c-2.5-0.3-5.7-0.9-6.5-1.3
					c-1.8-1.2-20.4-12.8-24.1-15.1c-0.1-0.1-0.2-0.2-0.3-0.4c16.1-1.5,19.6-10.8,21.2-14.9c0.1-0.3,0.3-0.7,0.4-1
					c0.8-0.6,1.2-1.6,1-2.7c-0.3-1.5-1.7-2.4-3.2-2.2c-2,0.4-2.7,2.2-3.3,3.9c-1.5,3.9-4.3,11.3-19.6,11.6c-0.2,0-0.3,0-0.5,0.1
					c-3-3.9-6.9-8.8-9.6-12.1l-16-30.7c0.2-0.3,0.3-0.6,0.3-1c0-0.3,0.6-6.5,6.4-10l0.1-0.1c1.8-1.2,7.5-4.2,10.7-2.7l11,17.1
					c-1.8,3.2-7.7,12.4-16,10.5c-1.2-0.3-2.4,0.5-2.7,1.7c-0.3,1.2,0.5,2.4,1.7,2.7c5.7,1.3,11.3-0.8,16.2-6.1
					c3.5-3.8,5.4-7.8,5.5-8l0.5-1.1l-13-20.2l-0.4-0.3c-6.1-3.9-14.8,1.7-16,2.5c-4.2,2.5-6.3,6.1-7.4,8.9l0,0
					c0.3-3.1,2.4-15.6,15.8-17.4l0.2,0l0.3-0.1c0.4-0.1,10.2-3,17.9,12.1l0.2,0.4l0.3,0.3c6.1,6.3,15.1,16.8,15.9,20.1l0.1,0.5
					l7.7,10.2c0.3,0.4,0.8,0.7,1.2,0.9c2.2,4.7,7,14.2,12.7,21.3c1,1.3,5.3,7.2,10.6,12.8C264.3,287,263.5,288.7,262,290.4z
					 M311.9,286.9c-4.9,3.5-12.8,4.6-19.4,4.9c4-2.1,7.9-5.7,10.5-11.6c0.6-1.4,0-3-1.4-3.6c-1.4-0.6-3,0-3.6,1.4
					c-5.8,13-18.3,10.7-18.9,10.6c-1-0.2-1.9,0.2-2.5,0.8c-5.9-4.1-13.8-13.4-18.2-19.6l-0.1-0.1c-4.9-6-9.1-14.1-11.5-18.9
					c0-0.2,0-0.4-0.1-0.5c0.4-0.5,2.2-2.2,6.8-4.9c7.4-4.3,11.6-2.7,12.7-2.1l9.5,16.8c-5.6,5.6-13.7,7.1-13.9,7.1
					c-1.2,0.2-2,1.4-1.8,2.6c0.2,0.9,0.9,1.6,1.7,1.8c0.3,0.1,0.6,0.1,0.9,0c0.4-0.1,10.8-2,17.6-9.8l1-1.2l-11.6-20.5l-0.4-0.3
					c-2.4-1.9-9-3.6-18,1.6c-2.1,1.2-4.2,2.5-5.9,3.9c1.8-10.4,13.4-13.6,13.8-13.8c9.1-2.3,23.9,9.2,28.8,13.9c0,0,0,0,0,0
					c0,0,0,0,0,0l0.1,0.1c1.7,1.5,4,4.2,6.1,6.9c0.2,0.6,0.6,1.1,1.1,1.4c3,4,5.6,7.8,5.6,7.9l0.6,0.9l1.1,0.2
					c1.1,0.2,3.6,1.3,4.9,2c1.2,0.6,2.7,0.2,3.4-0.9l9.7,0.6c-0.7,2.1-1.3,5-1.3,8.4c0,0.6,0,1.3,0.1,1.9
					C317,282.8,312.2,286.7,311.9,286.9z M357.6,278.7l-0.1,0.2c-3.3,7.7-9.4,11.9-18.4,12.5c-0.4,0-0.7,0-0.9,0.1
					c-0.5,0.1-1.4-0.1-2.1-0.2c-14.9-10.2-11.4-22.5-9.8-26.3l2.1,0.1c0.7,1.2,2.2,1.7,3.5,1.1c4.9-2.3,12.5-1.7,12.6-1.7
					c8.5,0.8,13.3,3,15.1,4C360.1,273.6,357.6,278.6,357.6,278.7z M466.2,258.9c-1.5,5.4-5,8.7-10.3,9.8c-0.5,0.1-6.8,1.2-12.1,0.5
					l-39.9-3.3l-41.6-3.4c-0.6,0-1.1,0.1-1.5,0.3c-2.9-1.4-8-3.2-15.7-3.9c-0.3,0-6.8-0.6-12.6,1.2c-0.4-0.2-0.8-0.4-1.3-0.4
					l-25-1.4c-0.1,0-0.1,0-0.2,0c-0.3-0.1-0.6-0.2-0.9-0.3c-0.5-0.7-1.2-1.8-2.2-3.1l135,12c10.9,1.2,19.1-0.9,24.3-6
					c4-4,4.7-8.3,4.7-8.8c0.2-1.5-0.9-2.9-2.4-3c-1.5-0.2-2.8,0.9-3,2.4c-0.1,0.5-2,12.4-23.1,10.1L298.5,249
					c-0.6-0.8-1.2-1.5-1.8-2.3l147.5,12.6l-16.3-97.5l-57.4-5.1c2.8-0.3,4.6-0.6,5-0.7c0.1,0,0.2,0,0.3,0l52.7,4.1l0.1,0
					c0.2,0,15.4,0.7,19.1,10.6l19.3,79.5C467,251.2,467.3,255,466.2,258.9z"/>
				<path class="st3" d="M181.6,245.6l-9.3-18.6l-1-0.2c-4.9-1.1-8.9-0.6-11.8,1.5c-3.8,2.7-4.2,7-4.3,7.2c-0.1,1.2,0.8,2.3,2,2.5
					c1.2,0.1,2.3-0.8,2.5-2c0,0,0.3-2.5,2.4-4c1.7-1.2,4.1-1.5,7.1-1l7.6,15.2c-0.3,1-1.2,3-3.1,3.9c-2.1,1.1-5.1,0.8-8.9-0.9
					c-1.1-0.5-2.5,0-3,1.1c-0.5,1.1,0,2.5,1.1,3c1.6,0.7,3.1,1.2,4.5,1.6c3.2,0.7,6,0.5,8.3-0.8c4.6-2.4,5.6-7.6,5.6-7.8
					L181.6,245.6z"/>
			</g>
		</g>
		<g class="st5">
			<path class="st2" d="M926.7,95.4l10.3-122.9L805.8-9.6c0,0-59.8,4-96.3-2.7c0,0-25.7-6.5-43.1-14.9L599-62.1
				c0,0-12.6-4.8-30.2,5.8l-10.6,10.2l-5.1,0.9l-54.4,19c0,0-7.8,2.8-9.3,13.8l-3.8,32l-22.4,26.3l-7,12.7l-8.5,10.7
				c0,0-11,10.8-9.1,22L403.2,129c0,0-3,2-1.2,10.3l15.3,37.9l18.9,8.5c0,0,4.6,5.4,29.6-21.7l29.1-31.5c0,0,11.4,4.1,32.4-1.5
				l61.1-22.1l38.2-3.1l14.9-2.1c0,0,40.5,4.2,70.4-13.8c0,0,33-14.4,99.9-9L926.7,95.4z"/>
			<g>
				<path class="st3" d="M927.8,92.8L818.5,78.2c-16.8-2.3-50.8-0.8-53.6-0.6c-23.3-0.9-52.9,9.6-54.2,10c-0.2,0.1-0.4,0.2-0.6,0.3
					c-31,19-66.3,12.9-66.7,12.8c-0.4-0.1-0.9-0.1-1.3,0c-4.2,1.1-21.6,2.2-28.3,2.6c-17.6-1.3-45.1,8.9-46.6,9.4l-37.7,13.3
					c-0.4,0.1-0.8,0.2-1.2,0.4c0.9-1.2,1.2-2.4,1.2-2.6c0.2-0.9-0.2-1.8-0.9-2.4c-2.3-1.9-6.7-10.5-9-15.5c-1.2-3.7-4.2-5.6-5.8-6.2
					c-0.5-0.2-1-0.2-1.5,0l-6.1,1.7c-0.1,0-0.1,0-0.2,0c-6.9,2.4-10,6.9-11.5,10.2c-1.6,3.6-1.5,6.5-1.5,6.9c0,1.4,1.2,2.6,2.7,2.5
					c1.4,0,2.6-1.2,2.5-2.7c0-0.1-0.2-8.5,9.4-11.9l5.1-1.4c0.6,0.4,1.5,1.2,2,2.7c0,0.1,0.1,0.2,0.1,0.3c0.9,2,5.1,11.1,8.7,15.7
					l-6.5,2.7c-1.3,0.5-1.9,2-1.4,3.3c-6.9,1.4-11.6,1.8-12.7,1.9c-4.2-0.5-7.2-2.2-9.1-4.8c-3.7-5.1-2.2-12.6-2.2-12.7
					c2.6-11.6,19.8-21.3,20-21.4c0.2-0.1,0.4-0.3,0.6-0.4c12.1-11.2,48.6-18.9,51-19.4c9.2-1.1,22.4-12.4,24.7-14.4
					c5.8-3.8,15.5-18.6,16.6-20.3c0.9-1.4,0.5-3.3-0.9-4.3c-1.4-0.9-3.3-0.5-4.3,0.9c-1.3,2.1-3.1,4.6-4.9,7.2
					c-0.6-8.7-0.2-21.9,0.1-27.4c0-0.3,0-0.6-0.1-1c-0.7-2.7-1.7-19.3-2.1-29.1c-0.1-1.7-1.5-3-3.2-2.9c-1.7,0.1-3,1.5-2.9,3.2
					c0.1,2.7,0.6,12.3,1.2,20.1c-1.4-0.9-2.1-1.6-2.1-1.6c-1-1.1-2.6-1.3-3.9-0.5c-4.6,2.9-12,4-16.7,4.4c0.9-3.6,0.3-6.9,0.2-7.1
					c-0.2-1.3-1.5-2.1-2.7-1.9c-1.3,0.2-2.1,1.5-1.9,2.7c0,0,0.6,3.7-0.7,6.7c-0.5,0.2-0.9,0.5-1.3,0.9
					c-9.3,10.9-28.5,20.2-34.8,23.1c-1.7-2.5-4.1-4.2-4.5-4.5c-1.1-0.7-2.6-0.4-3.3,0.7c-0.7,1.1-0.4,2.6,0.7,3.3
					c0.6,0.4,2.2,1.7,3.2,3.1L500,55.5c-6.7,6.4-11.6,7.6-12.9,7.8c-3.2-3-7.5-5-7.7-5.1c-1.2-0.6-2.6-0.1-3.1,1.1
					c-0.6,1.2-0.1,2.6,1.1,3.2c1.1,0.5,3.8,2,6,3.9c-2.8,5.2-14,24.6-28.6,27.8c-0.1,0-10.1,2-12.4-3.5c0,0,0,0,0,0
					c0-0.1-0.1-0.2-0.1-0.3c0,0,0-0.1,0-0.1c0-0.1-0.1-0.1-0.1-0.2c0,0,0,0,0,0l-1-1.3c0.4-3,2.5-12.5,12.5-21.3
					c0.3-0.2,0.5-0.5,0.7-0.9l7.6-14.1c0.3-0.6,3.3-5.1,7.7-8.6c0.2-0.1,0.3-0.3,0.4-0.4l16.8-20c0.1-0.1,0.1-0.2,0.2-0.3l2.4-2.8
					c0.2-0.2,0.3-0.4,0.4-0.6c0.1-0.2,7.8-15.6,18.9-19.9c0.3-0.1,0.6-0.3,0.8-0.5c1.9-1.5,46.6-37.7,56.5-48.9
					c1.7-1.4,18.3-14.8,33.7-9.3l69.9,35.9c1.5,0.8,24.9,13.3,60,16.1c3.7,0.3,7.6,0.5,11.6,0.6c2.4,0.2,44.8,3.3,85.4-3.3l111-13.6
					c1.7-0.2,2.9-1.7,2.7-3.4c-0.2-1.7-1.7-2.9-3.4-2.7l-111,13.7c0,0-0.1,0-0.1,0c-40.8,6.7-83.6,3.3-84,3.3c-0.1,0-0.1,0-0.2,0
					c-40.2-0.6-68.5-15.8-68.8-15.9c0,0,0,0-0.1,0l-70.1-36c-0.1-0.1-0.2-0.1-0.3-0.2c-8.2-3-17.9-2.2-27.8,2.6
					c-7.3,3.5-12.2,7.8-12.4,7.9c-0.1,0.1-0.2,0.2-0.3,0.3c-0.6,0.6-1.3,1.4-2.1,2.2c-0.2,0-0.4,0.1-0.5,0.1l-58.6,21.1
					c-1.7,0.5-12.8,4-14.2,17.5l-4.5,32.9l-16.1,19.2c-5.5,4.4-8.8,9.9-8.9,10.1c0,0-0.1,0.1-0.1,0.1l-7.3,13.7
					c-13.7,12.2-14.3,25.7-14.3,26.3c0,0.7,0.2,1.4,0.6,1.9l0.1,0.2l-35.8,36c-0.1,0.1-0.2,0.3-0.3,0.4c-0.4,0.6-2.6,3.9-1.8,7.4
					c0,0.1,0.1,0.3,0.1,0.4l12.2,32.8c0.3,1.9,1.6,9.1,6.1,11.8c0.1,0,0.2,0.1,0.2,0.1l12.1,5.9c0.1,0.1,0.3,0.1,0.4,0.2
					c0.2,0.1,2.5,0.8,5.6,1c4.4,0.4,10.7-0.1,15.7-4.4c0.1-0.1,0.1-0.1,0.2-0.2L496,136c1.9,0.8,4.1,1.4,6.5,1.7c0,0,0.1,0,0.1,0
					c0.1,0,0.3,0,0.4,0c0.5,0,11.9-0.8,28.4-5.7c0,0,0.1,0,0.1,0l37.8-13.3c0,0,0,0,0.1,0c0.3-0.1,27.9-10.4,44.2-9.1
					c0.1,0,0.3,0,0.4,0c2.4-0.1,22.6-1.3,29-2.7c5.2,0.8,39.1,5.3,70-13.6c3.1-1.1,30.7-10.4,51.7-9.6c0.1,0,0.2,0,0.3,0
					c0.4,0,36.1-1.7,52.7,0.6L927,98.9c1.7,0.2,3.2-1,3.5-2.6C930.7,94.6,929.5,93.1,927.8,92.8z M492.2-12c0,0,0-0.1,0-0.1
					c1-9.9,9.4-12.2,9.7-12.3c0.1,0,0.2-0.1,0.3-0.1L548-40.9c-15.8,14-38.9,32.7-42,35.2c-7.2,3-12.9,9.3-16.6,14.5L492.2-12z
					 M586.9,51.2c-2.2-3.2-5-6.4-7-8.4c2.3-2.1,5.4-5.7,7.2-11c0.3,0.1,0.6,0.3,0.9,0.4c0,6.2,0.3,12.6,1.1,16.6
					C588.4,49.7,587.6,50.5,586.9,51.2z M582.7,9.1c1.2,0.9,3,2.1,5.4,3.1c0.1,1,0.2,1.8,0.4,2.4c-0.1,1.4-0.3,5.6-0.4,10.8
					c-0.2-0.1-0.4-0.2-0.7-0.4c-0.4-0.4-0.9-0.8-1.5-0.9c-5.6-3.6-10.5-9.1-12.8-12C576.3,11.5,579.7,10.5,582.7,9.1z M562.1,13.5
					c1,0,2.4-0.1,4.2-0.3c0.1,0.2,0.2,0.4,0.3,0.6c0.3,0.5,6.6,9.2,15,15c-1.5,5.3-4.6,8.6-6.5,10.1c-7.1-3.5-22.6-4.9-25.9-5.2
					c-1.7-0.1-3.2,1.1-3.3,2.8c-0.1,1.7,1.1,3.2,2.8,3.3c14,1.1,22.7,3.6,24.5,5.1c1.8,1.7,6.3,6.3,8.9,10.4
					c-4.8,4-14.1,10.9-19.7,11.4c-0.1,0-0.2,0-0.3,0c-0.3,0.1-1.4,0.3-3.1,0.7c0.5-2.5,1.1-8.1-1.7-12c-0.1-0.2-0.2-0.3-0.4-0.4
					l-8-7.8c-0.1-0.1-0.3-0.3-0.4-0.4l-12.8-14.3C544.2,27.9,555.1,21.2,562.1,13.5z M403.6,133.9c0-0.6,0.4-1.6,0.7-2.2l34.8-35
					c2.6,2.7,6.3,3.6,9.6,3.9c3.8,0.3,7.1-0.4,7.4-0.4c17.3-3.8,29.6-25,32.8-30.9c2.9-0.6,8.5-2.6,15.4-9.4c0,0,0.1-0.1,0.1-0.1
					l20.1-21.9c1-0.4,3-1.3,5.7-2.6l6,6.7c-3.2,0.2-6.9,1.4-10.8,4.1c-0.2,0.1-0.3,0.2-0.5,0.4L423.8,150.2l-9.4,9.9c0,0,0,0,0,0
					c0,0-0.3,0.3-0.6,0.8L403.6,133.9z M418.9,164.3C418.9,164.3,418.8,164.4,418.9,164.3C418.8,164.4,418.8,164.4,418.9,164.3
					L418.9,164.3z M446.1,178.5c-3.5,2.9-8.2,3.2-11.4,2.9c-0.2-0.1-0.4-0.3-0.6-0.3l-4.9-1.9c-7.8-3.1-9.8-6.9-10-7.3
					c0-0.1-0.1-0.2-0.1-0.3c-2.1-4.3-0.4-6.8-0.1-7.1l9.3-9.8L529.1,51c8.7-5.8,13.9-1.2,15.1,0l0.3,0.3c0,0,0.1,0.1,0.1,0.1
					c0,0,0,0,0.1,0.1l7.9,7.7c1.2,2,0.9,5.5,0.5,7.3c-0.3-1.4-0.8-2.3-0.9-2.4c-0.1-0.1-0.2-0.3-0.3-0.4l-4.9-4.8
					c-0.1-0.1-0.1-0.1-0.2-0.2c-7.8-5.8-15.9-2.5-19.1,0.1c-0.1,0-0.1,0.1-0.2,0.1l-98.1,99.2c0,0-0.1,0.1-0.1,0.1
					c-3.6,4.4-2.4,10.1-2.3,10.4c0,0.1,0.1,0.3,0.1,0.4c3,6.2,12.2,8.6,12.6,8.7c0.1,0,0.2,0,0.3,0.1c0.9,0.1,1.7-0.5,2-1.4
					c0.3-1-0.3-2-1.4-2.3c-2.2-0.6-8.1-2.8-10-6.5c-0.1-0.9-0.5-4.3,1.5-6.9l98-99c0.8-0.6,7.3-5.1,14.3,0l4.6,4.5
					c0.2,0.5,0.8,1.9,0.2,3.6c-12.9,3.4-31.9,9.5-40.9,17.6c-2.7,1.5-19.7,11.8-22.7,25.3c-0.1,0.4-2.1,10.2,3.1,17.5
					c0.6,0.8,1.3,1.6,2,2.3L446.1,178.5z"/>
				<path class="st3" d="M415.8,147.1c0.5,0,1.1-0.1,1.5-0.5l21.7-21.5c0.8-0.7,1.7-2.2,1.1-4.3c0-0.1-0.1-0.2-0.1-0.3l-5.3-10.4
					c-0.5-0.9-1.6-1.3-2.5-0.8c-0.9,0.5-1.3,1.6-0.8,2.5l5.2,10.2c0,0.1,0,0.2,0,0.2c0,0-0.1,0.1-0.1,0.1l-21.8,21.5
					c-0.7,0.7-0.8,1.9,0,2.7C415,146.8,415.4,147,415.8,147.1z"/>
				<path class="st3" d="M435.9,108.7l7,12.6c0.3,1.1,0,1.6,0,1.7l-27.1,27.6c-0.7,0.7-0.7,1.9,0,2.7c0.3,0.3,0.7,0.5,1.2,0.5
					c0.5,0,1.1-0.1,1.5-0.6l27.2-27.6c0.4-0.4,1.9-2.2,0.9-5.6c0-0.1-0.1-0.3-0.2-0.4l-7.4-13.5c-0.1-0.2-0.2-0.3-0.3-0.4
					c-0.6-0.6-1.8-1.2-3.1-0.8c-1,0.3-1.5,1.4-1.2,2.4C434.5,108.1,435.2,108.6,435.9,108.7z M442.8,123L442.8,123
					C442.8,123,442.9,123,442.8,123C442.9,122.9,442.9,123,442.8,123z M442.9,122.9C442.9,122.9,442.9,122.9,442.9,122.9
					C442.8,123,442.9,122.9,442.9,122.9z"/>
				<path class="st3" d="M444.9,86.7c-1.3,0.1-2.2,1.2-2.1,2.5c0.1,1.1,1,2,2.1,2.1c0.1,0,0.3,0,0.4,0c2.9-0.3,4.8-1.8,5-2
					c0.2-0.2,0.4-0.4,0.5-0.7c6.2-11.5,5.5-17.4,5.4-18c-0.2-1.3-1.4-2.2-2.6-2c-1.3,0.2-2.1,1.3-2,2.6c0,0,0.5,4.9-4.7,14.7
					C446.7,86.2,445.9,86.6,444.9,86.7z"/>
			</g>
		</g>
		<line class="st6" x1="379.4" y1="94.5" x2="357.4" y2="46.6"/>
		<line class="st6" x1="398.3" y1="87.1" x2="404.1" y2="46.8"/>
		<line class="st6" x1="361.3" y1="104.9" x2="320.7" y2="74"/>
	</g>
</g>
<g id="レイヤー_2">
	<g>
		<g>
			<defs>
				<rect id="SVGID_3_" x="0" width="900" height="300"/>
			</defs>
			<clipPath id="SVGID_4_">
				<use xlink:href="#SVGID_3_"  style="overflow:visible;"/>
			</clipPath>
			<rect x="-10" y="-10" class="st7" width="918.9" height="318"/>
			<g class="st8">
				<g>
					<polygon class="st2" points="312.7,38.6 288.8,31.5 139.8,31.5 109.6,152.4 96.2,152.4 83.6,188.2 83.6,233.2 66.7,233.2 
						47.8,274 47.8,586 313.4,586 					"/>
					<path class="st9" d="M314,588.5H196.7c-1.8,0-3.2-1.4-3.2-3.2V275c0-0.5,0.1-0.9,0.3-1.3l19.4-42.4c0.5-1.1,1.7-1.9,2.9-1.9
						h34.8v-55.9c0-0.3,0-0.7,0.1-1L285.9,31c0.2-0.8,0.7-1.5,1.5-2c0.7-0.4,1.6-0.6,2.4-0.4l25,6.4c1.4,0.4,2.4,1.6,2.4,3.1v547.1
						C317.2,587.1,315.8,588.5,314,588.5z M199.9,582.1h110.9V40.7l-19.5-5l-34,137.9v59c0,1.8-1.4,3.2-3.2,3.2h-35.9l-18.3,39.9
						V582.1z"/>
					<path class="st9" d="M196.7,588.2H48.1c-1.8,0-3.2-1.4-3.2-3.2V275c0-0.5,0.1-0.9,0.3-1.3l19.2-42.3c0.5-1.1,1.7-1.9,2.9-1.9
						h35.2v-55.8c0-0.3,0-0.5,0.1-0.8L137.2,31c0.3-1.4,1.6-2.4,3.1-2.4H289c1.8,0,3.2,1.4,3.2,3.2S290.8,35,289,35H142.8
						l-33.9,139.1v58.6c0,1.8-1.4,3.2-3.2,3.2H69.3l-18.1,39.8v306.2h145.5c1.8,0,3.2,1.4,3.2,3.2S198.5,588.2,196.7,588.2z"/>
					<path class="st9" d="M219.5,235.9H79.5c-1.8,0-3.2-1.4-3.2-3.2c0-1.8,1.4-3.2,3.2-3.2h140.1c1.8,0,3.2,1.4,3.2,3.2
						C222.7,234.4,221.3,235.9,219.5,235.9z"/>
					<path class="st9" d="M196.7,278.1H50c-1.7,0-3.2-1.4-3.2-3.2s1.4-3.2,3.2-3.2h146.7c1.7,0,3.2,1.4,3.2,3.2
						S198.5,278.1,196.7,278.1z"/>
					<path class="st9" d="M254.1,176.4H105.9c-1.7,0-3.2-1.4-3.2-3.2s1.4-3.2,3.2-3.2h148.2c1.7,0,3.2,1.4,3.2,3.2
						S255.8,176.4,254.1,176.4z"/>
					<path class="st9" d="M210.3,138.1h-79.5c-1,0-1.9-0.5-2.5-1.2c-0.6-0.8-0.8-1.8-0.6-2.7l18.5-76c0.3-1.4,1.6-2.4,3.1-2.4h79.5
						c1,0,1.9,0.5,2.5,1.2c0.6,0.8,0.8,1.8,0.6,2.7l-18.5,76C213.1,137.1,211.8,138.1,210.3,138.1z M134.9,131.7h72.9l17-69.6h-72.9
						L134.9,131.7z"/>
					<path class="st9" d="M244.1,138.1h-19.6c-1,0-1.9-0.5-2.5-1.2c-0.6-0.8-0.8-1.8-0.6-2.7L232,90.1c0.3-1.4,1.6-2.4,3.1-2.4h19.6
						c1,0,1.9,0.5,2.5,1.2c0.6,0.8,0.8,1.8,0.6,2.7l-10.7,44.1C246.8,137.1,245.5,138.1,244.1,138.1z M228.5,131.7h13l9.2-37.7h-13
						L228.5,131.7z"/>
					<path class="st9" d="M152.5,217.9H117c-1.8,0-3.2-1.4-3.2-3.2v-21.4c0-1.8,1.4-3.2,3.2-3.2h35.5c1.8,0,3.2,1.4,3.2,3.2v21.4
						C155.7,216.5,154.2,217.9,152.5,217.9z M120.2,211.5h29.1v-15h-29.1V211.5z"/>
					<path class="st9" d="M117.4,277.3H62.7c-1.1,0-2.1-0.5-2.7-1.4c-0.6-0.9-0.7-2-0.3-3l17.5-41c0.5-1.2,1.7-1.9,2.9-1.9h54.7
						c1.1,0,2.1,0.5,2.7,1.4c0.6,0.9,0.7,2,0.3,3l-17.5,41C119.9,276.5,118.7,277.3,117.4,277.3z M67.6,270.9h47.7l14.8-34.6H82.4
						L67.6,270.9z"/>
					<path class="st9" d="M232.3,208.6h-37.8c-1.8,0-3.2-1.4-3.2-3.2v-9c0-1.8,1.4-3.2,3.2-3.2h37.8c1.8,0,3.2,1.4,3.2,3.2v9
						C235.5,207.2,234.1,208.6,232.3,208.6z M197.7,202.2h31.4v-2.6h-31.4V202.2z"/>
					<path class="st9" d="M84.4,236.3c-2.1,0-3.9-1.7-3.9-3.9v-45.2c0-0.4,0.1-0.8,0.2-1.2l11.8-35.5c0.5-1.6,2-2.6,3.7-2.6h13.7
						c2.1,0,3.9,1.7,3.9,3.9c0,2.1-1.7,3.9-3.9,3.9H99l-10.8,32.3v44.6C88.3,234.6,86.5,236.3,84.4,236.3z"/>
					<g>
						<polygon class="st2" points="241.2,231.8 241.2,185.4 253.3,149.1 273.2,149.1 273.2,231.7 						"/>
						<path class="st9" d="M241.2,235.7c-1,0-2-0.4-2.8-1.1c-0.7-0.7-1.2-1.7-1.2-2.8v-46.4c0-0.4,0.1-0.8,0.2-1.2l12.1-36.3
							c0.5-1.6,2-2.7,3.7-2.7h19.9c2.2,0,3.9,1.8,3.9,3.9v82.6c0,2.2-1.8,3.9-3.9,3.9L241.2,235.7
							C241.2,235.7,241.2,235.7,241.2,235.7z M245.1,186v41.8l24.1-0.1v-74.7h-13.2L245.1,186z"/>
					</g>
				</g>
				<g>
					<polygon class="st2" points="570.6,38.6 546.7,31.5 397.7,31.5 367.5,152.4 354.2,152.4 341.5,188.2 341.5,233.2 324.6,233.2 
						305.7,274 305.7,586 571.3,586 					"/>
					<path class="st9" d="M572,588.5H454.6c-1.8,0-3.2-1.4-3.2-3.2V275c0-0.5,0.1-0.9,0.3-1.3l19.4-42.4c0.5-1.1,1.7-1.9,2.9-1.9
						h34.8v-55.9c0-0.3,0-0.7,0.1-1L543.8,31c0.2-0.8,0.7-1.5,1.5-2c0.7-0.4,1.6-0.6,2.4-0.4l25,6.4c1.4,0.4,2.4,1.6,2.4,3.1v547.1
						C575.2,587.1,573.7,588.5,572,588.5z M457.8,582.1h110.9V40.7l-19.5-5l-34,137.9v59c0,1.8-1.4,3.2-3.2,3.2h-35.9l-18.3,39.9
						V582.1z"/>
					<path class="st9" d="M454.6,588.2H306c-1.8,0-3.2-1.4-3.2-3.2V275c0-0.5,0.1-0.9,0.3-1.3l19.2-42.3c0.5-1.1,1.7-1.9,2.9-1.9
						h35.2v-55.8c0-0.3,0-0.5,0.1-0.8L395.1,31c0.3-1.4,1.6-2.4,3.1-2.4h148.7c1.8,0,3.2,1.4,3.2,3.2s-1.4,3.2-3.2,3.2H400.8
						l-33.9,139.1v58.6c0,1.8-1.4,3.2-3.2,3.2h-36.4l-18.1,39.8v306.2h145.5c1.8,0,3.2,1.4,3.2,3.2S456.4,588.2,454.6,588.2z"/>
					<path class="st9" d="M477.4,235.9H337.4c-1.8,0-3.2-1.4-3.2-3.2c0-1.8,1.4-3.2,3.2-3.2h140.1c1.8,0,3.2,1.4,3.2,3.2
						C480.6,234.4,479.2,235.9,477.4,235.9z"/>
					<path class="st9" d="M454.6,278.1H307.9c-1.7,0-3.2-1.4-3.2-3.2s1.4-3.2,3.2-3.2h146.7c1.7,0,3.2,1.4,3.2,3.2
						S456.4,278.1,454.6,278.1z"/>
					<path class="st9" d="M512,176.4H363.8c-1.7,0-3.2-1.4-3.2-3.2s1.4-3.2,3.2-3.2H512c1.7,0,3.2,1.4,3.2,3.2
						S513.8,176.4,512,176.4z"/>
					<path class="st9" d="M468.2,138.1h-79.5c-1,0-1.9-0.5-2.5-1.2c-0.6-0.8-0.8-1.8-0.6-2.7l18.5-76c0.3-1.4,1.6-2.4,3.1-2.4h79.5
						c1,0,1.9,0.5,2.5,1.2c0.6,0.8,0.8,1.8,0.6,2.7l-18.5,76C471,137.1,469.7,138.1,468.2,138.1z M392.8,131.7h72.9l17-69.6h-72.9
						L392.8,131.7z"/>
					<path class="st9" d="M502,138.1h-19.6c-1,0-1.9-0.5-2.5-1.2c-0.6-0.8-0.8-1.8-0.6-2.7L490,90.1c0.3-1.4,1.6-2.4,3.1-2.4h19.6
						c1,0,1.9,0.5,2.5,1.2c0.6,0.8,0.8,1.8,0.6,2.7l-10.7,44.1C504.7,137.1,503.5,138.1,502,138.1z M486.4,131.7h13l9.2-37.7h-13
						L486.4,131.7z"/>
					<path class="st9" d="M410.4,217.9h-35.5c-1.8,0-3.2-1.4-3.2-3.2v-21.4c0-1.8,1.4-3.2,3.2-3.2h35.5c1.8,0,3.2,1.4,3.2,3.2v21.4
						C413.6,216.5,412.1,217.9,410.4,217.9z M378.1,211.5h29.1v-15h-29.1V211.5z"/>
					<path class="st9" d="M375.3,277.3h-54.7c-1.1,0-2.1-0.5-2.7-1.4c-0.6-0.9-0.7-2-0.3-3l17.5-41c0.5-1.2,1.7-1.9,2.9-1.9h54.7
						c1.1,0,2.1,0.5,2.7,1.4c0.6,0.9,0.7,2,0.3,3l-17.5,41C377.8,276.5,376.6,277.3,375.3,277.3z M325.5,270.9h47.7l14.8-34.6h-47.7
						L325.5,270.9z"/>
					<path class="st9" d="M490.3,208.6h-37.8c-1.8,0-3.2-1.4-3.2-3.2v-9c0-1.8,1.4-3.2,3.2-3.2h37.8c1.8,0,3.2,1.4,3.2,3.2v9
						C493.5,207.2,492,208.6,490.3,208.6z M455.7,202.2h31.4v-2.6h-31.4V202.2z"/>
					<path class="st9" d="M342.3,236.3c-2.1,0-3.9-1.7-3.9-3.9v-45.2c0-0.4,0.1-0.8,0.2-1.2l11.8-35.5c0.5-1.6,2-2.6,3.7-2.6h13.7
						c2.1,0,3.9,1.7,3.9,3.9c0,2.1-1.7,3.9-3.9,3.9h-10.9l-10.8,32.3v44.6C346.2,234.6,344.5,236.3,342.3,236.3z"/>
					<g>
						<polygon class="st2" points="499.1,231.8 499.1,185.4 511.2,149.1 531.1,149.1 531.1,231.7 						"/>
						<path class="st9" d="M499.1,235.7c-1,0-2-0.4-2.8-1.1c-0.7-0.7-1.2-1.7-1.2-2.8v-46.4c0-0.4,0.1-0.8,0.2-1.2l12.1-36.3
							c0.5-1.6,2-2.7,3.7-2.7h19.9c2.2,0,3.9,1.8,3.9,3.9v82.6c0,2.2-1.8,3.9-3.9,3.9L499.1,235.7
							C499.1,235.7,499.1,235.7,499.1,235.7z M503.1,186v41.8l24.1-0.1v-74.7H514L503.1,186z"/>
					</g>
				</g>
				<g>
					<polygon class="st2" points="828.5,38.6 804.6,31.5 655.6,31.5 625.4,152.4 612.1,152.4 599.4,188.2 599.4,233.2 582.6,233.2 
						563.6,274 563.6,586 829.2,586 					"/>
					<path class="st9" d="M829.9,588.5H712.6c-1.8,0-3.2-1.4-3.2-3.2V275c0-0.5,0.1-0.9,0.3-1.3l19.4-42.4c0.5-1.1,1.7-1.9,2.9-1.9
						h34.8v-55.9c0-0.3,0-0.7,0.1-1L801.7,31c0.2-0.8,0.7-1.5,1.5-2c0.7-0.4,1.6-0.6,2.4-0.4l25,6.4c1.4,0.4,2.4,1.6,2.4,3.1v547.1
						C833.1,587.1,831.6,588.5,829.9,588.5z M715.8,582.1h110.9V40.7l-19.5-5l-34,137.9v59c0,1.8-1.4,3.2-3.2,3.2H734l-18.3,39.9
						V582.1z"/>
					<path class="st9" d="M712.6,588.2H563.9c-1.8,0-3.2-1.4-3.2-3.2V275c0-0.5,0.1-0.9,0.3-1.3l19.2-42.3c0.5-1.1,1.7-1.9,2.9-1.9
						h35.2v-55.8c0-0.3,0-0.5,0.1-0.8L653.1,31c0.3-1.4,1.6-2.4,3.1-2.4h148.7c1.8,0,3.2,1.4,3.2,3.2s-1.4,3.2-3.2,3.2H658.7
						l-33.9,139.1v58.6c0,1.8-1.4,3.2-3.2,3.2h-36.4l-18.1,39.8v306.2h145.5c1.8,0,3.2,1.4,3.2,3.2S714.3,588.2,712.6,588.2z"/>
					<path class="st9" d="M735.4,235.9H595.3c-1.8,0-3.2-1.4-3.2-3.2c0-1.8,1.4-3.2,3.2-3.2h140.1c1.8,0,3.2,1.4,3.2,3.2
						C738.6,234.4,737.1,235.9,735.4,235.9z"/>
					<path class="st9" d="M712.6,278.1H565.8c-1.7,0-3.2-1.4-3.2-3.2s1.4-3.2,3.2-3.2h146.7c1.7,0,3.2,1.4,3.2,3.2
						S714.3,278.1,712.6,278.1z"/>
					<path class="st9" d="M769.9,176.4H621.7c-1.7,0-3.2-1.4-3.2-3.2s1.4-3.2,3.2-3.2h148.2c1.7,0,3.2,1.4,3.2,3.2
						S771.7,176.4,769.9,176.4z"/>
					<path class="st9" d="M726.1,138.1h-79.5c-1,0-1.9-0.5-2.5-1.2c-0.6-0.8-0.8-1.8-0.6-2.7l18.5-76c0.3-1.4,1.6-2.4,3.1-2.4h79.5
						c1,0,1.9,0.5,2.5,1.2c0.6,0.8,0.8,1.8,0.6,2.7l-18.5,76C728.9,137.1,727.6,138.1,726.1,138.1z M650.7,131.7h72.9l17-69.6h-72.9
						L650.7,131.7z"/>
					<path class="st9" d="M759.9,138.1h-19.6c-1,0-1.9-0.5-2.5-1.2c-0.6-0.8-0.8-1.8-0.6-2.7l10.7-44.1c0.3-1.4,1.6-2.4,3.1-2.4
						h19.6c1,0,1.9,0.5,2.5,1.2c0.6,0.8,0.8,1.8,0.6,2.7L763,135.7C762.7,137.1,761.4,138.1,759.9,138.1z M744.4,131.7h13l9.2-37.7
						h-13L744.4,131.7z"/>
					<path class="st9" d="M668.3,217.9h-35.5c-1.8,0-3.2-1.4-3.2-3.2v-21.4c0-1.8,1.4-3.2,3.2-3.2h35.5c1.8,0,3.2,1.4,3.2,3.2v21.4
						C671.5,216.5,670.1,217.9,668.3,217.9z M636,211.5h29.1v-15H636V211.5z"/>
					<path class="st9" d="M633.3,277.3h-54.7c-1.1,0-2.1-0.5-2.7-1.4c-0.6-0.9-0.7-2-0.3-3l17.5-41c0.5-1.2,1.7-1.9,2.9-1.9h54.7
						c1.1,0,2.1,0.5,2.7,1.4c0.6,0.9,0.7,2,0.3,3l-17.5,41C635.7,276.5,634.5,277.3,633.3,277.3z M583.4,270.9h47.7l14.8-34.6h-47.7
						L583.4,270.9z"/>
					<path class="st9" d="M748.2,208.6h-37.8c-1.8,0-3.2-1.4-3.2-3.2v-9c0-1.8,1.4-3.2,3.2-3.2h37.8c1.8,0,3.2,1.4,3.2,3.2v9
						C751.4,207.2,749.9,208.6,748.2,208.6z M713.6,202.2H745v-2.6h-31.4V202.2z"/>
					<path class="st9" d="M600.3,236.3c-2.1,0-3.9-1.7-3.9-3.9v-45.2c0-0.4,0.1-0.8,0.2-1.2l11.8-35.5c0.5-1.6,2-2.6,3.7-2.6h13.7
						c2.1,0,3.9,1.7,3.9,3.9c0,2.1-1.7,3.9-3.9,3.9h-10.9l-10.8,32.3v44.6C604.1,234.6,602.4,236.3,600.3,236.3z"/>
					<g>
						<polygon class="st2" points="757,231.8 757,185.4 769.1,149.1 789.1,149.1 789.1,231.7 						"/>
						<path class="st9" d="M757,235.7c-1,0-2-0.4-2.8-1.1c-0.7-0.7-1.2-1.7-1.2-2.8v-46.4c0-0.4,0.1-0.8,0.2-1.2l12.1-36.3
							c0.5-1.6,2-2.7,3.7-2.7h19.9c2.2,0,3.9,1.8,3.9,3.9v82.6c0,2.2-1.8,3.9-3.9,3.9L757,235.7C757.1,235.7,757.1,235.7,757,235.7z
							 M761,186v41.8l24.1-0.1v-74.7H772L761,186z"/>
					</g>
				</g>
			</g>
		</g>
	</g>
</g>
<g id="レイヤー_3">
	<g>
		<g>
			<defs>
				<rect id="SVGID_5_" x="0" width="900" height="300"/>
			</defs>
			<clipPath id="SVGID_6_">
				<use xlink:href="#SVGID_5_"  style="overflow:visible;"/>
			</clipPath>
			<rect x="-10" y="-10" class="st10" width="918.9" height="318"/>
			<g class="st11">
				<path class="st9" d="M831.5,1374H533.4c-2.4,0-4.4-1.9-4.4-4.4V580.9c0-0.6,0.1-1.2,0.4-1.8l49.4-107.7c0.7-1.5,2.3-2.5,4-2.5
					h92.2V322.9c-0.1-0.5,0-1,0.1-1.5l88.7-359.6c0.3-1.1,1-2.1,2-2.7c1-0.6,2.2-0.8,3.3-0.5l63.6,16.3c1.9,0.5,3.3,2.2,3.3,4.2
					v1390.5C835.9,1372,834,1374,831.5,1374z M537.7,1365.2h289.5V-17.5l-56.1-14.4l-87.5,354.7v150.4c0,2.4-1.9,4.4-4.4,4.4h-93.7
					l-47.8,104.3V1365.2z"/>
				<path class="st9" d="M533.4,1373.2H155.5c-2.4,0-4.4-1.9-4.4-4.4v-788c0-0.6,0.1-1.2,0.4-1.8l48.9-107.5c0.7-1.6,2.3-2.6,4-2.6
					h93.4V323.5c0-0.3,0-0.7,0.1-1l87.9-360.8c0.5-1.9,2.2-3.3,4.2-3.3h377.8c2.4,0,4.4,1.9,4.4,4.4c0,2.4-1.9,4.4-4.4,4.4H393.5
					l-87,356.9v149.3c0,2.4-1.9,4.4-4.4,4.4h-94.9l-47.3,104.1v782.7h373.5c2.4,0,4.4,1.9,4.4,4.4
					C537.7,1371.3,535.8,1373.2,533.4,1373.2z"/>
				<path class="st9" d="M591.3,477.7h-356c-2.4,0-4.4-1.9-4.4-4.4s1.9-4.4,4.4-4.4h356c2.4,0,4.4,1.9,4.4,4.4
					S593.7,477.7,591.3,477.7z"/>
				<path class="st9" d="M533.4,585.2h-373c-2.4,0-4.4-1.9-4.4-4.4s1.9-4.4,4.4-4.4h373c2.4,0,4.4,1.9,4.4,4.4
					S535.8,585.2,533.4,585.2z"/>
				<path class="st9" d="M679.2,326.7H302.5c-2.4,0-4.4-1.9-4.4-4.4c0-2.4,1.9-4.4,4.4-4.4h376.7c2.4,0,4.4,1.9,4.4,4.4
					C683.6,324.8,681.6,326.7,679.2,326.7z"/>
				<path class="st9" d="M567.9,229.4H365.8c-1.3,0-2.6-0.6-3.4-1.7c-0.8-1.1-1.1-2.4-0.8-3.7l47.1-193.2c0.5-1.9,2.2-3.3,4.2-3.3
					H615c1.3,0,2.6,0.6,3.4,1.7c0.8,1.1,1.1,2.4,0.8,3.7L572.1,226C571.7,228,569.9,229.4,567.9,229.4z M371.3,220.7h193.2l45-184.5
					H416.3L371.3,220.7z"/>
				<path class="st9" d="M653.7,229.4h-49.9c-1.3,0-2.6-0.6-3.4-1.7c-0.8-1.1-1.1-2.4-0.8-3.7l27.2-112.1c0.5-2,2.2-3.3,4.2-3.3
					h49.9c1.3,0,2.6,0.6,3.4,1.7c0.8,1,1.1,2.4,0.8,3.7L657.9,226C657.4,228,655.7,229.4,653.7,229.4z M609.4,220.7h40.9l25.1-103.4
					h-40.9L609.4,220.7z"/>
				<path class="st9" d="M420.9,432.1h-90.1c-2.4,0-4.4-1.9-4.4-4.4v-54.3c0-2.4,1.9-4.4,4.4-4.4h90.1c2.4,0,4.4,1.9,4.4,4.4v54.3
					C425.2,430.2,423.3,432.1,420.9,432.1z M335.1,423.4h81.4v-45.6h-81.4V423.4z"/>
				<path class="st9" d="M331.8,583h-139c-1.5,0-2.8-0.7-3.6-2c-0.8-1.2-0.9-2.8-0.4-4.1l44.5-104.2c0.7-1.6,2.3-2.6,4-2.6h139
					c1.5,0,2.8,0.7,3.6,2c0.8,1.2,0.9,2.8,0.4,4.1l-44.5,104.2C335.2,582,333.6,583,331.8,583z M199.5,574.3H329l40.8-95.5H240.3
					L199.5,574.3z"/>
				<path class="st9" d="M623.9,408.5h-96.1c-2.4,0-4.4-1.9-4.4-4.4v-22.8c0-2.4,1.9-4.4,4.4-4.4h96.1c2.4,0,4.4,1.9,4.4,4.4v22.8
					C628.3,406.6,626.3,408.5,623.9,408.5z M532.2,399.8h87.4v-14.1h-87.4V399.8z"/>
				<path class="st9" d="M248,477.2c-2.4,0-4.4-1.9-4.4-4.4v-115c0-0.5,0.1-0.9,0.2-1.4l30.1-90.3c0.6-1.8,2.3-3,4.1-3h34.8
					c2.4,0,4.4,1.9,4.4,4.4s-1.9,4.4-4.4,4.4h-31.6l-28.8,86.7v114.3C252.3,475.2,250.4,477.2,248,477.2z"/>
				<g>
					<polygon class="st2" points="646.4,473.4 646.4,355.5 677.1,263.3 727.8,263.3 727.8,473.1 					"/>
					<path class="st9" d="M646.4,477.7c-1.2,0-2.3-0.5-3.1-1.3c-0.8-0.8-1.3-1.9-1.3-3.1V355.5c0-0.5,0.1-0.9,0.2-1.4l30.7-92.2
						c0.6-1.8,2.3-3,4.1-3h50.7c2.4,0,4.4,1.9,4.4,4.4v209.8c0,2.4-1.9,4.3-4.3,4.4L646.4,477.7
						C646.5,477.7,646.4,477.7,646.4,477.7z M650.8,356.2V469l72.7-0.2V267.6h-43.2L650.8,356.2z"/>
				</g>
			</g>
			<g class="st11">
				<path class="st2" d="M-15.5,122.3v109.8l62.8-27.8l43.4-16.6c0,0,12.8-4.1,24.3,4.9c0,0,26.6,18.6,84.5,2.6
					c0,0,19.9-6.1,42.4-2.6l39.1,10c0,0,38,10.5,42.1-8.7c0,0,9.2-18.9-23.5-37c0,0,18.1-14.6,23-24.8c0,0,16.9,14,25.8,17.4
					c0,0,32.7,39.6,53.9,20.9c0,0,9.4-5.6-4.1-18.9c0,0-10.5-8.4-12-12c0,0-3.6-6.1-10.5-9.7l-23-27.8l-10.2-12.5
					c0,0-4.6-7.7-12-10.7c0,0-37-25.5-43.9-32.4l-17.1-14c0,0-15.3-16.1-29.6-14l-40.3,18.6l-72,32.4L87.2,81.9l-18.4,7.1l-14.3,6.6
					L-15.5,122.3z"/>
				<g>
					<path class="st9" d="M-15,234.3c-1.2,0-2.3-0.7-2.8-1.8c-0.7-1.5,0-3.4,1.5-4.1c9.9-4.6,97.1-44.7,110.8-45.3
						c13.7-0.6,21.3,5.4,22.5,6.3c0.6,0.5,7.5,5.1,20.9,7.4c23.7,4.1,49.5-2,66.9-7.9l0.3-0.1l0.3,0c0.9-0.1,21.2-2.6,34.9-0.8
						l0.2,0l41.5,11c0,0,8.6,2.1,17.6,2.4c7.6,0.2,17-0.9,19.2-7.2c4.7-13.5-3.9-22.1-4.3-22.5c-0.1-0.1-13.1-12.5-24.3-15.2
						c-10.1-2.4-35.8-13.7-49.3-28.8c-0.2-0.2-0.7-0.9-0.9-1.1c-1.1-1.4-3.1-3.9-4-5.4c-0.9-1.5-0.4-3.3,1.1-4.2
						c1.5-0.9,3.3-0.4,4.2,1.1c0.5,0.8,1.8,2.7,3.5,4.7c0.4,0.5,0.6,0.8,0.7,0.9c12.1,13.4,36.1,24.5,46.2,26.9
						c12.9,3.1,26.6,16.2,27.1,16.8c0.5,0.5,11.9,11.7,5.8,28.9c-3.4,9.8-15.7,11.5-25.3,11.3c-9.7-0.3-18.5-2.5-18.9-2.6
						l-41.2-10.9c-12.1-1.5-30.3,0.5-32.9,0.8c-13.9,4.7-32.9,9.4-52.3,9.4c-6,0-12-0.5-17.8-1.5c-15.4-2.7-22.8-8.2-23.1-8.5
						l-0.2-0.2c-0.2-0.2-6.4-5.4-18.3-4.9c-9.5,0.4-70,26.9-108.5,44.7C-14.1,234.2-14.6,234.3-15,234.3z"/>
					<path class="st9" d="M243.4,127c-0.1,0-0.2,0-0.3,0c-1.7-0.1-2.9-1.6-2.8-3.3c0.3-3.1,2.7-30.3,11.2-39.3
						c1.2-1.2,3.1-1.3,4.3-0.1c1.2,1.2,1.3,3.1,0.1,4.3c-2.8,3-5.5,10.2-7.4,20.3c-1.6,8-2.2,15.1-2.2,15.2
						C246.3,125.8,245,127,243.4,127z"/>
					<path class="st9" d="M252,131.9c-0.7,0-1.5-0.3-2.1-0.8c-1.2-1.1-1.3-3.1-0.2-4.3c0.2-0.2,16.9-18.5,25-31.2
						c-0.1-3.3,0.2-13.7,6.7-23.7c0.9-1.4,2.8-1.8,4.2-0.9c1.4,0.9,1.8,2.8,0.9,4.2C280.1,85.2,281,95.9,281,96l0.1,1l-0.5,0.9
						c-8.2,13.3-25.5,32.2-26.3,33C253.7,131.5,252.8,131.9,252,131.9z"/>
					<path class="st9" d="M388.7,177.8c-6.3,0-14.2-2.4-23.7-9.1c-9.5-6.7-16.9-15-18.7-17.2c-19-9.1-33.7-26.3-37.1-30.5
						c-24.1-5.4-33.5-22.6-33.9-23.3c-0.8-1.5-0.2-3.3,1.3-4.1c1.5-0.8,3.3-0.2,4.1,1.3l0,0c0.1,0.2,8.8,15.9,30.8,20.4l1.1,0.2
						l0.7,0.9c0.2,0.2,16.1,20.4,36.2,29.9l0.6,0.3l0.4,0.5c0.3,0.4,30.1,36.1,48.9,20.8l0.1-0.1c0.1-0.1,3.1-2.3,2.1-4.8l-0.5-1.1
						l0.3-0.8c0-0.4-0.5-2.4-4.1-5.6c-1.5-1.2-10.8-8.7-13.8-14.6c-3.3-3.3-7.5-7.1-8.9-7.6l-0.8-0.3l-33-40.5l-0.1-0.2
						c-1.3-2.2-5.9-8.4-10.8-10.2l-0.3-0.1l-0.3-0.2c-0.7-0.5-17.7-11.5-31.2-23.3l-33.6-26.5l-0.2-0.2c-0.1-0.2-14.5-15.7-28.8-9.4
						l-40.8,19.4l-68.7,30.4l-0.2,0.1c-0.5,0.2-52.7,16.9-65.8,23.9l-0.2,0.1l-0.2,0.1L-15.6,125c-1.6,0.6-3.4-0.2-4-1.8
						c-0.6-1.6,0.2-3.4,1.8-4l75.1-28.6c13.6-7.3,62.8-23,66.5-24.2l68.4-30.3l40.8-19.4c17.6-7.7,33.6,8.5,35.6,10.7l33.4,26.4
						c12.3,10.7,28,21.1,30.3,22.6c7.2,2.8,12.6,11,13.5,12.5l31.7,38.9c3.6,1.8,9,7.3,10.7,9.1l0.4,0.4l0.2,0.5
						c1.6,3.6,8.4,9.8,12.3,12.9l0.2,0.1c5.5,5,6.3,8.7,6.1,10.7c1.5,5.1-2.1,9.5-4.4,11.2C399.7,175.5,395,177.8,388.7,177.8z"/>
					<path class="st9" d="M298.1,159.4c-0.9,0-1.8-0.4-2.4-1.2c-1-1.3-0.8-3.3,0.6-4.3c0.1,0,5.3-4,10.7-9.1
						c9.3-8.6,11.7-13.2,12.3-15.1c0.5-1.6,2.2-2.5,3.8-2c1.6,0.5,2.5,2.2,2,3.8c-3.2,10.3-22.9,25.6-25.1,27.3
						C299.5,159.2,298.8,159.4,298.1,159.4z"/>
					<path class="st9" d="M257.4,140.4c-0.5,0-1-0.1-1.5-0.4c-1.5-0.8-2-2.7-1.2-4.1c0.2-0.3,4.1-7.6,10.3-11l0.2-0.1l0.3-0.1
						c0.9-0.3,22.8-7.8,34-7.2c1.7,0.1,3,1.5,2.9,3.2c-0.1,1.7-1.5,3-3.2,2.9c-9.5-0.5-28.9,5.9-31.5,6.8c-4.5,2.7-7.7,8.4-7.7,8.5
						C259.5,139.8,258.5,140.4,257.4,140.4z"/>
					<path class="st9" d="M310.8,121.3c-1.6,0-2.9-1.2-3-2.8c-0.2-1.7,1.1-3.2,2.8-3.3c6.2-0.6,12.9-8.9,15-12.1
						c0.9-1.4,2.8-1.8,4.2-0.9c1.4,0.9,1.8,2.8,0.9,4.2c-0.1,0.1-2.3,3.5-5.6,6.9c-4.8,4.9-9.4,7.6-14,8
						C311,121.3,310.9,121.3,310.8,121.3z"/>
					<path class="st9" d="M348.1,152.1c-1.7,0-3-1.3-3.1-3c0-1.7,1.3-3.1,3-3.1c4.8-0.1,11.6-6.3,13.6-8.5c1.1-1.3,3.1-1.3,4.3-0.2
						c1.3,1.1,1.3,3.1,0.2,4.3c-0.1,0.1-2.3,2.6-5.6,5.1C356.1,150.2,351.9,152.1,348.1,152.1C348.2,152.1,348.1,152.1,348.1,152.1z
						"/>
				</g>
				<path class="st9" d="M396,164.6c-0.4,0-0.8-0.1-1.1-0.3c-8.4-4.1-10.4-9.2-10.9-10.9c-0.8-1.5-0.6-3.3-0.1-4.3l4.8,2.1
					c0,0,0,0,0,0c0,0,0-0.1-0.1-0.1l0.1,0.1c0,0,0,0,0,0c0,0,0,0,0,0.1l0.3,0.5l0,0.5c0.1,0.5,1.2,4.2,8.1,7.6
					c1.3,0.6,1.8,2.2,1.2,3.5C397.9,164.1,397,164.6,396,164.6z"/>
				<path class="st9" d="M290.2,197.4c-1.1,0-2.2-0.6-2.8-1.8c-0.7-1.5-0.1-3.4,1.5-4.1c0.1,0,7.2-3.5,9.6-9.1
					c2.4-5.5-0.7-13-0.7-13c-0.7-1.6,0.1-3.4,1.6-4c1.6-0.7,3.4,0.1,4,1.6c0.2,0.4,4.1,9.9,0.7,17.9c-3.4,7.8-12.3,12.1-12.6,12.2
					C291.1,197.3,290.7,197.4,290.2,197.4z"/>
				<path class="st9" d="M303,199.6c-0.7,0-2.2-0.1-3.7-0.4c-1.1-0.2-1.8-1.2-1.9-2.2c-0.1-1.1,0.5-2.1,1.5-2.5
					c0.4-0.2,9.5-4.1,8.5-15.5l-0.2-0.7c-0.3-0.9,0-1.9,0.6-2.6s1.7-0.9,2.6-0.6l3.4,1.2c0.1,0,0.2,0.1,0.3,0.1
					c0.6,0.3,2.1,1.1,2.7,2.5c0.5,1.3-0.1,2.8-1.3,3.3c-1,0.4-2.2,0.1-2.9-0.7c-0.3,6.8-3.5,11.6-6.9,14.5c0.2,0.3,0.2,0.6,0.3,1
					c0.1,1.4-1,2.6-2.4,2.6C303.5,199.6,303.3,199.6,303,199.6z"/>
			</g>
		</g>
	</g>
	<g>
		<g>
			<path class="st9" d="M636.1,101.6c0.6,0.2,1.3,0.3,2,0.5c-0.4,0.5-0.6,0.8-1,1.4c-1.1-0.3-2-0.7-3-1.1c-0.2-0.1-0.4-0.1-0.5-0.1
				c-2-0.1-3.3-1.5-2.7-4c0.5-2.2,2.5-4.1,5.1-4.1c2.8,0,3.4,2,2.9,4C638.4,99.8,637.3,101.1,636.1,101.6
				C636.1,101.6,636.1,101.6,636.1,101.6z M633.1,98.1c-0.4,1.5,0,2.6,1.1,2.6c1.1,0,1.9-1.1,2.3-2.6c0.4-1.4,0.1-2.5-1.1-2.5
				C634.3,95.5,633.5,96.7,633.1,98.1z"/>
			<path class="st9" d="M644.8,98.4c0.6,0.2,0.8,0.7,0.9,1.5c0,0.9,0.1,1.9,0.2,2.2c-0.9,0-1.4,0-2.3,0c-0.1-0.2-0.1-0.9-0.1-1.9
				c0-1-0.2-1.2-1-1.2c-0.2,0-0.3,0-0.4,0c-0.3,1.2-0.5,1.9-0.8,3.1c-0.9,0-1.3,0-2.2,0c0.8-3.1,1.1-4.7,1.9-7.8
				c0.7-0.1,1.6-0.2,2.6-0.2c1.3,0,3.8,0.1,3.2,2.3C646.7,97.3,645.8,98.1,644.8,98.4C644.8,98.4,644.8,98.4,644.8,98.4z M643,97.7
				c0.9,0,1.6-0.5,1.7-1.1c0.2-0.9-0.5-1.1-1.1-1.1c-0.3,0-0.6,0-0.7,0.1c-0.2,0.9-0.3,1.3-0.5,2.1C642.6,97.7,642.7,97.7,643,97.7z
				"/>
			<path class="st9" d="M661.5,95c-0.7,2.9-1.1,4.3-1.8,7.2c-0.8,0-1.2,0-2,0c0.1-0.2,0.1-0.3,0.1-0.5c-2.8,0-4.2,0-6.9,0
				c0.1-0.6,0.2-0.9,0.4-1.5c2.8,0,4.2,0,6.9,0c0.4-1.5,0.5-2.3,0.9-3.8c-2.7,0-4.1,0-6.8,0c0.1-0.6,0.2-0.9,0.4-1.5
				C656.2,95,657.9,95,661.5,95z"/>
			<path class="st9" d="M663.7,97.3c4.1,0,6.2,0,10.4,0c-0.2,0.6-0.2,0.9-0.4,1.6c-3.9,0-5.9,0-9.8,0c-0.1,0.1-0.3,0.2-0.5,0.2
				C663.5,98.3,663.6,98,663.7,97.3z"/>
			<path class="st9" d="M684.3,99.6c-0.8-0.5-2.2-1.1-3.3-1.5c-0.5,1.8-0.7,2.8-1.1,4.6c-0.8,0-1.2,0-2,0c0.9-3.6,1.3-5.4,2.2-9.1
				c1,0,1.4,0.1,2.4,0.1c0,0.1-0.2,0.2-0.5,0.3c-0.3,1.1-0.4,1.7-0.7,2.9c0.2-0.2,0.3-0.2,0.5-0.4c1.2,0.4,2.9,1,4,1.6
				C685.1,98.7,684.9,99,684.3,99.6z M684.7,94.3c0.4,0.3,0.9,0.9,1.1,1.3c-0.4,0.2-0.6,0.4-1,0.6c-0.2-0.4-0.7-1-1.1-1.4
				C684.2,94.6,684.4,94.5,684.7,94.3z M686.7,93.3c0.4,0.4,0.9,0.9,1.2,1.3c-0.4,0.2-0.6,0.3-1,0.6c-0.2-0.3-0.7-1-1.1-1.3
				C686.1,93.7,686.3,93.6,686.7,93.3z"/>
		</g>
	</g>
</g>
</svg>
