<?xml version="1.0" encoding="utf-8"?>
<!-- Generator: Adobe Illustrator 20.0.0, SVG Export Plug-In . SVG Version: 6.00 Build 0)  -->
<svg version="1.1" id="レイヤー_1" xmlns="http://www.w3.org/2000/svg" xmlns:xlink="http://www.w3.org/1999/xlink" x="0px"
	 y="0px" viewBox="0 0 40 25" style="enable-background:new 0 0 40 25;" xml:space="preserve">
<style type="text/css">
	.st0{fill:none;stroke:#595757;stroke-width:2;stroke-linecap:round;stroke-miterlimit:10;}
	.st1{fill:none;stroke:#595757;stroke-width:2;stroke-linecap:round;stroke-miterlimit:10;stroke-dasharray:1.8669,3.7337;}
	.st2{fill:#595757;}
</style>
<g>
	<g>
		<g>
			<g>
				<g>
					<g>
						<line class="st0" x1="12.3" y1="23.7" x2="12.3" y2="22.7"/>
						<line class="st1" x1="12.3" y1="19" x2="12.3" y2="4.1"/>
						<line class="st0" x1="12.3" y1="2.2" x2="12.3" y2="1.3"/>
					</g>
				</g>
				<g>
					<path class="st2" d="M38,2v3.4c-2,1.9-3.1,4.4-3.1,7.1s1.1,5.2,3.1,7.1V23H2v-3.4c2-1.9,3.1-4.4,3.1-7.1S4,7.3,2,5.4V2H38
						 M40,0H0v6.3c1.9,1.5,3.1,3.7,3.1,6.2S1.9,17.2,0,18.7V25h40v-6.3c-1.9-1.5-3.1-3.7-3.1-6.2s1.2-4.7,3.1-6.2V0L40,0z"/>
				</g>
			</g>
		</g>
	</g>
</g>
</svg>
